NotoSansMalayalam-Condensed.ufo
<glyph name="quotedbl.mlym" format="2">
  <advance width="388"/>
  <unicode hex="0022"/>
  <outline>
    <contour>
      <point x="79" y="542" type="line"/>
      <point x="140" y="542" type="line"/>
      <point x="156" y="800" type="line"/>
      <point x="62" y="800" type="line"/>
    </contour>
    <contour>
      <point x="249" y="542" type="line"/>
      <point x="310" y="542" type="line"/>
      <point x="326" y="800" type="line"/>
      <point x="232" y="800" type="line"/>
    </contour>
  </outline>
</glyph>
<glyph name="percent.mlym" format="2">
  <advance width="675"/>
  <unicode hex="0025"/>
  <outline>
    <contour>
      <point x="179" y="0" type="line"/>
      <point x="245" y="0" type="line"/>
      <point x="495" y="714" type="line"/>
      <point x="429" y="714" type="line"/>
    </contour>
    <contour>
      <point x="160" y="276" type="curve" smooth="yes"/>
      <point x="239" y="276"/>
      <point x="278" y="354"/>
      <point x="278" y="501" type="curve" smooth="yes"/>
      <point x="278" y="645"/>
      <point x="240" y="724"/>
      <point x="163" y="724" type="curve" smooth="yes"/>
      <point x="84" y="724"/>
      <point x="45" y="646"/>
      <point x="45" y="499" type="curve" smooth="yes"/>
      <point x="45" y="355"/>
      <point x="83" y="276"/>
    </contour>
    <contour>
      <point x="161" y="336" type="curve" smooth="yes"/>
      <point x="127" y="336"/>
      <point x="112" y="388"/>
      <point x="112" y="500" type="curve" smooth="yes"/>
      <point x="112" y="611"/>
      <point x="126" y="664"/>
      <point x="162" y="664" type="curve" smooth="yes"/>
      <point x="196" y="664"/>
      <point x="211" y="612"/>
      <point x="211" y="500" type="curve" smooth="yes"/>
      <point x="211" y="389"/>
      <point x="197" y="336"/>
    </contour>
    <contour>
      <point x="512" y="-10" type="curve" smooth="yes"/>
      <point x="591" y="-10"/>
      <point x="630" y="68"/>
      <point x="630" y="215" type="curve" smooth="yes"/>
      <point x="630" y="359"/>
      <point x="592" y="438"/>
      <point x="515" y="438" type="curve" smooth="yes"/>
      <point x="436" y="438"/>
      <point x="397" y="360"/>
      <point x="397" y="213" type="curve" smooth="yes"/>
      <point x="397" y="69"/>
      <point x="435" y="-10"/>
    </contour>
    <contour>
      <point x="513" y="50" type="curve" smooth="yes"/>
      <point x="479" y="50"/>
      <point x="464" y="102"/>
      <point x="464" y="214" type="curve" smooth="yes"/>
      <point x="464" y="325"/>
      <point x="478" y="378"/>
      <point x="514" y="378" type="curve" smooth="yes"/>
      <point x="548" y="378"/>
      <point x="563" y="326"/>
      <point x="563" y="214" type="curve" smooth="yes"/>
      <point x="563" y="103"/>
      <point x="549" y="50"/>
    </contour>
  </outline>
</glyph>
<glyph name="quotesingle.mlym" format="2">
  <advance width="218"/>
  <unicode hex="0027"/>
  <outline>
    <contour>
      <point x="79" y="542" type="line"/>
      <point x="140" y="542" type="line"/>
      <point x="156" y="800" type="line"/>
      <point x="62" y="800" type="line"/>
    </contour>
  </outline>
</glyph>
<glyph name="parenleft.mlym" format="2">
  <advance width="306"/>
  <unicode hex="0028"/>
  <outline>
    <contour>
      <point x="47" y="274" type="curve" smooth="yes"/>
      <point x="47" y="95"/>
      <point x="94" y="-104"/>
      <point x="196" y="-244" type="curve"/>
      <point x="276" y="-244" type="line"/>
      <point x="178" y="-95"/>
      <point x="127" y="78"/>
      <point x="127" y="275" type="curve" smooth="yes"/>
      <point x="127" y="471"/>
      <point x="178" y="651"/>
      <point x="277" y="800" type="curve"/>
      <point x="196" y="800" type="line"/>
      <point x="102" y="665"/>
      <point x="47" y="469"/>
    </contour>
  </outline>
</glyph>
<glyph name="plus.mlym" format="2">
  <advance width="429"/>
  <unicode hex="002B"/>
  <outline>
    <contour>
      <point x="180" y="119" type="line"/>
      <point x="249" y="119" type="line"/>
      <point x="249" y="319" type="line"/>
      <point x="398" y="319" type="line"/>
      <point x="398" y="387" type="line"/>
      <point x="249" y="387" type="line"/>
      <point x="249" y="588" type="line"/>
      <point x="180" y="588" type="line"/>
      <point x="180" y="387" type="line"/>
      <point x="30" y="387" type="line"/>
      <point x="30" y="319" type="line"/>
      <point x="180" y="319" type="line"/>
    </contour>
  </outline>
</glyph>
<glyph name="comma.mlym" format="2">
  <advance width="252"/>
  <unicode hex="002C"/>
  <outline>
    <contour>
      <point x="176" y="114" type="line"/>
      <point x="90" y="114" type="line"/>
      <point x="83" y="42"/>
      <point x="66" y="-51"/>
      <point x="45" y="-132" type="curve"/>
      <point x="107" y="-132" type="line"/>
      <point x="139" y="-60"/>
      <point x="163" y="19"/>
      <point x="183" y="103" type="curve"/>
    </contour>
  </outline>
</glyph>
<glyph name="slash.mlym" format="2">
  <advance width="382"/>
  <unicode hex="002F"/>
  <outline>
    <contour>
      <point x="20" y="-244" type="line"/>
      <point x="99" y="-244" type="line"/>
      <point x="362" y="800" type="line"/>
      <point x="283" y="800" type="line"/>
    </contour>
  </outline>
</glyph>
<glyph name="zero.mlym" format="2">
  <advance width="429"/>
  <unicode hex="0030"/>
  <outline>
    <contour>
      <point x="214" y="-12" type="curve" smooth="yes"/>
      <point x="337" y="-12"/>
      <point x="387" y="124"/>
      <point x="387" y="357" type="curve" smooth="yes"/>
      <point x="387" y="604"/>
      <point x="331" y="725"/>
      <point x="214" y="725" type="curve" smooth="yes"/>
      <point x="98" y="725"/>
      <point x="41" y="605"/>
      <point x="41" y="357" type="curve" smooth="yes"/>
      <point x="41" y="69"/>
      <point x="106" y="-12"/>
    </contour>
    <contour>
      <point x="214" y="64" type="curve" smooth="yes"/>
      <point x="151" y="64"/>
      <point x="126" y="159"/>
      <point x="126" y="357" type="curve" smooth="yes"/>
      <point x="126" y="554"/>
      <point x="151" y="649"/>
      <point x="214" y="649" type="curve" smooth="yes"/>
      <point x="276" y="649"/>
      <point x="303" y="552"/>
      <point x="303" y="357" type="curve" smooth="yes"/>
      <point x="303" y="160"/>
      <point x="276" y="64"/>
    </contour>
  </outline>
</glyph>
<glyph name="nine.mlym" format="2">
  <advance width="429"/>
  <unicode hex="0039"/>
  <outline>
    <contour>
      <point x="148" y="-12" type="curve" smooth="yes"/>
      <point x="312" y="-12"/>
      <point x="383" y="148"/>
      <point x="383" y="417" type="curve" smooth="yes"/>
      <point x="383" y="615"/>
      <point x="322" y="725"/>
      <point x="211" y="725" type="curve" smooth="yes"/>
      <point x="94" y="725"/>
      <point x="39" y="622"/>
      <point x="39" y="488" type="curve" smooth="yes"/>
      <point x="39" y="362"/>
      <point x="86" y="262"/>
      <point x="187" y="262" type="curve" smooth="yes"/>
      <point x="238" y="262"/>
      <point x="277" y="292"/>
      <point x="299" y="342" type="curve"/>
      <point x="303" y="342" type="line"/>
      <point x="298" y="196"/>
      <point x="259" y="62"/>
      <point x="146" y="62" type="curve" smooth="yes"/>
      <point x="116" y="62"/>
      <point x="92" y="66"/>
      <point x="71" y="74" type="curve"/>
      <point x="71" y="-2" type="line"/>
      <point x="90" y="-7"/>
      <point x="124" y="-12"/>
    </contour>
    <contour>
      <point x="208" y="336" type="curve" smooth="yes"/>
      <point x="152" y="336"/>
      <point x="123" y="389"/>
      <point x="123" y="490" type="curve" smooth="yes"/>
      <point x="123" y="598"/>
      <point x="153" y="650"/>
      <point x="210" y="650" type="curve" smooth="yes"/>
      <point x="283" y="650"/>
      <point x="299" y="535"/>
      <point x="299" y="467" type="curve" smooth="yes"/>
      <point x="299" y="401"/>
      <point x="270" y="336"/>
    </contour>
  </outline>
</glyph>
<glyph name="colon.mlym" format="2">
  <advance width="252"/>
  <unicode hex="003A"/>
  <outline>
    <contour>
      <point x="126" y="-12" type="curve" smooth="yes"/>
      <point x="157" y="-12"/>
      <point x="180" y="8"/>
      <point x="180" y="52" type="curve" smooth="yes"/>
      <point x="180" y="97"/>
      <point x="159" y="116"/>
      <point x="126" y="116" type="curve" smooth="yes"/>
      <point x="90" y="116"/>
      <point x="72" y="94"/>
      <point x="72" y="52" type="curve" smooth="yes"/>
      <point x="72" y="10"/>
      <point x="91" y="-12"/>
    </contour>
    <contour>
      <point x="126" y="405" type="curve" smooth="yes"/>
      <point x="157" y="405"/>
      <point x="180" y="426"/>
      <point x="180" y="470" type="curve" smooth="yes"/>
      <point x="180" y="512"/>
      <point x="161" y="534"/>
      <point x="126" y="534" type="curve" smooth="yes"/>
      <point x="90" y="534"/>
      <point x="72" y="512"/>
      <point x="72" y="470" type="curve" smooth="yes"/>
      <point x="72" y="427"/>
      <point x="91" y="405"/>
    </contour>
  </outline>
</glyph>
<glyph name="less.mlym" format="2">
  <advance width="429"/>
  <unicode hex="003C"/>
  <outline>
    <contour>
      <point x="400" y="132" type="line"/>
      <point x="400" y="210" type="line"/>
      <point x="121" y="355" type="line"/>
      <point x="400" y="500" type="line"/>
      <point x="400" y="578" type="line"/>
      <point x="29" y="380" type="line"/>
      <point x="29" y="332" type="line"/>
    </contour>
  </outline>
</glyph>
<glyph name="greater.mlym" format="2">
  <advance width="429"/>
  <unicode hex="003E"/>
  <outline>
    <contour>
      <point x="29" y="132" type="line"/>
      <point x="400" y="332" type="line"/>
      <point x="400" y="380" type="line"/>
      <point x="29" y="578" type="line"/>
      <point x="29" y="500" type="line"/>
      <point x="308" y="355" type="line"/>
      <point x="29" y="210" type="line"/>
    </contour>
  </outline>
</glyph>
<glyph name="bracketleft.mlym" format="2">
  <advance width="326"/>
  <unicode hex="005B"/>
  <outline>
    <contour>
      <point x="78" y="-244" type="line"/>
      <point x="287" y="-244" type="line"/>
      <point x="287" y="-176" type="line"/>
      <point x="157" y="-176" type="line"/>
      <point x="157" y="732" type="line"/>
      <point x="287" y="732" type="line"/>
      <point x="287" y="800" type="line"/>
      <point x="78" y="800" type="line"/>
    </contour>
  </outline>
</glyph>
<glyph name="backslash.mlym" format="2">
  <advance width="382"/>
  <unicode hex="005C"/>
  <outline>
    <contour>
      <point x="283" y="-244" type="line"/>
      <point x="362" y="-244" type="line"/>
      <point x="99" y="800" type="line"/>
      <point x="20" y="800" type="line"/>
    </contour>
  </outline>
</glyph>
<glyph name="bar.mlym" format="2">
  <advance width="551"/>
  <unicode hex="007C"/>
  <outline>
    <contour>
      <point x="238" y="-244" type="line"/>
      <point x="313" y="-244" type="line"/>
      <point x="313" y="800" type="line"/>
      <point x="238" y="800" type="line"/>
    </contour>
  </outline>
</glyph>
<glyph name="braceright.mlym" format="2">
  <advance width="362"/>
  <unicode hex="007D"/>
  <outline>
    <contour>
      <point x="39" y="800" type="curve"/>
      <point x="39" y="735" type="line"/>
      <point x="104" y="733"/>
      <point x="131" y="707"/>
      <point x="131" y="642" type="curve" smooth="yes"/>
      <point x="131" y="403" type="line" smooth="yes"/>
      <point x="131" y="335"/>
      <point x="162" y="294"/>
      <point x="233" y="281" type="curve"/>
      <point x="233" y="275" type="line"/>
      <point x="163" y="262"/>
      <point x="131" y="221"/>
      <point x="131" y="153" type="curve" smooth="yes"/>
      <point x="131" y="-85" type="line" smooth="yes"/>
      <point x="131" y="-150"/>
      <point x="104" y="-177"/>
      <point x="39" y="-179" type="curve"/>
      <point x="39" y="-244" type="line"/>
      <point x="137" y="-244"/>
      <point x="210" y="-193"/>
      <point x="210" y="-87" type="curve" smooth="yes"/>
      <point x="210" y="153" type="line" smooth="yes"/>
      <point x="210" y="220"/>
      <point x="251" y="245"/>
      <point x="332" y="246" type="curve"/>
      <point x="332" y="311" type="line"/>
      <point x="251" y="311"/>
      <point x="210" y="337"/>
      <point x="210" y="405" type="curve" smooth="yes"/>
      <point x="210" y="641" type="line" smooth="yes"/>
      <point x="210" y="748"/>
      <point x="144" y="799"/>
    </contour>
  </outline>
</glyph>
<glyph name="multiply.mlym" format="2">
  <advance width="429"/>
  <unicode hex="00D7"/>
  <outline>
    <contour>
      <point x="350" y="537" type="line"/>
      <point x="213" y="400" type="line"/>
      <point x="77" y="535" type="line"/>
      <point x="31" y="488" type="line"/>
      <point x="166" y="353" type="line"/>
      <point x="31" y="217" type="line"/>
      <point x="77" y="170" type="line"/>
      <point x="213" y="306" type="line"/>
      <point x="349" y="171" type="line"/>
      <point x="395" y="217" type="line"/>
      <point x="261" y="353" type="line"/>
      <point x="398" y="491" type="line"/>
    </contour>
  </outline>
</glyph>
<glyph name="divide.mlym" format="2">
  <advance width="429"/>
  <unicode hex="00F7"/>
  <outline>
    <contour>
      <point x="30" y="319" type="line"/>
      <point x="398" y="319" type="line"/>
      <point x="398" y="387" type="line"/>
      <point x="30" y="387" type="line"/>
    </contour>
    <contour>
      <point x="216" y="112" type="curve" smooth="yes"/>
      <point x="245" y="112"/>
      <point x="265" y="132"/>
      <point x="265" y="174" type="curve" smooth="yes"/>
      <point x="265" y="215"/>
      <point x="248" y="236"/>
      <point x="216" y="236" type="curve" smooth="yes"/>
      <point x="182" y="236"/>
      <point x="165" y="215"/>
      <point x="165" y="174" type="curve" smooth="yes"/>
      <point x="165" y="133"/>
      <point x="183" y="112"/>
    </contour>
    <contour>
      <point x="216" y="469" type="curve" smooth="yes"/>
      <point x="245" y="469"/>
      <point x="265" y="489"/>
      <point x="265" y="531" type="curve" smooth="yes"/>
      <point x="265" y="572"/>
      <point x="248" y="593"/>
      <point x="216" y="593" type="curve" smooth="yes"/>
      <point x="182" y="593"/>
      <point x="165" y="572"/>
      <point x="165" y="531" type="curve" smooth="yes"/>
      <point x="165" y="490"/>
      <point x="183" y="469"/>
    </contour>
  </outline>
</glyph>
<glyph name="uni0307" format="2">
  <unicode hex="0307"/>
  <outline>
    <contour>
      <point x="-328" y="701" type="curve" smooth="yes"/>
      <point x="-328" y="664"/>
      <point x="-308" y="644"/>
      <point x="-279" y="644" type="curve" smooth="yes"/>
      <point x="-250" y="644"/>
      <point x="-231" y="664"/>
      <point x="-231" y="701" type="curve" smooth="yes"/>
      <point x="-231" y="739"/>
      <point x="-249" y="758"/>
      <point x="-279" y="758" type="curve" smooth="yes"/>
      <point x="-309" y="758"/>
      <point x="-328" y="739"/>
    </contour>
  </outline>
</glyph>
<glyph name="uni0323" format="2">
  <unicode hex="0323"/>
  <outline>
    <contour>
      <point x="-328" y="-135" type="curve" smooth="yes"/>
      <point x="-328" y="-172"/>
      <point x="-308" y="-192"/>
      <point x="-279" y="-192" type="curve" smooth="yes"/>
      <point x="-250" y="-192"/>
      <point x="-231" y="-172"/>
      <point x="-231" y="-135" type="curve" smooth="yes"/>
      <point x="-231" y="-97"/>
      <point x="-249" y="-78"/>
      <point x="-279" y="-78" type="curve" smooth="yes"/>
      <point x="-309" y="-78"/>
      <point x="-328" y="-97"/>
    </contour>
  </outline>
</glyph>
<glyph name="uni0951" format="2">
  <unicode hex="0951"/>
  <outline>
    <contour>
      <point x="-312" y="864" type="line"/>
      <point x="-312" y="653" type="line"/>
      <point x="-245" y="653" type="line"/>
      <point x="-245" y="864" type="line"/>
    </contour>
  </outline>
</glyph>
<glyph name="uni0952" format="2">
  <unicode hex="0952"/>
  <outline>
    <contour>
      <point x="-81" y="-179" type="line"/>
      <point x="-81" y="-113" type="line"/>
      <point x="-477" y="-113" type="line"/>
      <point x="-477" y="-179" type="line"/>
    </contour>
  </outline>
</glyph>
<glyph name="dbldanda.mlym" format="2">
  <advance width="472"/>
  <unicode hex="0965"/>
  <outline>
    <contour>
      <point x="325" y="-49" type="line"/>
      <point x="404" y="-49" type="line"/>
      <point x="404" y="603" type="line"/>
      <point x="325" y="603" type="line"/>
    </contour>
    <contour>
      <point x="135" y="-49" type="line"/>
      <point x="214" y="-49" type="line"/>
      <point x="214" y="603" type="line"/>
      <point x="135" y="603" type="line"/>
    </contour>
  </outline>
</glyph>
<glyph name="candrabindumlym" format="2">
  <unicode hex="0D01"/>
  <outline>
    <contour>
      <point x="-278" y="655" type="curve" smooth="yes"/>
      <point x="-193" y="655"/>
      <point x="-138" y="708"/>
      <point x="-138" y="811" type="curve" smooth="yes"/>
      <point x="-138" y="826"/>
      <point x="-141" y="846"/>
      <point x="-145" y="862" type="curve"/>
      <point x="-208" y="855" type="line"/>
      <point x="-204" y="840"/>
      <point x="-203" y="821"/>
      <point x="-203" y="812" type="curve" smooth="yes"/>
      <point x="-203" y="738"/>
      <point x="-233" y="717"/>
      <point x="-279" y="717" type="curve" smooth="yes"/>
      <point x="-323" y="717"/>
      <point x="-354" y="741"/>
      <point x="-354" y="810" type="curve" smooth="yes"/>
      <point x="-354" y="823"/>
      <point x="-352" y="840"/>
      <point x="-349" y="854" type="curve"/>
      <point x="-412" y="863" type="line"/>
      <point x="-416" y="847"/>
      <point x="-419" y="828"/>
      <point x="-419" y="811" type="curve" smooth="yes"/>
      <point x="-419" y="705"/>
      <point x="-363" y="655"/>
    </contour>
    <contour>
      <point x="-279" y="760" type="curve" smooth="yes"/>
      <point x="-254" y="760"/>
      <point x="-237" y="778"/>
      <point x="-237" y="810" type="curve" smooth="yes"/>
      <point x="-237" y="839"/>
      <point x="-254" y="858"/>
      <point x="-279" y="858" type="curve" smooth="yes"/>
      <point x="-305" y="858"/>
      <point x="-320" y="838"/>
      <point x="-320" y="809" type="curve" smooth="yes"/>
      <point x="-320" y="778"/>
      <point x="-305" y="760"/>
    </contour>
  </outline>
</glyph>
<glyph name="anusvaramlym" format="2">
  <advance width="362"/>
  <unicode hex="0D02"/>
  <outline>
    <contour>
      <point x="181" y="-12" type="curve" smooth="yes"/>
      <point x="269" y="-12"/>
      <point x="330" y="54"/>
      <point x="330" y="176" type="curve" smooth="yes"/>
      <point x="330" y="299"/>
      <point x="269" y="363"/>
      <point x="181" y="363" type="curve" smooth="yes"/>
      <point x="93" y="363"/>
      <point x="32" y="297"/>
      <point x="32" y="176" type="curve" smooth="yes"/>
      <point x="32" y="57"/>
      <point x="88" y="-12"/>
    </contour>
    <contour>
      <point x="181" y="299" type="curve" smooth="yes"/>
      <point x="225" y="299"/>
      <point x="254" y="265"/>
      <point x="254" y="176" type="curve" smooth="yes"/>
      <point x="254" y="86"/>
      <point x="224" y="52"/>
      <point x="181" y="52" type="curve" smooth="yes"/>
      <point x="138" y="52"/>
      <point x="108" y="86"/>
      <point x="108" y="175" type="curve" smooth="yes"/>
      <point x="108" y="265"/>
      <point x="137" y="299"/>
    </contour>
  </outline>
</glyph>
<glyph name="visargamlym" format="2">
  <advance width="278"/>
  <unicode hex="0D03"/>
  <outline>
    <contour>
      <point x="30" y="436" type="curve" smooth="yes"/>
      <point x="30" y="353"/>
      <point x="74" y="306"/>
      <point x="138" y="306" type="curve" smooth="yes"/>
      <point x="203" y="306"/>
      <point x="248" y="353"/>
      <point x="248" y="436" type="curve" smooth="yes"/>
      <point x="248" y="520"/>
      <point x="202" y="566"/>
      <point x="138" y="566" type="curve" smooth="yes"/>
      <point x="75" y="566"/>
      <point x="30" y="519"/>
    </contour>
    <contour>
      <point x="94" y="437" type="curve" smooth="yes"/>
      <point x="94" y="480"/>
      <point x="110" y="505"/>
      <point x="138" y="505" type="curve" smooth="yes"/>
      <point x="167" y="505"/>
      <point x="184" y="480"/>
      <point x="184" y="437" type="curve" smooth="yes"/>
      <point x="184" y="394"/>
      <point x="168" y="367"/>
      <point x="138" y="367" type="curve" smooth="yes"/>
      <point x="109" y="367"/>
      <point x="94" y="394"/>
    </contour>
    <contour>
      <point x="30" y="118" type="curve" smooth="yes"/>
      <point x="30" y="35"/>
      <point x="74" y="-12"/>
      <point x="138" y="-12" type="curve" smooth="yes"/>
      <point x="203" y="-12"/>
      <point x="248" y="34"/>
      <point x="248" y="118" type="curve" smooth="yes"/>
      <point x="248" y="202"/>
      <point x="202" y="248"/>
      <point x="138" y="248" type="curve" smooth="yes"/>
      <point x="75" y="248"/>
      <point x="30" y="201"/>
    </contour>
    <contour>
      <point x="94" y="118" type="curve" smooth="yes"/>
      <point x="94" y="161"/>
      <point x="110" y="187"/>
      <point x="138" y="187" type="curve" smooth="yes"/>
      <point x="167" y="187"/>
      <point x="184" y="161"/>
      <point x="184" y="118" type="curve" smooth="yes"/>
      <point x="184" y="74"/>
      <point x="168" y="48"/>
      <point x="138" y="48" type="curve" smooth="yes"/>
      <point x="109" y="48"/>
      <point x="94" y="74"/>
    </contour>
  </outline>
</glyph>
<glyph name="amlym" format="2">
  <advance width="1132"/>
  <unicode hex="0D05"/>
  <outline>
    <contour>
      <point x="298" y="566" type="curve" smooth="yes"/>
      <point x="114" y="566"/>
      <point x="36" y="437"/>
      <point x="36" y="288" type="curve" smooth="yes"/>
      <point x="36" y="143"/>
      <point x="88" y="50"/>
      <point x="150" y="-8" type="curve"/>
      <point x="206" y="47" type="line"/>
      <point x="154" y="97"/>
      <point x="118" y="166"/>
      <point x="118" y="281" type="curve" smooth="yes"/>
      <point x="118" y="408"/>
      <point x="176" y="502"/>
      <point x="304" y="502" type="curve" smooth="yes"/>
      <point x="322" y="502"/>
      <point x="342" y="500"/>
      <point x="376" y="487" type="curve"/>
      <point x="434" y="469"/>
      <point x="465" y="434"/>
      <point x="465" y="370" type="curve" smooth="yes"/>
      <point x="465" y="319"/>
      <point x="430" y="286"/>
      <point x="383" y="286" type="curve" smooth="yes"/>
      <point x="380" y="286" type="line"/>
      <point x="380" y="220" type="line"/>
      <point x="384" y="220" type="line" smooth="yes"/>
      <point x="438" y="220"/>
      <point x="473" y="187"/>
      <point x="473" y="131" type="curve" smooth="yes"/>
      <point x="473" y="76"/>
      <point x="448" y="51"/>
      <point x="404" y="51" type="curve" smooth="yes"/>
      <point x="344" y="51"/>
      <point x="309" y="106"/>
      <point x="309" y="231" type="curve" smooth="yes"/>
      <point x="309" y="357"/>
      <point x="348" y="448"/>
      <point x="424" y="484" type="curve" smooth="yes"/>
      <point x="446" y="495"/>
      <point x="472" y="503"/>
      <point x="500" y="503" type="curve" smooth="yes"/>
      <point x="546" y="503"/>
      <point x="577" y="491"/>
      <point x="597" y="469" type="curve" smooth="yes"/>
      <point x="628" y="435"/>
      <point x="634" y="394"/>
      <point x="634" y="304" type="curve" smooth="yes"/>
      <point x="634" y="0" type="line"/>
      <point x="713" y="0" type="line"/>
      <point x="713" y="255" type="line"/>
      <point x="696" y="449" type="line"/>
      <point x="657" y="519"/>
      <point x="609" y="566"/>
      <point x="505" y="566" type="curve" smooth="yes"/>
      <point x="450" y="566"/>
      <point x="403" y="551"/>
      <point x="365" y="526" type="curve" smooth="yes"/>
      <point x="358" y="521"/>
      <point x="352" y="512"/>
      <point x="345" y="507" type="curve" smooth="yes"/>
      <point x="271" y="450"/>
      <point x="233" y="346"/>
      <point x="233" y="235" type="curve" smooth="yes"/>
      <point x="233" y="79"/>
      <point x="287" y="-12"/>
      <point x="405" y="-12" type="curve" smooth="yes"/>
      <point x="509" y="-12"/>
      <point x="550" y="52"/>
      <point x="550" y="133" type="curve" smooth="yes"/>
      <point x="550" y="199"/>
      <point x="513" y="243"/>
      <point x="455" y="258" type="curve"/>
      <point x="459" y="249" type="line"/>
      <point x="518" y="272"/>
      <point x="542" y="314"/>
      <point x="542" y="370" type="curve" smooth="yes"/>
      <point x="542" y="443"/>
      <point x="505" y="491"/>
      <point x="444" y="520" type="curve" smooth="yes"/>
      <point x="436" y="524"/>
      <point x="433" y="534"/>
      <point x="425" y="537" type="curve" smooth="yes"/>
      <point x="379" y="559"/>
      <point x="336" y="566"/>
    </contour>
    <contour>
      <point x="936" y="-12" type="curve" smooth="yes"/>
      <point x="1030" y="-12"/>
      <point x="1096" y="51"/>
      <point x="1096" y="242" type="curve" smooth="yes"/>
      <point x="1096" y="436"/>
      <point x="1009" y="566"/>
      <point x="842" y="566" type="curve" smooth="yes"/>
      <point x="744" y="566"/>
      <point x="695" y="517"/>
      <point x="660" y="459" type="curve"/>
      <point x="713" y="207" type="line"/>
      <point x="713" y="311" type="line" smooth="yes"/>
      <point x="713" y="391"/>
      <point x="722" y="436"/>
      <point x="754" y="467" type="curve" smooth="yes"/>
      <point x="776" y="488"/>
      <point x="805" y="498"/>
      <point x="847" y="498" type="curve" smooth="yes"/>
      <point x="945" y="498"/>
      <point x="1001" y="420"/>
      <point x="1013" y="335" type="curve"/>
      <point x="1016" y="330"/>
      <point x="1013" y="317"/>
      <point x="1015" y="310" type="curve"/>
      <point x="1018" y="283"/>
      <point x="1020" y="251"/>
      <point x="1020" y="248" type="curve" smooth="yes"/>
      <point x="1020" y="107"/>
      <point x="989" y="53"/>
      <point x="937" y="53" type="curve" smooth="yes"/>
      <point x="888" y="53"/>
      <point x="866" y="106"/>
      <point x="866" y="198" type="curve" smooth="yes"/>
      <point x="866" y="284"/>
      <point x="890" y="337"/>
      <point x="945" y="337" type="curve" smooth="yes"/>
      <point x="997" y="337"/>
      <point x="1029" y="282"/>
      <point x="1041" y="249" type="curve"/>
      <point x="1068" y="266" type="line"/>
      <point x="1029" y="358"/>
      <point x="997" y="402"/>
      <point x="927" y="402" type="curve" smooth="yes"/>
      <point x="840" y="402"/>
      <point x="788" y="331"/>
      <point x="788" y="199" type="curve" smooth="yes"/>
      <point x="788" y="78"/>
      <point x="834" y="-12"/>
    </contour>
  </outline>
</glyph>
<glyph name="aamlym" format="2">
  <advance width="1239"/>
  <unicode hex="0D06"/>
  <outline>
    <contour>
      <point x="298" y="566" type="curve" smooth="yes"/>
      <point x="114" y="566"/>
      <point x="36" y="437"/>
      <point x="36" y="288" type="curve" smooth="yes"/>
      <point x="36" y="143"/>
      <point x="88" y="50"/>
      <point x="150" y="-8" type="curve"/>
      <point x="206" y="47" type="line"/>
      <point x="154" y="97"/>
      <point x="118" y="166"/>
      <point x="118" y="281" type="curve" smooth="yes"/>
      <point x="118" y="408"/>
      <point x="176" y="502"/>
      <point x="304" y="502" type="curve" smooth="yes"/>
      <point x="322" y="502"/>
      <point x="342" y="500"/>
      <point x="376" y="487" type="curve"/>
      <point x="434" y="469"/>
      <point x="465" y="434"/>
      <point x="465" y="370" type="curve" smooth="yes"/>
      <point x="465" y="319"/>
      <point x="430" y="286"/>
      <point x="383" y="286" type="curve" smooth="yes"/>
      <point x="380" y="286" type="line"/>
      <point x="380" y="220" type="line"/>
      <point x="384" y="220" type="line" smooth="yes"/>
      <point x="438" y="220"/>
      <point x="473" y="187"/>
      <point x="473" y="131" type="curve" smooth="yes"/>
      <point x="473" y="76"/>
      <point x="448" y="51"/>
      <point x="404" y="51" type="curve" smooth="yes"/>
      <point x="344" y="51"/>
      <point x="309" y="106"/>
      <point x="309" y="231" type="curve" smooth="yes"/>
      <point x="309" y="357"/>
      <point x="348" y="448"/>
      <point x="424" y="484" type="curve" smooth="yes"/>
      <point x="446" y="495"/>
      <point x="472" y="503"/>
      <point x="500" y="503" type="curve" smooth="yes"/>
      <point x="546" y="503"/>
      <point x="577" y="491"/>
      <point x="597" y="469" type="curve" smooth="yes"/>
      <point x="628" y="435"/>
      <point x="634" y="394"/>
      <point x="634" y="304" type="curve" smooth="yes"/>
      <point x="634" y="0" type="line"/>
      <point x="713" y="0" type="line"/>
      <point x="713" y="255" type="line"/>
      <point x="696" y="449" type="line"/>
      <point x="657" y="519"/>
      <point x="609" y="566"/>
      <point x="505" y="566" type="curve" smooth="yes"/>
      <point x="450" y="566"/>
      <point x="403" y="551"/>
      <point x="365" y="526" type="curve" smooth="yes"/>
      <point x="358" y="521"/>
      <point x="352" y="512"/>
      <point x="345" y="507" type="curve" smooth="yes"/>
      <point x="271" y="450"/>
      <point x="233" y="346"/>
      <point x="233" y="235" type="curve" smooth="yes"/>
      <point x="233" y="79"/>
      <point x="287" y="-12"/>
      <point x="405" y="-12" type="curve" smooth="yes"/>
      <point x="509" y="-12"/>
      <point x="550" y="52"/>
      <point x="550" y="133" type="curve" smooth="yes"/>
      <point x="550" y="199"/>
      <point x="513" y="243"/>
      <point x="455" y="258" type="curve"/>
      <point x="459" y="249" type="line"/>
      <point x="518" y="272"/>
      <point x="542" y="314"/>
      <point x="542" y="370" type="curve" smooth="yes"/>
      <point x="542" y="443"/>
      <point x="505" y="491"/>
      <point x="444" y="520" type="curve" smooth="yes"/>
      <point x="436" y="524"/>
      <point x="433" y="534"/>
      <point x="425" y="537" type="curve" smooth="yes"/>
      <point x="379" y="559"/>
      <point x="336" y="566"/>
    </contour>
    <contour>
      <point x="836" y="566" type="curve" smooth="yes"/>
      <point x="743" y="566"/>
      <point x="694" y="517"/>
      <point x="660" y="459" type="curve"/>
      <point x="713" y="207" type="line"/>
      <point x="713" y="311" type="line" smooth="yes"/>
      <point x="713" y="391"/>
      <point x="721" y="436"/>
      <point x="753" y="467" type="curve" smooth="yes"/>
      <point x="775" y="488"/>
      <point x="805" y="498"/>
      <point x="840" y="498" type="curve" smooth="yes"/>
      <point x="929" y="498"/>
      <point x="972" y="439"/>
      <point x="991" y="367" type="curve"/>
      <point x="994" y="344" type="line"/>
      <point x="1001" y="307"/>
      <point x="1003" y="268"/>
      <point x="1003" y="235" type="curve" smooth="yes"/>
      <point x="1003" y="97"/>
      <point x="976" y="54"/>
      <point x="923" y="54" type="curve" smooth="yes"/>
      <point x="875" y="54"/>
      <point x="857" y="102"/>
      <point x="857" y="171" type="curve" smooth="yes"/>
      <point x="857" y="272"/>
      <point x="909" y="315"/>
      <point x="988" y="315" type="curve" smooth="yes"/>
      <point x="999" y="315"/>
      <point x="1019" y="312"/>
      <point x="1036" y="304" type="curve"/>
      <point x="1059" y="299" type="line"/>
      <point x="1112" y="265"/>
      <point x="1140" y="196"/>
      <point x="1140" y="95" type="curve" smooth="yes"/>
      <point x="1140" y="-29"/>
      <point x="1103" y="-132"/>
      <point x="969" y="-132" type="curve" smooth="yes"/>
      <point x="941" y="-132"/>
      <point x="913" y="-129"/>
      <point x="884" y="-120" type="curve"/>
      <point x="862" y="-184" type="line"/>
      <point x="895" y="-195"/>
      <point x="927" y="-201"/>
      <point x="967" y="-201" type="curve" smooth="yes"/>
      <point x="1141" y="-201"/>
      <point x="1217" y="-86"/>
      <point x="1217" y="88" type="curve" smooth="yes"/>
      <point x="1217" y="243"/>
      <point x="1150" y="352"/>
      <point x="1038" y="377" type="curve"/>
      <point x="1023" y="377" type="line"/>
      <point x="1011" y="379"/>
      <point x="995" y="380"/>
      <point x="983" y="380" type="curve" smooth="yes"/>
      <point x="863" y="380"/>
      <point x="778" y="308"/>
      <point x="778" y="168" type="curve" smooth="yes"/>
      <point x="778" y="66"/>
      <point x="823" y="-12"/>
      <point x="923" y="-12" type="curve" smooth="yes"/>
      <point x="1022" y="-12"/>
      <point x="1079" y="48"/>
      <point x="1079" y="228" type="curve" smooth="yes"/>
      <point x="1079" y="263"/>
      <point x="1077" y="298"/>
      <point x="1072" y="330" type="curve"/>
      <point x="1055" y="463"/>
      <point x="988" y="566"/>
    </contour>
  </outline>
</glyph>
<glyph name="imlym" format="2">
  <advance width="740"/>
  <unicode hex="0D07"/>
  <outline>
    <contour>
      <point x="245" y="566" type="curve" smooth="yes"/>
      <point x="122" y="566"/>
      <point x="34" y="469"/>
      <point x="34" y="318" type="curve" smooth="yes"/>
      <point x="34" y="176"/>
      <point x="87" y="116"/>
      <point x="164" y="116" type="curve" smooth="yes"/>
      <point x="251" y="116"/>
      <point x="291" y="177"/>
      <point x="291" y="267" type="curve" smooth="yes"/>
      <point x="291" y="351"/>
      <point x="256" y="416"/>
      <point x="175" y="416" type="curve" smooth="yes"/>
      <point x="123" y="416"/>
      <point x="80" y="381"/>
      <point x="52" y="341" type="curve"/>
      <point x="77" y="298" type="line"/>
      <point x="98" y="325"/>
      <point x="120" y="352"/>
      <point x="159" y="352" type="curve" smooth="yes"/>
      <point x="199" y="352"/>
      <point x="213" y="319"/>
      <point x="213" y="266" type="curve" smooth="yes"/>
      <point x="213" y="218"/>
      <point x="199" y="180"/>
      <point x="165" y="180" type="curve" smooth="yes"/>
      <point x="121" y="180"/>
      <point x="103" y="222"/>
      <point x="103" y="308" type="curve" smooth="yes"/>
      <point x="103" y="325"/>
      <point x="105" y="339"/>
      <point x="107" y="352" type="curve" smooth="yes"/>
      <point x="108" y="359"/>
      <point x="102" y="365"/>
      <point x="104" y="372" type="curve"/>
      <point x="125" y="446"/>
      <point x="169" y="500"/>
      <point x="247" y="500" type="curve" smooth="yes"/>
      <point x="288" y="500"/>
      <point x="313" y="489"/>
      <point x="334" y="466" type="curve" smooth="yes"/>
      <point x="355" y="442"/>
      <point x="365" y="406"/>
      <point x="365" y="336" type="curve" smooth="yes"/>
      <point x="365" y="132" type="line"/>
      <point x="444" y="132" type="line"/>
      <point x="444" y="337" type="line" smooth="yes"/>
      <point x="444" y="411"/>
      <point x="453" y="454"/>
      <point x="476" y="479" type="curve" smooth="yes"/>
      <point x="488" y="492"/>
      <point x="504" y="499"/>
      <point x="524" y="499" type="curve" smooth="yes"/>
      <point x="596" y="499"/>
      <point x="623" y="401"/>
      <point x="623" y="308" type="curve" smooth="yes"/>
      <point x="623" y="223"/>
      <point x="614" y="151"/>
      <point x="561" y="108" type="curve" smooth="yes"/>
      <point x="527" y="81"/>
      <point x="483" y="66"/>
      <point x="363" y="66" type="curve" smooth="yes"/>
      <point x="228" y="66" type="line" smooth="yes"/>
      <point x="157" y="66"/>
      <point x="120" y="56"/>
      <point x="92" y="37" type="curve" smooth="yes"/>
      <point x="57" y="14"/>
      <point x="40" y="-23"/>
      <point x="40" y="-69" type="curve" smooth="yes"/>
      <point x="40" y="-116"/>
      <point x="61" y="-150"/>
      <point x="94" y="-171" type="curve" smooth="yes"/>
      <point x="129" y="-193"/>
      <point x="175" y="-201"/>
      <point x="240" y="-201" type="curve" smooth="yes"/>
      <point x="689" y="-201" type="line"/>
      <point x="689" y="-133" type="line"/>
      <point x="244" y="-133" type="line" smooth="yes"/>
      <point x="193" y="-133"/>
      <point x="163" y="-127"/>
      <point x="144" y="-114" type="curve" smooth="yes"/>
      <point x="129" y="-103"/>
      <point x="120" y="-87"/>
      <point x="120" y="-64" type="curve" smooth="yes"/>
      <point x="120" y="-40"/>
      <point x="131" y="-22"/>
      <point x="152" y="-12" type="curve" smooth="yes"/>
      <point x="170" y="-3"/>
      <point x="189" y="0"/>
      <point x="241" y="0" type="curve" smooth="yes"/>
      <point x="375" y="0" type="line" smooth="yes"/>
      <point x="512" y="0"/>
      <point x="575" y="19"/>
      <point x="626" y="65" type="curve" smooth="yes"/>
      <point x="682" y="116"/>
      <point x="704" y="190"/>
      <point x="704" y="309" type="curve" smooth="yes"/>
      <point x="704" y="461"/>
      <point x="649" y="566"/>
      <point x="526" y="566" type="curve" smooth="yes"/>
      <point x="475" y="566"/>
      <point x="428" y="542"/>
      <point x="394" y="477" type="curve"/>
      <point x="417" y="473" type="line"/>
      <point x="376" y="528"/>
      <point x="341" y="566"/>
    </contour>
  </outline>
</glyph>
<glyph name="umlym" format="2">
  <advance width="529"/>
  <unicode hex="0D09"/>
  <outline>
    <contour>
      <point x="263" y="566" type="curve" smooth="yes"/>
      <point x="122" y="566"/>
      <point x="34" y="472"/>
      <point x="34" y="318" type="curve" smooth="yes"/>
      <point x="34" y="176"/>
      <point x="87" y="116"/>
      <point x="164" y="116" type="curve" smooth="yes"/>
      <point x="251" y="116"/>
      <point x="291" y="177"/>
      <point x="291" y="267" type="curve" smooth="yes"/>
      <point x="291" y="351"/>
      <point x="256" y="416"/>
      <point x="175" y="416" type="curve" smooth="yes"/>
      <point x="123" y="416"/>
      <point x="80" y="381"/>
      <point x="52" y="341" type="curve"/>
      <point x="77" y="298" type="line"/>
      <point x="98" y="325"/>
      <point x="121" y="352"/>
      <point x="159" y="352" type="curve" smooth="yes"/>
      <point x="199" y="352"/>
      <point x="213" y="319"/>
      <point x="213" y="266" type="curve" smooth="yes"/>
      <point x="213" y="218"/>
      <point x="199" y="180"/>
      <point x="165" y="180" type="curve" smooth="yes"/>
      <point x="121" y="180"/>
      <point x="103" y="222"/>
      <point x="103" y="308" type="curve" smooth="yes"/>
      <point x="103" y="325"/>
      <point x="105" y="339"/>
      <point x="107" y="352" type="curve"/>
      <point x="108" y="359"/>
      <point x="102" y="365"/>
      <point x="104" y="372" type="curve"/>
      <point x="126" y="445"/>
      <point x="170" y="500"/>
      <point x="258" y="500" type="curve" smooth="yes"/>
      <point x="374" y="500"/>
      <point x="412" y="388"/>
      <point x="412" y="290" type="curve" smooth="yes"/>
      <point x="412" y="213"/>
      <point x="404" y="145"/>
      <point x="360" y="104" type="curve" smooth="yes"/>
      <point x="333" y="80"/>
      <point x="300" y="66"/>
      <point x="216" y="66" type="curve" smooth="yes"/>
      <point x="213" y="66" type="line" smooth="yes"/>
      <point x="161" y="66"/>
      <point x="120" y="57"/>
      <point x="92" y="38" type="curve" smooth="yes"/>
      <point x="57" y="15"/>
      <point x="40" y="-23"/>
      <point x="40" y="-69" type="curve" smooth="yes"/>
      <point x="40" y="-116"/>
      <point x="61" y="-150"/>
      <point x="94" y="-171" type="curve" smooth="yes"/>
      <point x="129" y="-193"/>
      <point x="175" y="-201"/>
      <point x="240" y="-201" type="curve" smooth="yes"/>
      <point x="479" y="-201" type="line"/>
      <point x="479" y="-133" type="line"/>
      <point x="244" y="-133" type="line" smooth="yes"/>
      <point x="193" y="-133"/>
      <point x="163" y="-127"/>
      <point x="144" y="-114" type="curve" smooth="yes"/>
      <point x="129" y="-104"/>
      <point x="120" y="-87"/>
      <point x="120" y="-64" type="curve" smooth="yes"/>
      <point x="120" y="-40"/>
      <point x="131" y="-21"/>
      <point x="152" y="-11" type="curve" smooth="yes"/>
      <point x="170" y="-2"/>
      <point x="191" y="0"/>
      <point x="221" y="0" type="curve" smooth="yes"/>
      <point x="235" y="0" type="line" smooth="yes"/>
      <point x="311" y="0"/>
      <point x="369" y="11"/>
      <point x="417" y="53" type="curve" smooth="yes"/>
      <point x="470" y="100"/>
      <point x="493" y="181"/>
      <point x="493" y="290" type="curve" smooth="yes"/>
      <point x="493" y="428"/>
      <point x="434" y="566"/>
    </contour>
  </outline>
</glyph>
<glyph name="lvocalicmlym" format="2">
  <advance width="891"/>
  <unicode hex="0D0C"/>
  <outline>
    <contour>
      <point x="277" y="566" type="curve" smooth="yes"/>
      <point x="141" y="566"/>
      <point x="38" y="462"/>
      <point x="38" y="241" type="curve" smooth="yes"/>
      <point x="38" y="54"/>
      <point x="106" y="-12"/>
      <point x="188" y="-12" type="curve" smooth="yes"/>
      <point x="274" y="-12"/>
      <point x="321" y="42"/>
      <point x="321" y="160" type="curve" smooth="yes"/>
      <point x="321" y="272"/>
      <point x="274" y="326"/>
      <point x="195" y="326" type="curve" smooth="yes"/>
      <point x="143" y="326"/>
      <point x="96" y="291"/>
      <point x="65" y="257" type="curve"/>
      <point x="86" y="204" type="line"/>
      <point x="117" y="242"/>
      <point x="142" y="260"/>
      <point x="177" y="260" type="curve" smooth="yes"/>
      <point x="220" y="260"/>
      <point x="243" y="231"/>
      <point x="243" y="157" type="curve" smooth="yes"/>
      <point x="243" y="84"/>
      <point x="221" y="55"/>
      <point x="187" y="55" type="curve" smooth="yes"/>
      <point x="143" y="55"/>
      <point x="113" y="99"/>
      <point x="113" y="222" type="curve" smooth="yes"/>
      <point x="113" y="251" type="line" smooth="yes"/>
      <point x="113" y="393"/>
      <point x="177" y="498"/>
      <point x="279" y="498" type="curve" smooth="yes"/>
      <point x="318" y="498"/>
      <point x="345" y="485"/>
      <point x="362" y="465" type="curve" smooth="yes"/>
      <point x="386" y="437"/>
      <point x="393" y="398"/>
      <point x="393" y="326" type="curve" smooth="yes"/>
      <point x="393" y="0" type="line"/>
      <point x="472" y="0" type="line"/>
      <point x="472" y="264" type="line"/>
      <point x="460" y="417" type="line"/>
      <point x="444" y="473" type="line"/>
      <point x="402" y="533"/>
      <point x="359" y="566"/>
    </contour>
    <contour>
      <point x="695" y="-12" type="curve" smooth="yes"/>
      <point x="789" y="-12"/>
      <point x="855" y="51"/>
      <point x="855" y="242" type="curve" smooth="yes"/>
      <point x="855" y="436"/>
      <point x="768" y="566"/>
      <point x="601" y="566" type="curve" smooth="yes"/>
      <point x="503" y="566"/>
      <point x="454" y="517"/>
      <point x="419" y="459" type="curve"/>
      <point x="472" y="207" type="line"/>
      <point x="472" y="311" type="line" smooth="yes"/>
      <point x="472" y="391"/>
      <point x="481" y="436"/>
      <point x="513" y="467" type="curve" smooth="yes"/>
      <point x="535" y="488"/>
      <point x="564" y="498"/>
      <point x="606" y="498" type="curve" smooth="yes"/>
      <point x="704" y="498"/>
      <point x="760" y="420"/>
      <point x="772" y="335" type="curve"/>
      <point x="775" y="330"/>
      <point x="772" y="317"/>
      <point x="774" y="310" type="curve"/>
      <point x="777" y="283"/>
      <point x="779" y="251"/>
      <point x="779" y="248" type="curve" smooth="yes"/>
      <point x="779" y="107"/>
      <point x="748" y="53"/>
      <point x="696" y="53" type="curve" smooth="yes"/>
      <point x="647" y="53"/>
      <point x="625" y="106"/>
      <point x="625" y="198" type="curve" smooth="yes"/>
      <point x="625" y="284"/>
      <point x="649" y="337"/>
      <point x="704" y="337" type="curve" smooth="yes"/>
      <point x="756" y="337"/>
      <point x="788" y="282"/>
      <point x="800" y="249" type="curve"/>
      <point x="827" y="266" type="line"/>
      <point x="788" y="358"/>
      <point x="756" y="402"/>
      <point x="686" y="402" type="curve" smooth="yes"/>
      <point x="599" y="402"/>
      <point x="547" y="331"/>
      <point x="547" y="199" type="curve" smooth="yes"/>
      <point x="547" y="78"/>
      <point x="593" y="-12"/>
    </contour>
  </outline>
</glyph>
<glyph name="emlym" format="2">
  <advance width="961"/>
  <unicode hex="0D0E"/>
  <outline>
    <contour>
      <point x="183" y="346" type="curve" smooth="yes"/>
      <point x="92" y="346"/>
      <point x="31" y="280"/>
      <point x="31" y="174" type="curve" smooth="yes"/>
      <point x="31" y="98"/>
      <point x="63" y="39"/>
      <point x="101" y="-7" type="curve"/>
      <point x="157" y="37" type="line"/>
      <point x="127" y="79"/>
      <point x="108" y="117"/>
      <point x="108" y="174" type="curve" smooth="yes"/>
      <point x="108" y="238"/>
      <point x="137" y="280"/>
      <point x="184" y="280" type="curve" smooth="yes"/>
      <point x="232" y="280"/>
      <point x="258" y="238"/>
      <point x="258" y="168" type="curve" smooth="yes"/>
      <point x="258" y="116"/>
      <point x="241" y="81"/>
      <point x="222" y="52" type="curve"/>
      <point x="253" y="0" type="line"/>
      <point x="649" y="0" type="line"/>
      <point x="651" y="66" type="line"/>
      <point x="284" y="66" type="line"/>
      <point x="298" y="57" type="line"/>
      <point x="313" y="75"/>
      <point x="335" y="119"/>
      <point x="335" y="178" type="curve" smooth="yes"/>
      <point x="335" y="265"/>
      <point x="287" y="346"/>
    </contour>
    <contour>
      <point x="679" y="566" type="curve" smooth="yes"/>
      <point x="515" y="566"/>
      <point x="428" y="415"/>
      <point x="428" y="150" type="curve" smooth="yes"/>
      <point x="428" y="-126"/>
      <point x="493" y="-228"/>
      <point x="600" y="-228" type="curve" smooth="yes"/>
      <point x="645" y="-228"/>
      <point x="671" y="-211"/>
      <point x="687" y="-187" type="curve" smooth="yes"/>
      <point x="706" y="-159"/>
      <point x="709" y="-118"/>
      <point x="709" y="-60" type="curve" smooth="yes"/>
      <point x="709" y="406" type="line"/>
      <point x="630" y="406" type="line"/>
      <point x="630" y="-91" type="line" smooth="yes"/>
      <point x="630" y="-129"/>
      <point x="627" y="-144"/>
      <point x="617" y="-154" type="curve" smooth="yes"/>
      <point x="612" y="-159"/>
      <point x="604" y="-162"/>
      <point x="594" y="-162" type="curve" smooth="yes"/>
      <point x="555" y="-162"/>
      <point x="518" y="-114"/>
      <point x="511" y="30" type="curve" smooth="yes"/>
      <point x="511" y="36"/>
      <point x="512" y="44"/>
      <point x="511" y="51" type="curve" smooth="yes"/>
      <point x="509" y="77"/>
      <point x="508" y="106"/>
      <point x="508" y="148" type="curve" smooth="yes"/>
      <point x="508" y="360"/>
      <point x="563" y="498"/>
      <point x="677" y="498" type="curve" smooth="yes"/>
      <point x="801" y="498"/>
      <point x="842" y="352"/>
      <point x="842" y="184" type="curve" smooth="yes"/>
      <point x="842" y="30"/>
      <point x="805" y="-92"/>
      <point x="745" y="-187" type="curve"/>
      <point x="810" y="-228" type="line"/>
      <point x="885" y="-115"/>
      <point x="923" y="43"/>
      <point x="923" y="185" type="curve" smooth="yes"/>
      <point x="923" y="441"/>
      <point x="836" y="566"/>
    </contour>
  </outline>
</glyph>
<glyph name="eemlym" format="2">
  <advance width="971"/>
  <unicode hex="0D0F"/>
  <outline>
    <contour>
      <point x="183" y="346" type="curve" smooth="yes"/>
      <point x="92" y="346"/>
      <point x="31" y="280"/>
      <point x="31" y="174" type="curve" smooth="yes"/>
      <point x="31" y="98"/>
      <point x="63" y="39"/>
      <point x="101" y="-7" type="curve"/>
      <point x="157" y="37" type="line"/>
      <point x="127" y="79"/>
      <point x="108" y="117"/>
      <point x="108" y="174" type="curve" smooth="yes"/>
      <point x="108" y="238"/>
      <point x="137" y="280"/>
      <point x="184" y="280" type="curve" smooth="yes"/>
      <point x="232" y="280"/>
      <point x="258" y="238"/>
      <point x="258" y="168" type="curve" smooth="yes"/>
      <point x="258" y="116"/>
      <point x="241" y="81"/>
      <point x="222" y="52" type="curve"/>
      <point x="253" y="0" type="line"/>
      <point x="649" y="0" type="line"/>
      <point x="651" y="66" type="line"/>
      <point x="284" y="66" type="line"/>
      <point x="298" y="57" type="line"/>
      <point x="313" y="75"/>
      <point x="335" y="119"/>
      <point x="335" y="178" type="curve" smooth="yes"/>
      <point x="335" y="265"/>
      <point x="287" y="346"/>
    </contour>
    <contour>
      <point x="712" y="566" type="curve" smooth="yes"/>
      <point x="529" y="566"/>
      <point x="428" y="415"/>
      <point x="428" y="150" type="curve" smooth="yes"/>
      <point x="428" y="-126"/>
      <point x="495" y="-228"/>
      <point x="600" y="-228" type="curve" smooth="yes"/>
      <point x="645" y="-228"/>
      <point x="671" y="-211"/>
      <point x="687" y="-187" type="curve" smooth="yes"/>
      <point x="706" y="-159"/>
      <point x="709" y="-118"/>
      <point x="709" y="-60" type="curve" smooth="yes"/>
      <point x="709" y="406" type="line"/>
      <point x="630" y="406" type="line"/>
      <point x="630" y="-91" type="line" smooth="yes"/>
      <point x="630" y="-129"/>
      <point x="627" y="-144"/>
      <point x="617" y="-154" type="curve" smooth="yes"/>
      <point x="612" y="-159"/>
      <point x="605" y="-162"/>
      <point x="594" y="-162" type="curve" smooth="yes"/>
      <point x="555" y="-162"/>
      <point x="518" y="-114"/>
      <point x="511" y="30" type="curve" smooth="yes"/>
      <point x="511" y="37"/>
      <point x="511" y="44"/>
      <point x="511" y="51" type="curve" smooth="yes"/>
      <point x="509" y="77"/>
      <point x="508" y="107"/>
      <point x="508" y="148" type="curve" smooth="yes"/>
      <point x="508" y="346"/>
      <point x="564" y="498"/>
      <point x="710" y="498" type="curve" smooth="yes"/>
      <point x="808" y="498"/>
      <point x="853" y="429"/>
      <point x="853" y="335" type="curve" smooth="yes"/>
      <point x="853" y="236"/>
      <point x="810" y="188"/>
      <point x="755" y="172" type="curve"/>
      <point x="755" y="105" type="line"/>
      <point x="825" y="103"/>
      <point x="860" y="48"/>
      <point x="860" y="-33" type="curve" smooth="yes"/>
      <point x="860" y="-127"/>
      <point x="830" y="-161"/>
      <point x="778" y="-161" type="curve" smooth="yes"/>
      <point x="764" y="-161"/>
      <point x="754" y="-160"/>
      <point x="741" y="-156" type="curve"/>
      <point x="726" y="-221" type="line"/>
      <point x="741" y="-225"/>
      <point x="763" y="-228"/>
      <point x="788" y="-228" type="curve" smooth="yes"/>
      <point x="876" y="-228"/>
      <point x="941" y="-175"/>
      <point x="941" y="-32" type="curve" smooth="yes"/>
      <point x="941" y="61"/>
      <point x="894" y="122"/>
      <point x="830" y="147" type="curve"/>
      <point x="828" y="138" type="line"/>
      <point x="884" y="173"/>
      <point x="934" y="227"/>
      <point x="934" y="339" type="curve" smooth="yes"/>
      <point x="934" y="446"/>
      <point x="878" y="566"/>
    </contour>
  </outline>
</glyph>
<glyph name="omlym" format="2">
  <advance width="590"/>
  <unicode hex="0D12"/>
  <outline>
    <contour>
      <point x="353" y="566" type="curve" smooth="yes"/>
      <point x="153" y="566"/>
      <point x="36" y="435"/>
      <point x="36" y="225" type="curve" smooth="yes"/>
      <point x="36" y="55"/>
      <point x="104" y="-12"/>
      <point x="186" y="-12" type="curve" smooth="yes"/>
      <point x="272" y="-12"/>
      <point x="319" y="42"/>
      <point x="319" y="159" type="curve" smooth="yes"/>
      <point x="319" y="272"/>
      <point x="272" y="326"/>
      <point x="193" y="326" type="curve" smooth="yes"/>
      <point x="141" y="326"/>
      <point x="94" y="291"/>
      <point x="63" y="257" type="curve"/>
      <point x="84" y="204" type="line"/>
      <point x="115" y="242"/>
      <point x="140" y="260"/>
      <point x="175" y="260" type="curve" smooth="yes"/>
      <point x="218" y="260"/>
      <point x="241" y="231"/>
      <point x="241" y="157" type="curve" smooth="yes"/>
      <point x="241" y="82"/>
      <point x="219" y="55"/>
      <point x="185" y="55" type="curve" smooth="yes"/>
      <point x="140" y="55"/>
      <point x="111" y="101"/>
      <point x="111" y="214" type="curve" smooth="yes"/>
      <point x="111" y="236" type="line" smooth="yes"/>
      <point x="111" y="396"/>
      <point x="212" y="498"/>
      <point x="349" y="498" type="curve" smooth="yes"/>
      <point x="425" y="498"/>
      <point x="471" y="463"/>
      <point x="471" y="398" type="curve" smooth="yes"/>
      <point x="471" y="371"/>
      <point x="464" y="351"/>
      <point x="450" y="337" type="curve" smooth="yes"/>
      <point x="430" y="317"/>
      <point x="404" y="310"/>
      <point x="363" y="310" type="curve" smooth="yes"/>
      <point x="361" y="310" type="line"/>
      <point x="361" y="244" type="line"/>
      <point x="363" y="244" type="line"/>
      <point x="401" y="244"/>
      <point x="431" y="234"/>
      <point x="450" y="214" type="curve" smooth="yes"/>
      <point x="467" y="197"/>
      <point x="476" y="170"/>
      <point x="476" y="140" type="curve" smooth="yes"/>
      <point x="476" y="86"/>
      <point x="452" y="55"/>
      <point x="401" y="55" type="curve" smooth="yes"/>
      <point x="387" y="55"/>
      <point x="370" y="57"/>
      <point x="354" y="62" type="curve"/>
      <point x="339" y="-1" type="line"/>
      <point x="358" y="-7"/>
      <point x="388" y="-11"/>
      <point x="415" y="-11" type="curve" smooth="yes"/>
      <point x="503" y="-11"/>
      <point x="557" y="46"/>
      <point x="557" y="141" type="curve" smooth="yes"/>
      <point x="557" y="205"/>
      <point x="517" y="264"/>
      <point x="456" y="280" type="curve"/>
      <point x="459" y="275" type="line"/>
      <point x="527" y="301"/>
      <point x="552" y="347"/>
      <point x="552" y="403" type="curve" smooth="yes"/>
      <point x="552" y="489"/>
      <point x="493" y="566"/>
    </contour>
  </outline>
</glyph>
<glyph name="kamlym" format="2">
  <advance width="795"/>
  <unicode hex="0D15"/>
  <outline>
    <contour>
      <point x="177" y="-12" type="curve" smooth="yes"/>
      <point x="226" y="-12"/>
      <point x="265" y="-2"/>
      <point x="319" y="42" type="curve"/>
      <point x="281" y="94" type="line"/>
      <point x="248" y="68"/>
      <point x="224" y="56"/>
      <point x="186" y="56" type="curve" smooth="yes"/>
      <point x="136" y="56"/>
      <point x="107" y="91"/>
      <point x="107" y="151" type="curve" smooth="yes"/>
      <point x="107" y="190"/>
      <point x="121" y="215"/>
      <point x="143" y="232" type="curve" smooth="yes"/>
      <point x="172" y="253"/>
      <point x="210" y="260"/>
      <point x="284" y="260" type="curve" smooth="yes"/>
      <point x="507" y="260" type="line" smooth="yes"/>
      <point x="598" y="260"/>
      <point x="631" y="249"/>
      <point x="656" y="228" type="curve" smooth="yes"/>
      <point x="677" y="210"/>
      <point x="687" y="182"/>
      <point x="687" y="149" type="curve" smooth="yes"/>
      <point x="687" y="87"/>
      <point x="660" y="57"/>
      <point x="612" y="57" type="curve" smooth="yes"/>
      <point x="597" y="57"/>
      <point x="586" y="58"/>
      <point x="573" y="62" type="curve"/>
      <point x="558" y="-4" type="line"/>
      <point x="581" y="-10"/>
      <point x="597" y="-12"/>
      <point x="621" y="-12" type="curve" smooth="yes"/>
      <point x="708" y="-12"/>
      <point x="765" y="52"/>
      <point x="765" y="149" type="curve" smooth="yes"/>
      <point x="765" y="214"/>
      <point x="740" y="259"/>
      <point x="703" y="286" type="curve" smooth="yes"/>
      <point x="665" y="314"/>
      <point x="615" y="326"/>
      <point x="503" y="326" type="curve" smooth="yes"/>
      <point x="305" y="326" type="line" smooth="yes"/>
      <point x="195" y="326"/>
      <point x="143" y="315"/>
      <point x="102" y="289" type="curve" smooth="yes"/>
      <point x="59" y="262"/>
      <point x="30" y="222"/>
      <point x="30" y="152" type="curve" smooth="yes"/>
      <point x="30" y="50"/>
      <point x="85" y="-12"/>
    </contour>
    <contour>
      <point x="398" y="566" type="curve" smooth="yes"/>
      <point x="284" y="566"/>
      <point x="219" y="475"/>
      <point x="219" y="279" type="curve" smooth="yes"/>
      <point x="219" y="196"/>
      <point x="230" y="116"/>
      <point x="264" y="61" type="curve" smooth="yes"/>
      <point x="292" y="17"/>
      <point x="332" y="-12"/>
      <point x="397" y="-12" type="curve" smooth="yes"/>
      <point x="509" y="-12"/>
      <point x="576" y="77"/>
      <point x="576" y="279" type="curve" smooth="yes"/>
      <point x="576" y="460"/>
      <point x="521" y="566"/>
    </contour>
    <contour>
      <point x="398" y="500" type="curve" smooth="yes"/>
      <point x="463" y="500"/>
      <point x="498" y="436"/>
      <point x="498" y="278" type="curve" smooth="yes"/>
      <point x="498" y="115"/>
      <point x="462" y="54"/>
      <point x="397" y="54" type="curve" smooth="yes"/>
      <point x="331" y="54"/>
      <point x="297" y="118"/>
      <point x="297" y="278" type="curve" smooth="yes"/>
      <point x="297" y="432"/>
      <point x="330" y="500"/>
    </contour>
  </outline>
</glyph>
<glyph name="khamlym" format="2">
  <advance width="765"/>
  <unicode hex="0D16"/>
  <outline>
    <contour>
      <point x="289" y="566" type="curve" smooth="yes"/>
      <point x="146" y="566"/>
      <point x="37" y="458"/>
      <point x="37" y="237" type="curve" smooth="yes"/>
      <point x="37" y="54"/>
      <point x="105" y="-12"/>
      <point x="188" y="-12" type="curve" smooth="yes"/>
      <point x="273" y="-12"/>
      <point x="320" y="42"/>
      <point x="320" y="160" type="curve" smooth="yes"/>
      <point x="320" y="272"/>
      <point x="273" y="326"/>
      <point x="194" y="326" type="curve" smooth="yes"/>
      <point x="142" y="326"/>
      <point x="95" y="291"/>
      <point x="64" y="257" type="curve"/>
      <point x="85" y="204" type="line"/>
      <point x="116" y="242"/>
      <point x="141" y="260"/>
      <point x="176" y="260" type="curve" smooth="yes"/>
      <point x="219" y="260"/>
      <point x="242" y="231"/>
      <point x="242" y="157" type="curve" smooth="yes"/>
      <point x="242" y="84"/>
      <point x="220" y="55"/>
      <point x="186" y="55" type="curve" smooth="yes"/>
      <point x="142" y="55"/>
      <point x="112" y="99"/>
      <point x="112" y="218" type="curve" smooth="yes"/>
      <point x="112" y="243" type="line" smooth="yes"/>
      <point x="112" y="389"/>
      <point x="180" y="498"/>
      <point x="287" y="498" type="curve" smooth="yes"/>
      <point x="378" y="498"/>
      <point x="433" y="422"/>
      <point x="433" y="281" type="curve" smooth="yes"/>
      <point x="433" y="169"/>
      <point x="393" y="95"/>
      <point x="354" y="55" type="curve"/>
      <point x="392" y="0" type="line"/>
      <point x="435" y="0" type="line"/>
      <point x="441" y="52" type="line"/>
      <point x="485" y="107"/>
      <point x="515" y="183"/>
      <point x="515" y="289" type="curve" smooth="yes"/>
      <point x="515" y="448"/>
      <point x="446" y="566"/>
    </contour>
    <contour>
      <point x="706" y="554" type="line"/>
      <point x="627" y="554" type="line"/>
      <point x="627" y="66" type="line"/>
      <point x="435" y="66" type="line"/>
      <point x="412" y="0" type="line"/>
      <point x="706" y="0" type="line"/>
    </contour>
  </outline>
</glyph>
<glyph name="gamlym" format="2">
  <advance width="682"/>
  <unicode hex="0D17"/>
  <outline>
    <contour>
      <point x="464" y="566" type="curve" smooth="yes"/>
      <point x="411" y="566"/>
      <point x="375" y="551"/>
      <point x="347" y="523" type="curve" smooth="yes"/>
      <point x="310" y="485"/>
      <point x="301" y="435"/>
      <point x="301" y="360" type="curve" smooth="yes"/>
      <point x="301" y="237" type="line" smooth="yes"/>
      <point x="301" y="150"/>
      <point x="297" y="109"/>
      <point x="277" y="81" type="curve" smooth="yes"/>
      <point x="265" y="65"/>
      <point x="247" y="56"/>
      <point x="219" y="56" type="curve" smooth="yes"/>
      <point x="158" y="56"/>
      <point x="118" y="130"/>
      <point x="118" y="253" type="curve" smooth="yes"/>
      <point x="118" y="381"/>
      <point x="161" y="461"/>
      <point x="205" y="514" type="curve"/>
      <point x="143" y="566" type="line"/>
      <point x="85" y="494"/>
      <point x="36" y="402"/>
      <point x="36" y="249" type="curve" smooth="yes"/>
      <point x="36" y="81"/>
      <point x="104" y="-12"/>
      <point x="218" y="-12" type="curve" smooth="yes"/>
      <point x="271" y="-12"/>
      <point x="307" y="3"/>
      <point x="335" y="31" type="curve" smooth="yes"/>
      <point x="372" y="68"/>
      <point x="381" y="119"/>
      <point x="381" y="194" type="curve" smooth="yes"/>
      <point x="381" y="334" type="line" smooth="yes"/>
      <point x="381" y="407"/>
      <point x="385" y="445"/>
      <point x="405" y="473" type="curve" smooth="yes"/>
      <point x="417" y="489"/>
      <point x="435" y="498"/>
      <point x="463" y="498" type="curve" smooth="yes"/>
      <point x="524" y="498"/>
      <point x="564" y="424"/>
      <point x="564" y="301" type="curve" smooth="yes"/>
      <point x="564" y="173"/>
      <point x="522" y="95"/>
      <point x="478" y="42" type="curve"/>
      <point x="540" y="-10" type="line"/>
      <point x="598" y="62"/>
      <point x="646" y="152"/>
      <point x="646" y="305" type="curve" smooth="yes"/>
      <point x="646" y="473"/>
      <point x="578" y="566"/>
    </contour>
  </outline>
</glyph>
<glyph name="ghamlym" format="2">
  <advance width="1009"/>
  <unicode hex="0D18"/>
  <outline>
    <contour>
      <point x="183" y="566" type="curve" smooth="yes"/>
      <point x="92" y="566"/>
      <point x="31" y="501"/>
      <point x="31" y="395" type="curve" smooth="yes"/>
      <point x="31" y="321"/>
      <point x="61" y="263"/>
      <point x="98" y="217" type="curve"/>
      <point x="154" y="261" type="line"/>
      <point x="125" y="302"/>
      <point x="108" y="340"/>
      <point x="108" y="396" type="curve" smooth="yes"/>
      <point x="108" y="459"/>
      <point x="137" y="500"/>
      <point x="184" y="500" type="curve" smooth="yes"/>
      <point x="232" y="500"/>
      <point x="258" y="459"/>
      <point x="258" y="392" type="curve" smooth="yes"/>
      <point x="258" y="339"/>
      <point x="242" y="304"/>
      <point x="223" y="276" type="curve"/>
      <point x="255" y="224" type="line"/>
      <point x="448" y="224" type="line"/>
      <point x="442" y="290" type="line"/>
      <point x="288" y="290" type="line"/>
      <point x="300" y="281" type="line"/>
      <point x="314" y="299"/>
      <point x="335" y="342"/>
      <point x="335" y="400" type="curve" smooth="yes"/>
      <point x="335" y="486"/>
      <point x="288" y="566"/>
    </contour>
    <contour>
      <point x="950" y="554" type="line"/>
      <point x="871" y="554" type="line"/>
      <point x="871" y="66" type="line"/>
      <point x="485" y="66" type="line"/>
      <point x="485" y="224" type="line"/>
      <point x="767" y="224" type="line"/>
      <point x="767" y="341" type="line" smooth="yes"/>
      <point x="767" y="422"/>
      <point x="754" y="473"/>
      <point x="721" y="512" type="curve" smooth="yes"/>
      <point x="692" y="548"/>
      <point x="647" y="566"/>
      <point x="587" y="566" type="curve" smooth="yes"/>
      <point x="527" y="566"/>
      <point x="483" y="546"/>
      <point x="452" y="508" type="curve" smooth="yes"/>
      <point x="423" y="472"/>
      <point x="406" y="426"/>
      <point x="406" y="331" type="curve" smooth="yes"/>
      <point x="406" y="0" type="line"/>
      <point x="950" y="0" type="line"/>
    </contour>
    <contour>
      <point x="586" y="500" type="curve" smooth="yes"/>
      <point x="656" y="500"/>
      <point x="688" y="450"/>
      <point x="688" y="331" type="curve" smooth="yes"/>
      <point x="688" y="290" type="line"/>
      <point x="485" y="290" type="line"/>
      <point x="485" y="330" type="line" smooth="yes"/>
      <point x="485" y="447"/>
      <point x="515" y="500"/>
    </contour>
  </outline>
</glyph>
<glyph name="ngamlym" format="2">
  <advance width="808"/>
  <unicode hex="0D19"/>
  <outline>
    <contour>
      <point x="277" y="566" type="curve" smooth="yes"/>
      <point x="141" y="566"/>
      <point x="38" y="462"/>
      <point x="38" y="241" type="curve" smooth="yes"/>
      <point x="38" y="54"/>
      <point x="106" y="-12"/>
      <point x="188" y="-12" type="curve" smooth="yes"/>
      <point x="274" y="-12"/>
      <point x="321" y="42"/>
      <point x="321" y="160" type="curve" smooth="yes"/>
      <point x="321" y="272"/>
      <point x="274" y="326"/>
      <point x="195" y="326" type="curve" smooth="yes"/>
      <point x="143" y="326"/>
      <point x="96" y="291"/>
      <point x="65" y="257" type="curve"/>
      <point x="86" y="204" type="line"/>
      <point x="117" y="242"/>
      <point x="142" y="260"/>
      <point x="177" y="260" type="curve" smooth="yes"/>
      <point x="220" y="260"/>
      <point x="243" y="231"/>
      <point x="243" y="157" type="curve" smooth="yes"/>
      <point x="243" y="84"/>
      <point x="221" y="55"/>
      <point x="187" y="55" type="curve" smooth="yes"/>
      <point x="143" y="55"/>
      <point x="113" y="99"/>
      <point x="113" y="222" type="curve" smooth="yes"/>
      <point x="113" y="251" type="line" smooth="yes"/>
      <point x="113" y="393"/>
      <point x="177" y="498"/>
      <point x="279" y="498" type="curve" smooth="yes"/>
      <point x="318" y="498"/>
      <point x="345" y="485"/>
      <point x="362" y="465" type="curve" smooth="yes"/>
      <point x="386" y="437"/>
      <point x="393" y="398"/>
      <point x="393" y="326" type="curve" smooth="yes"/>
      <point x="393" y="0" type="line"/>
      <point x="472" y="0" type="line"/>
      <point x="472" y="264" type="line"/>
      <point x="460" y="417" type="line"/>
      <point x="445" y="467" type="line"/>
      <point x="406" y="533"/>
      <point x="359" y="566"/>
    </contour>
    <contour>
      <point x="610" y="566" type="curve" smooth="yes"/>
      <point x="509" y="566"/>
      <point x="448" y="503"/>
      <point x="418" y="428" type="curve"/>
      <point x="414" y="296" type="line"/>
      <point x="427" y="205" type="line"/>
      <point x="472" y="204" type="line"/>
      <point x="472" y="301" type="line" smooth="yes"/>
      <point x="472" y="393"/>
      <point x="491" y="440"/>
      <point x="525" y="470" type="curve" smooth="yes"/>
      <point x="548" y="490"/>
      <point x="574" y="498"/>
      <point x="605" y="498" type="curve" smooth="yes"/>
      <point x="652" y="498"/>
      <point x="689" y="468"/>
      <point x="689" y="406" type="curve" smooth="yes"/>
      <point x="689" y="375"/>
      <point x="681" y="353"/>
      <point x="667" y="338" type="curve" smooth="yes"/>
      <point x="648" y="318"/>
      <point x="622" y="310"/>
      <point x="584" y="310" type="curve" smooth="yes"/>
      <point x="576" y="310" type="line"/>
      <point x="576" y="244" type="line"/>
      <point x="581" y="244" type="line" smooth="yes"/>
      <point x="619" y="244"/>
      <point x="649" y="234"/>
      <point x="668" y="214" type="curve" smooth="yes"/>
      <point x="685" y="197"/>
      <point x="694" y="171"/>
      <point x="694" y="140" type="curve" smooth="yes"/>
      <point x="694" y="76"/>
      <point x="661" y="55"/>
      <point x="619" y="55" type="curve" smooth="yes"/>
      <point x="605" y="55"/>
      <point x="588" y="57"/>
      <point x="572" y="62" type="curve"/>
      <point x="557" y="-1" type="line"/>
      <point x="576" y="-7"/>
      <point x="606" y="-11"/>
      <point x="633" y="-11" type="curve" smooth="yes"/>
      <point x="720" y="-11"/>
      <point x="775" y="45"/>
      <point x="775" y="141" type="curve" smooth="yes"/>
      <point x="775" y="206"/>
      <point x="735" y="264"/>
      <point x="674" y="280" type="curve"/>
      <point x="677" y="275" type="line"/>
      <point x="745" y="303"/>
      <point x="770" y="349"/>
      <point x="770" y="413" type="curve" smooth="yes"/>
      <point x="770" y="497"/>
      <point x="715" y="566"/>
    </contour>
  </outline>
</glyph>
<glyph name="chamlym" format="2">
  <advance width="1018"/>
  <unicode hex="0D1B"/>
  <outline>
    <contour>
      <point x="263" y="365" type="curve" smooth="yes"/>
      <point x="173" y="365"/>
      <point x="114" y="306"/>
      <point x="114" y="206" type="curve" smooth="yes"/>
      <point x="114" y="182"/>
      <point x="118" y="160"/>
      <point x="121" y="147" type="curve"/>
      <point x="197" y="157" type="line"/>
      <point x="195" y="166"/>
      <point x="193" y="186"/>
      <point x="193" y="200" type="curve" smooth="yes"/>
      <point x="193" y="265"/>
      <point x="220" y="299"/>
      <point x="264" y="299" type="curve" smooth="yes"/>
      <point x="309" y="299"/>
      <point x="334" y="259"/>
      <point x="334" y="198" type="curve" smooth="yes"/>
      <point x="334" y="130"/>
      <point x="304" y="81"/>
      <point x="272" y="50" type="curve"/>
      <point x="317" y="66" type="line"/>
      <point x="16" y="66" type="line"/>
      <point x="16" y="0" type="line"/>
      <point x="599" y="0" type="line"/>
      <point x="572" y="66" type="line"/>
      <point x="337" y="66" type="line"/>
      <point x="355" y="46" type="line"/>
      <point x="385" y="84"/>
      <point x="411" y="131"/>
      <point x="411" y="201" type="curve" smooth="yes"/>
      <point x="411" y="284"/>
      <point x="374" y="365"/>
    </contour>
    <contour>
      <point x="728" y="566" type="curve" smooth="yes"/>
      <point x="566" y="566"/>
      <point x="486" y="440"/>
      <point x="486" y="288" type="curve" smooth="yes"/>
      <point x="486" y="187"/>
      <point x="515" y="109"/>
      <point x="559" y="54" type="curve"/>
      <point x="568" y="0" type="line"/>
      <point x="607" y="0" type="line"/>
      <point x="647" y="55" type="line"/>
      <point x="598" y="108"/>
      <point x="568" y="184"/>
      <point x="568" y="281" type="curve" smooth="yes"/>
      <point x="568" y="414"/>
      <point x="628" y="498"/>
      <point x="733" y="498" type="curve" smooth="yes"/>
      <point x="831" y="498"/>
      <point x="887" y="420"/>
      <point x="899" y="335" type="curve"/>
      <point x="902" y="330"/>
      <point x="899" y="317"/>
      <point x="901" y="310" type="curve"/>
      <point x="904" y="283"/>
      <point x="906" y="251"/>
      <point x="906" y="248" type="curve" smooth="yes"/>
      <point x="906" y="107"/>
      <point x="875" y="53"/>
      <point x="823" y="53" type="curve" smooth="yes"/>
      <point x="774" y="53"/>
      <point x="752" y="106"/>
      <point x="752" y="198" type="curve" smooth="yes"/>
      <point x="752" y="284"/>
      <point x="776" y="337"/>
      <point x="831" y="337" type="curve" smooth="yes"/>
      <point x="883" y="337"/>
      <point x="915" y="282"/>
      <point x="927" y="249" type="curve"/>
      <point x="954" y="266" type="line"/>
      <point x="915" y="358"/>
      <point x="883" y="402"/>
      <point x="813" y="402" type="curve" smooth="yes"/>
      <point x="726" y="402"/>
      <point x="674" y="331"/>
      <point x="674" y="199" type="curve" smooth="yes"/>
      <point x="674" y="78"/>
      <point x="720" y="-12"/>
      <point x="822" y="-12" type="curve" smooth="yes"/>
      <point x="916" y="-12"/>
      <point x="982" y="51"/>
      <point x="982" y="242" type="curve" smooth="yes"/>
      <point x="982" y="436"/>
      <point x="898" y="566"/>
    </contour>
  </outline>
</glyph>
<glyph name="jamlym" format="2">
  <advance width="712"/>
  <unicode hex="0D1C"/>
  <outline>
    <contour>
      <point x="230" y="566" type="curve" smooth="yes"/>
      <point x="108" y="566"/>
      <point x="39" y="488"/>
      <point x="39" y="383" type="curve" smooth="yes"/>
      <point x="39" y="290"/>
      <point x="83" y="240"/>
      <point x="155" y="240" type="curve" smooth="yes"/>
      <point x="234" y="240"/>
      <point x="269" y="290"/>
      <point x="269" y="365" type="curve" smooth="yes"/>
      <point x="269" y="437"/>
      <point x="234" y="479"/>
      <point x="171" y="479" type="curve" smooth="yes"/>
      <point x="128" y="479"/>
      <point x="91" y="458"/>
      <point x="64" y="424" type="curve"/>
      <point x="77" y="393" type="line"/>
      <point x="93" y="413"/>
      <point x="121" y="432"/>
      <point x="150" y="432" type="curve" smooth="yes"/>
      <point x="183" y="432"/>
      <point x="199" y="413"/>
      <point x="199" y="368" type="curve" smooth="yes"/>
      <point x="199" y="333"/>
      <point x="189" y="297"/>
      <point x="153" y="297" type="curve" smooth="yes"/>
      <point x="124" y="297"/>
      <point x="103" y="318"/>
      <point x="103" y="377" type="curve" smooth="yes"/>
      <point x="103" y="400"/>
      <point x="105" y="419"/>
      <point x="112" y="434" type="curve" smooth="yes"/>
      <point x="114" y="440"/>
      <point x="113" y="451"/>
      <point x="117" y="456" type="curve" smooth="yes"/>
      <point x="140" y="486"/>
      <point x="180" y="502"/>
      <point x="227" y="502" type="curve" smooth="yes"/>
      <point x="270" y="502"/>
      <point x="297" y="490"/>
      <point x="315" y="469" type="curve" smooth="yes"/>
      <point x="342" y="437"/>
      <point x="346" y="392"/>
      <point x="346" y="332" type="curve" smooth="yes"/>
      <point x="346" y="261" type="line"/>
      <point x="421" y="261" type="line"/>
      <point x="421" y="337" type="line" smooth="yes"/>
      <point x="421" y="400"/>
      <point x="426" y="453"/>
      <point x="453" y="481" type="curve" smooth="yes"/>
      <point x="465" y="493"/>
      <point x="480" y="501"/>
      <point x="507" y="501" type="curve" smooth="yes"/>
      <point x="573" y="501"/>
      <point x="594" y="436"/>
      <point x="594" y="374" type="curve" smooth="yes"/>
      <point x="594" y="320"/>
      <point x="577" y="285"/>
      <point x="549" y="263" type="curve" smooth="yes"/>
      <point x="514" y="236"/>
      <point x="466" y="231"/>
      <point x="402" y="231" type="curve" smooth="yes"/>
      <point x="213" y="231" type="line" smooth="yes"/>
      <point x="138" y="231"/>
      <point x="110" y="223"/>
      <point x="84" y="208" type="curve" smooth="yes"/>
      <point x="48" y="187"/>
      <point x="31" y="153"/>
      <point x="31" y="108" type="curve" smooth="yes"/>
      <point x="31" y="24"/>
      <point x="92" y="-12"/>
      <point x="167" y="-12" type="curve" smooth="yes"/>
      <point x="232" y="-12"/>
      <point x="283" y="10"/>
      <point x="365" y="71" type="curve" smooth="yes"/>
      <point x="404" y="100"/>
      <point x="435" y="128"/>
      <point x="456" y="148" type="curve"/>
      <point x="469" y="142" type="line"/>
      <point x="495" y="165"/>
      <point x="514" y="179"/>
      <point x="537" y="179" type="curve" smooth="yes"/>
      <point x="571" y="179"/>
      <point x="587" y="155"/>
      <point x="587" y="114" type="curve" smooth="yes"/>
      <point x="587" y="76"/>
      <point x="575" y="47"/>
      <point x="538" y="47" type="curve" smooth="yes"/>
      <point x="510" y="47"/>
      <point x="491" y="66"/>
      <point x="491" y="116" type="curve" smooth="yes"/>
      <point x="491" y="163"/>
      <point x="508" y="192"/>
      <point x="526" y="215" type="curve"/>
      <point x="476" y="217" type="line"/>
      <point x="440" y="191"/>
      <point x="428" y="159"/>
      <point x="428" y="113" type="curve" smooth="yes"/>
      <point x="428" y="51"/>
      <point x="456" y="-12"/>
      <point x="542" y="-12" type="curve" smooth="yes"/>
      <point x="614" y="-12"/>
      <point x="657" y="37"/>
      <point x="657" y="110" type="curve" smooth="yes"/>
      <point x="657" y="201"/>
      <point x="605" y="228"/>
      <point x="550" y="228" type="curve" smooth="yes"/>
      <point x="520" y="228"/>
      <point x="455" y="194"/>
      <point x="427" y="180" type="curve"/>
      <point x="397" y="166"/>
      <point x="373" y="153"/>
      <point x="324" y="120" type="curve" smooth="yes"/>
      <point x="237" y="61"/>
      <point x="213" y="53"/>
      <point x="170" y="53" type="curve" smooth="yes"/>
      <point x="135" y="53"/>
      <point x="110" y="75"/>
      <point x="110" y="111" type="curve" smooth="yes"/>
      <point x="110" y="131"/>
      <point x="119" y="145"/>
      <point x="136" y="155" type="curve" smooth="yes"/>
      <point x="151" y="163"/>
      <point x="169" y="168"/>
      <point x="226" y="168" type="curve" smooth="yes"/>
      <point x="325" y="168" type="line" smooth="yes"/>
      <point x="380" y="168"/>
      <point x="429" y="174"/>
      <point x="460" y="179" type="curve"/>
      <point x="515" y="192" type="line"/>
      <point x="570" y="204" type="line"/>
      <point x="632" y="234"/>
      <point x="674" y="286"/>
      <point x="674" y="378" type="curve" smooth="yes"/>
      <point x="674" y="476"/>
      <point x="625" y="566"/>
      <point x="514" y="566" type="curve" smooth="yes"/>
      <point x="452" y="566"/>
      <point x="405" y="541"/>
      <point x="366" y="466" type="curve"/>
      <point x="397" y="475" type="line"/>
      <point x="357" y="532"/>
      <point x="316" y="566"/>
    </contour>
  </outline>
</glyph>
<glyph name="jhamlym" format="2">
  <advance width="1252"/>
  <unicode hex="0D1D"/>
  <outline>
    <contour>
      <point x="516" y="566" type="curve" smooth="yes"/>
      <point x="461" y="566"/>
      <point x="411" y="551"/>
      <point x="374" y="522" type="curve"/>
      <point x="356" y="505" type="line"/>
      <point x="280" y="448"/>
      <point x="232" y="354"/>
      <point x="232" y="212" type="curve" smooth="yes"/>
      <point x="232" y="71"/>
      <point x="287" y="-12"/>
      <point x="387" y="-12" type="curve" smooth="yes"/>
      <point x="489" y="-12"/>
      <point x="544" y="65"/>
      <point x="544" y="212" type="curve" smooth="yes"/>
      <point x="544" y="357"/>
      <point x="493" y="451"/>
      <point x="420" y="505" type="curve"/>
      <point x="400" y="523" type="line"/>
      <point x="361" y="553"/>
      <point x="322" y="566"/>
      <point x="271" y="566" type="curve" smooth="yes"/>
      <point x="112" y="566"/>
      <point x="36" y="441"/>
      <point x="36" y="288" type="curve" smooth="yes"/>
      <point x="36" y="143"/>
      <point x="88" y="50"/>
      <point x="150" y="-8" type="curve"/>
      <point x="206" y="47" type="line"/>
      <point x="154" y="97"/>
      <point x="118" y="166"/>
      <point x="118" y="281" type="curve" smooth="yes"/>
      <point x="118" y="414"/>
      <point x="177" y="501"/>
      <point x="280" y="501" type="curve" smooth="yes"/>
      <point x="303" y="501"/>
      <point x="325" y="496"/>
      <point x="345" y="483" type="curve" smooth="yes"/>
      <point x="360" y="473" type="line" smooth="yes"/>
      <point x="422" y="433"/>
      <point x="463" y="335"/>
      <point x="463" y="211" type="curve" smooth="yes"/>
      <point x="463" y="83"/>
      <point x="429" y="54"/>
      <point x="388" y="54" type="curve" smooth="yes"/>
      <point x="348" y="54"/>
      <point x="313" y="83"/>
      <point x="313" y="211" type="curve" smooth="yes"/>
      <point x="313" y="333"/>
      <point x="352" y="431"/>
      <point x="414" y="468" type="curve"/>
      <point x="433" y="483" type="line"/>
      <point x="455" y="496"/>
      <point x="479" y="501"/>
      <point x="502" y="501" type="curve" smooth="yes"/>
      <point x="545" y="501"/>
      <point x="573" y="486"/>
      <point x="592" y="464" type="curve" smooth="yes"/>
      <point x="616" y="436"/>
      <point x="627" y="390"/>
      <point x="627" y="307" type="curve" smooth="yes"/>
      <point x="627" y="194" type="line"/>
      <point x="627" y="101"/>
      <point x="641" y="61"/>
      <point x="674" y="28" type="curve" smooth="yes"/>
      <point x="699" y="3"/>
      <point x="733" y="-12"/>
      <point x="781" y="-12" type="curve" smooth="yes"/>
      <point x="848" y="-12"/>
      <point x="884" y="21"/>
      <point x="911" y="74" type="curve"/>
      <point x="900" y="75" type="line"/>
      <point x="935" y="13"/>
      <point x="973" y="-12"/>
      <point x="1032" y="-12" type="curve" smooth="yes"/>
      <point x="1150" y="-12"/>
      <point x="1216" y="96"/>
      <point x="1216" y="249" type="curve" smooth="yes"/>
      <point x="1216" y="402"/>
      <point x="1167" y="490"/>
      <point x="1109" y="562" type="curve"/>
      <point x="1047" y="510" type="line"/>
      <point x="1091" y="457"/>
      <point x="1134" y="379"/>
      <point x="1134" y="253" type="curve" smooth="yes"/>
      <point x="1134" y="139"/>
      <point x="1092" y="56"/>
      <point x="1030" y="56" type="curve" smooth="yes"/>
      <point x="1008" y="56"/>
      <point x="990" y="63"/>
      <point x="976" y="79" type="curve" smooth="yes"/>
      <point x="955" y="102"/>
      <point x="945" y="143"/>
      <point x="945" y="221" type="curve" smooth="yes"/>
      <point x="945" y="554" type="line"/>
      <point x="866" y="554" type="line"/>
      <point x="866" y="223" type="line" smooth="yes"/>
      <point x="866" y="148"/>
      <point x="862" y="113"/>
      <point x="846" y="87" type="curve" smooth="yes"/>
      <point x="834" y="67"/>
      <point x="814" y="56"/>
      <point x="787" y="56" type="curve" smooth="yes"/>
      <point x="760" y="56"/>
      <point x="742" y="65"/>
      <point x="730" y="80" type="curve" smooth="yes"/>
      <point x="710" y="106"/>
      <point x="706" y="145"/>
      <point x="706" y="202" type="curve" smooth="yes"/>
      <point x="706" y="311" type="line" smooth="yes"/>
      <point x="706" y="408"/>
      <point x="694" y="476"/>
      <point x="642" y="523" type="curve" smooth="yes"/>
      <point x="613" y="549"/>
      <point x="572" y="566"/>
    </contour>
  </outline>
</glyph>
<glyph name="nyamlym" format="2">
  <advance width="1100"/>
  <unicode hex="0D1E"/>
  <outline>
    <contour>
      <point x="277" y="566" type="curve" smooth="yes"/>
      <point x="141" y="566"/>
      <point x="38" y="462"/>
      <point x="38" y="241" type="curve" smooth="yes"/>
      <point x="38" y="54"/>
      <point x="106" y="-12"/>
      <point x="188" y="-12" type="curve" smooth="yes"/>
      <point x="274" y="-12"/>
      <point x="321" y="42"/>
      <point x="321" y="160" type="curve" smooth="yes"/>
      <point x="321" y="272"/>
      <point x="274" y="326"/>
      <point x="195" y="326" type="curve" smooth="yes"/>
      <point x="143" y="326"/>
      <point x="96" y="291"/>
      <point x="65" y="257" type="curve"/>
      <point x="86" y="204" type="line"/>
      <point x="117" y="242"/>
      <point x="142" y="260"/>
      <point x="177" y="260" type="curve" smooth="yes"/>
      <point x="220" y="260"/>
      <point x="243" y="231"/>
      <point x="243" y="157" type="curve" smooth="yes"/>
      <point x="243" y="84"/>
      <point x="221" y="55"/>
      <point x="187" y="55" type="curve" smooth="yes"/>
      <point x="143" y="55"/>
      <point x="113" y="99"/>
      <point x="113" y="222" type="curve" smooth="yes"/>
      <point x="113" y="251" type="line" smooth="yes"/>
      <point x="113" y="393"/>
      <point x="177" y="498"/>
      <point x="279" y="498" type="curve" smooth="yes"/>
      <point x="318" y="498"/>
      <point x="345" y="485"/>
      <point x="362" y="465" type="curve" smooth="yes"/>
      <point x="386" y="437"/>
      <point x="393" y="398"/>
      <point x="393" y="326" type="curve" smooth="yes"/>
      <point x="393" y="0" type="line"/>
      <point x="472" y="0" type="line"/>
      <point x="472" y="264" type="line"/>
      <point x="460" y="417" type="line"/>
      <point x="445" y="467" type="line"/>
      <point x="406" y="533"/>
      <point x="359" y="566"/>
    </contour>
    <contour>
      <point x="589" y="566" type="curve" smooth="yes"/>
      <point x="497" y="566"/>
      <point x="449" y="521"/>
      <point x="416" y="451" type="curve"/>
      <point x="400" y="240" type="line"/>
      <point x="400" y="32" type="line"/>
      <point x="472" y="32" type="line"/>
      <point x="472" y="319" type="line" smooth="yes"/>
      <point x="472" y="391"/>
      <point x="479" y="433"/>
      <point x="505" y="465" type="curve" smooth="yes"/>
      <point x="523" y="488"/>
      <point x="551" y="501"/>
      <point x="593" y="501" type="curve" smooth="yes"/>
      <point x="626" y="501"/>
      <point x="648" y="495"/>
      <point x="668" y="482" type="curve" smooth="yes"/>
      <point x="683" y="473" type="line" smooth="yes"/>
      <point x="745" y="433"/>
      <point x="786" y="335"/>
      <point x="786" y="211" type="curve" smooth="yes"/>
      <point x="786" y="83"/>
      <point x="752" y="54"/>
      <point x="711" y="54" type="curve" smooth="yes"/>
      <point x="671" y="54"/>
      <point x="636" y="83"/>
      <point x="636" y="211" type="curve" smooth="yes"/>
      <point x="636" y="333"/>
      <point x="676" y="430"/>
      <point x="738" y="467" type="curve"/>
      <point x="757" y="482" type="line"/>
      <point x="779" y="495"/>
      <point x="802" y="501"/>
      <point x="830" y="501" type="curve" smooth="yes"/>
      <point x="930" y="501"/>
      <point x="982" y="403"/>
      <point x="982" y="276" type="curve" smooth="yes"/>
      <point x="982" y="163"/>
      <point x="940" y="90"/>
      <point x="894" y="47" type="curve"/>
      <point x="950" y="-8" type="line"/>
      <point x="1017" y="59"/>
      <point x="1064" y="146"/>
      <point x="1064" y="281" type="curve" smooth="yes"/>
      <point x="1064" y="442"/>
      <point x="991" y="566"/>
      <point x="837" y="566" type="curve" smooth="yes"/>
      <point x="784" y="566"/>
      <point x="737" y="552"/>
      <point x="698" y="521" type="curve"/>
      <point x="680" y="504" type="line"/>
      <point x="604" y="447"/>
      <point x="555" y="354"/>
      <point x="555" y="212" type="curve" smooth="yes"/>
      <point x="555" y="71"/>
      <point x="610" y="-12"/>
      <point x="710" y="-12" type="curve" smooth="yes"/>
      <point x="812" y="-12"/>
      <point x="867" y="65"/>
      <point x="867" y="212" type="curve" smooth="yes"/>
      <point x="867" y="357"/>
      <point x="816" y="451"/>
      <point x="743" y="505" type="curve"/>
      <point x="723" y="523" type="line"/>
      <point x="684" y="552"/>
      <point x="641" y="566"/>
    </contour>
  </outline>
</glyph>
<glyph name="ttamlym" format="2">
  <advance width="426"/>
  <unicode hex="0D1F"/>
  <outline>
    <contour>
      <point x="223" y="566" type="curve" smooth="yes"/>
      <point x="100" y="566"/>
      <point x="27" y="493"/>
      <point x="27" y="402" type="curve" smooth="yes"/>
      <point x="27" y="349"/>
      <point x="43" y="310"/>
      <point x="74" y="285" type="curve" smooth="yes"/>
      <point x="106" y="258"/>
      <point x="155" y="246"/>
      <point x="214" y="246" type="curve" smooth="yes"/>
      <point x="220" y="246" type="line" smooth="yes"/>
      <point x="253" y="246"/>
      <point x="273" y="240"/>
      <point x="292" y="224" type="curve" smooth="yes"/>
      <point x="309" y="209"/>
      <point x="317" y="184"/>
      <point x="317" y="154" type="curve" smooth="yes"/>
      <point x="317" y="105"/>
      <point x="289" y="56"/>
      <point x="199" y="56" type="curve" smooth="yes"/>
      <point x="143" y="56"/>
      <point x="103" y="67"/>
      <point x="55" y="93" type="curve"/>
      <point x="16" y="30" type="line"/>
      <point x="65" y="4"/>
      <point x="138" y="-12"/>
      <point x="200" y="-12" type="curve" smooth="yes"/>
      <point x="326" y="-12"/>
      <point x="397" y="57"/>
      <point x="397" y="159" type="curve" smooth="yes"/>
      <point x="397" y="208"/>
      <point x="382" y="243"/>
      <point x="357" y="268" type="curve" smooth="yes"/>
      <point x="324" y="301"/>
      <point x="276" y="315"/>
      <point x="217" y="315" type="curve" smooth="yes"/>
      <point x="212" y="315" type="line" smooth="yes"/>
      <point x="177" y="315"/>
      <point x="149" y="320"/>
      <point x="131" y="336" type="curve" smooth="yes"/>
      <point x="115" y="350"/>
      <point x="107" y="371"/>
      <point x="107" y="404" type="curve" smooth="yes"/>
      <point x="107" y="446"/>
      <point x="132" y="498"/>
      <point x="225" y="498" type="curve" smooth="yes"/>
      <point x="276" y="498"/>
      <point x="314" y="486"/>
      <point x="365" y="462" type="curve"/>
      <point x="404" y="525" type="line"/>
      <point x="341" y="553"/>
      <point x="290" y="566"/>
    </contour>
  </outline>
</glyph>
<glyph name="tthamlym" format="2">
  <advance width="508"/>
  <unicode hex="0D20"/>
  <outline>
    <contour>
      <point x="257" y="566" type="curve" smooth="yes"/>
      <point x="116" y="566"/>
      <point x="36" y="463"/>
      <point x="36" y="279" type="curve" smooth="yes"/>
      <point x="36" y="110"/>
      <point x="103" y="-12"/>
      <point x="251" y="-12" type="curve" smooth="yes"/>
      <point x="393" y="-12"/>
      <point x="472" y="92"/>
      <point x="472" y="277" type="curve" smooth="yes"/>
      <point x="472" y="463"/>
      <point x="392" y="566"/>
    </contour>
    <contour>
      <point x="253" y="56" type="curve" smooth="yes"/>
      <point x="169" y="56"/>
      <point x="118" y="129"/>
      <point x="118" y="279" type="curve" smooth="yes"/>
      <point x="118" y="423"/>
      <point x="171" y="498"/>
      <point x="255" y="498" type="curve" smooth="yes"/>
      <point x="341" y="498"/>
      <point x="390" y="419"/>
      <point x="390" y="279" type="curve" smooth="yes"/>
      <point x="390" y="140"/>
      <point x="342" y="56"/>
    </contour>
  </outline>
</glyph>
<glyph name="ddamlym" format="2">
  <advance width="926"/>
  <unicode hex="0D21"/>
  <outline>
    <contour>
      <point x="455" y="-12" type="curve" smooth="yes"/>
      <point x="522" y="-12"/>
      <point x="558" y="21"/>
      <point x="585" y="74" type="curve"/>
      <point x="574" y="75" type="line"/>
      <point x="609" y="13"/>
      <point x="647" y="-12"/>
      <point x="706" y="-12" type="curve" smooth="yes"/>
      <point x="824" y="-12"/>
      <point x="890" y="96"/>
      <point x="890" y="249" type="curve" smooth="yes"/>
      <point x="890" y="402"/>
      <point x="841" y="490"/>
      <point x="783" y="562" type="curve"/>
      <point x="721" y="510" type="line"/>
      <point x="765" y="457"/>
      <point x="808" y="379"/>
      <point x="808" y="253" type="curve" smooth="yes"/>
      <point x="808" y="139"/>
      <point x="766" y="56"/>
      <point x="704" y="56" type="curve" smooth="yes"/>
      <point x="682" y="56"/>
      <point x="664" y="63"/>
      <point x="650" y="79" type="curve" smooth="yes"/>
      <point x="629" y="102"/>
      <point x="619" y="143"/>
      <point x="619" y="221" type="curve" smooth="yes"/>
      <point x="619" y="554" type="line"/>
      <point x="540" y="554" type="line"/>
      <point x="540" y="223" type="line" smooth="yes"/>
      <point x="540" y="148"/>
      <point x="536" y="113"/>
      <point x="520" y="87" type="curve" smooth="yes"/>
      <point x="508" y="67"/>
      <point x="488" y="56"/>
      <point x="461" y="56" type="curve" smooth="yes"/>
      <point x="434" y="56"/>
      <point x="416" y="65"/>
      <point x="404" y="80" type="curve" smooth="yes"/>
      <point x="384" y="106"/>
      <point x="380" y="145"/>
      <point x="380" y="202" type="curve" smooth="yes"/>
      <point x="380" y="360" type="line" smooth="yes"/>
      <point x="380" y="435"/>
      <point x="374" y="484"/>
      <point x="332" y="526" type="curve" smooth="yes"/>
      <point x="307" y="551"/>
      <point x="271" y="566"/>
      <point x="223" y="566" type="curve" smooth="yes"/>
      <point x="102" y="566"/>
      <point x="36" y="467"/>
      <point x="36" y="305" type="curve" smooth="yes"/>
      <point x="36" y="152"/>
      <point x="85" y="60"/>
      <point x="143" y="-12" type="curve"/>
      <point x="205" y="40" type="line"/>
      <point x="161" y="93"/>
      <point x="118" y="173"/>
      <point x="118" y="301" type="curve" smooth="yes"/>
      <point x="118" y="424"/>
      <point x="158" y="498"/>
      <point x="219" y="498" type="curve" smooth="yes"/>
      <point x="249" y="498"/>
      <point x="265" y="489"/>
      <point x="277" y="473" type="curve" smooth="yes"/>
      <point x="297" y="445"/>
      <point x="301" y="404"/>
      <point x="301" y="317" type="curve" smooth="yes"/>
      <point x="301" y="194" type="line" smooth="yes"/>
      <point x="301" y="101"/>
      <point x="315" y="61"/>
      <point x="348" y="28" type="curve" smooth="yes"/>
      <point x="373" y="3"/>
      <point x="407" y="-12"/>
    </contour>
  </outline>
</glyph>
<glyph name="ddhamlym" format="2">
  <advance width="1012"/>
  <unicode hex="0D22"/>
  <outline>
    <contour>
      <point x="455" y="-12" type="curve" smooth="yes"/>
      <point x="522" y="-12"/>
      <point x="558" y="21"/>
      <point x="585" y="74" type="curve"/>
      <point x="619" y="260" type="line"/>
      <point x="619" y="554" type="line"/>
      <point x="540" y="554" type="line"/>
      <point x="540" y="223" type="line" smooth="yes"/>
      <point x="540" y="148"/>
      <point x="536" y="113"/>
      <point x="520" y="87" type="curve" smooth="yes"/>
      <point x="508" y="67"/>
      <point x="488" y="56"/>
      <point x="461" y="56" type="curve" smooth="yes"/>
      <point x="434" y="56"/>
      <point x="416" y="65"/>
      <point x="404" y="80" type="curve" smooth="yes"/>
      <point x="384" y="106"/>
      <point x="380" y="145"/>
      <point x="380" y="202" type="curve" smooth="yes"/>
      <point x="380" y="360" type="line" smooth="yes"/>
      <point x="380" y="435"/>
      <point x="374" y="484"/>
      <point x="332" y="526" type="curve" smooth="yes"/>
      <point x="307" y="551"/>
      <point x="271" y="566"/>
      <point x="223" y="566" type="curve" smooth="yes"/>
      <point x="102" y="566"/>
      <point x="36" y="467"/>
      <point x="36" y="305" type="curve" smooth="yes"/>
      <point x="36" y="152"/>
      <point x="85" y="60"/>
      <point x="143" y="-12" type="curve"/>
      <point x="205" y="40" type="line"/>
      <point x="161" y="93"/>
      <point x="118" y="173"/>
      <point x="118" y="301" type="curve" smooth="yes"/>
      <point x="118" y="424"/>
      <point x="158" y="498"/>
      <point x="219" y="498" type="curve" smooth="yes"/>
      <point x="249" y="498"/>
      <point x="265" y="489"/>
      <point x="277" y="473" type="curve" smooth="yes"/>
      <point x="297" y="445"/>
      <point x="301" y="404"/>
      <point x="301" y="317" type="curve" smooth="yes"/>
      <point x="301" y="194" type="line" smooth="yes"/>
      <point x="301" y="101"/>
      <point x="315" y="61"/>
      <point x="348" y="28" type="curve" smooth="yes"/>
      <point x="373" y="3"/>
      <point x="407" y="-12"/>
    </contour>
    <contour>
      <point x="824" y="566" type="curve" smooth="yes"/>
      <point x="738" y="566"/>
      <point x="691" y="512"/>
      <point x="691" y="394" type="curve" smooth="yes"/>
      <point x="691" y="282"/>
      <point x="738" y="228"/>
      <point x="817" y="228" type="curve" smooth="yes"/>
      <point x="869" y="228"/>
      <point x="916" y="263"/>
      <point x="947" y="297" type="curve"/>
      <point x="926" y="350" type="line"/>
      <point x="895" y="312"/>
      <point x="870" y="294"/>
      <point x="835" y="294" type="curve" smooth="yes"/>
      <point x="792" y="294"/>
      <point x="769" y="323"/>
      <point x="769" y="397" type="curve" smooth="yes"/>
      <point x="769" y="470"/>
      <point x="791" y="499"/>
      <point x="825" y="499" type="curve" smooth="yes"/>
      <point x="869" y="499"/>
      <point x="899" y="455"/>
      <point x="899" y="332" type="curve" smooth="yes"/>
      <point x="899" y="303" type="line" smooth="yes"/>
      <point x="899" y="161"/>
      <point x="835" y="56"/>
      <point x="733" y="56" type="curve" smooth="yes"/>
      <point x="694" y="56"/>
      <point x="667" y="69"/>
      <point x="650" y="89" type="curve" smooth="yes"/>
      <point x="626" y="117"/>
      <point x="619" y="156"/>
      <point x="619" y="228" type="curve" smooth="yes"/>
      <point x="619" y="524" type="line"/>
      <point x="560" y="524" type="line"/>
      <point x="560" y="290" type="line"/>
      <point x="568" y="81" type="line"/>
      <point x="610" y="21"/>
      <point x="653" y="-12"/>
      <point x="735" y="-12" type="curve"/>
      <point x="871" y="-12"/>
      <point x="974" y="92"/>
      <point x="974" y="313" type="curve" smooth="yes"/>
      <point x="974" y="500"/>
      <point x="906" y="566"/>
    </contour>
  </outline>
</glyph>
<glyph name="nnamlym" format="2">
  <advance width="1030"/>
  <unicode hex="0D23"/>
  <outline>
    <contour>
      <point x="277" y="566" type="curve" smooth="yes"/>
      <point x="141" y="566"/>
      <point x="38" y="462"/>
      <point x="38" y="241" type="curve" smooth="yes"/>
      <point x="38" y="54"/>
      <point x="106" y="-12"/>
      <point x="188" y="-12" type="curve" smooth="yes"/>
      <point x="274" y="-12"/>
      <point x="321" y="42"/>
      <point x="321" y="160" type="curve" smooth="yes"/>
      <point x="321" y="272"/>
      <point x="274" y="326"/>
      <point x="195" y="326" type="curve" smooth="yes"/>
      <point x="143" y="326"/>
      <point x="96" y="291"/>
      <point x="65" y="257" type="curve"/>
      <point x="86" y="204" type="line"/>
      <point x="117" y="242"/>
      <point x="142" y="260"/>
      <point x="177" y="260" type="curve" smooth="yes"/>
      <point x="220" y="260"/>
      <point x="243" y="231"/>
      <point x="243" y="157" type="curve" smooth="yes"/>
      <point x="243" y="84"/>
      <point x="221" y="55"/>
      <point x="187" y="55" type="curve" smooth="yes"/>
      <point x="143" y="55"/>
      <point x="113" y="99"/>
      <point x="113" y="222" type="curve" smooth="yes"/>
      <point x="113" y="251" type="line" smooth="yes"/>
      <point x="113" y="395"/>
      <point x="177" y="498"/>
      <point x="279" y="498" type="curve" smooth="yes"/>
      <point x="318" y="498"/>
      <point x="345" y="485"/>
      <point x="362" y="465" type="curve" smooth="yes"/>
      <point x="386" y="437"/>
      <point x="393" y="398"/>
      <point x="393" y="326" type="curve" smooth="yes"/>
      <point x="393" y="0" type="line"/>
      <point x="472" y="0" type="line"/>
      <point x="472" y="328" type="line" smooth="yes"/>
      <point x="472" y="398"/>
      <point x="474" y="434"/>
      <point x="495" y="466" type="curve" smooth="yes"/>
      <point x="508" y="485"/>
      <point x="525" y="498"/>
      <point x="558" y="498" type="curve" smooth="yes"/>
      <point x="592" y="498"/>
      <point x="612" y="486"/>
      <point x="624" y="466" type="curve" smooth="yes"/>
      <point x="640" y="440"/>
      <point x="644" y="409"/>
      <point x="644" y="330" type="curve" smooth="yes"/>
      <point x="644" y="0" type="line"/>
      <point x="723" y="0" type="line"/>
      <point x="723" y="333" type="line" smooth="yes"/>
      <point x="723" y="411"/>
      <point x="733" y="452"/>
      <point x="754" y="475" type="curve" smooth="yes"/>
      <point x="768" y="491"/>
      <point x="786" y="498"/>
      <point x="808" y="498" type="curve" smooth="yes"/>
      <point x="870" y="498"/>
      <point x="912" y="415"/>
      <point x="912" y="301" type="curve" smooth="yes"/>
      <point x="912" y="175"/>
      <point x="869" y="97"/>
      <point x="825" y="44" type="curve"/>
      <point x="887" y="-8" type="line"/>
      <point x="945" y="64"/>
      <point x="994" y="152"/>
      <point x="994" y="305" type="curve" smooth="yes"/>
      <point x="994" y="458"/>
      <point x="928" y="566"/>
      <point x="810" y="566" type="curve" smooth="yes"/>
      <point x="751" y="566"/>
      <point x="713" y="541"/>
      <point x="678" y="479" type="curve"/>
      <point x="690" y="481" type="line"/>
      <point x="663" y="534"/>
      <point x="626" y="566"/>
      <point x="558" y="566" type="curve" smooth="yes"/>
      <point x="495" y="566"/>
      <point x="455" y="537"/>
      <point x="421" y="472" type="curve"/>
      <point x="444" y="473" type="line"/>
      <point x="402" y="533"/>
      <point x="359" y="566"/>
    </contour>
  </outline>
</glyph>
<glyph name="tamlym" format="2">
  <advance width="777"/>
  <unicode hex="0D24"/>
  <outline>
    <contour>
      <point x="387" y="-12" type="curve" smooth="yes"/>
      <point x="489" y="-12"/>
      <point x="544" y="65"/>
      <point x="544" y="212" type="curve" smooth="yes"/>
      <point x="544" y="357"/>
      <point x="493" y="451"/>
      <point x="420" y="505" type="curve"/>
      <point x="400" y="523" type="line"/>
      <point x="361" y="553"/>
      <point x="322" y="566"/>
      <point x="271" y="566" type="curve" smooth="yes"/>
      <point x="112" y="566"/>
      <point x="36" y="441"/>
      <point x="36" y="288" type="curve" smooth="yes"/>
      <point x="36" y="143"/>
      <point x="88" y="50"/>
      <point x="150" y="-8" type="curve"/>
      <point x="206" y="47" type="line"/>
      <point x="154" y="97"/>
      <point x="118" y="166"/>
      <point x="118" y="281" type="curve" smooth="yes"/>
      <point x="118" y="414"/>
      <point x="177" y="501"/>
      <point x="280" y="501" type="curve" smooth="yes"/>
      <point x="303" y="501"/>
      <point x="325" y="496"/>
      <point x="345" y="483" type="curve"/>
      <point x="360" y="473" type="line"/>
      <point x="422" y="433"/>
      <point x="463" y="335"/>
      <point x="463" y="211" type="curve" smooth="yes"/>
      <point x="463" y="83"/>
      <point x="429" y="54"/>
      <point x="388" y="54" type="curve" smooth="yes"/>
      <point x="348" y="54"/>
      <point x="313" y="83"/>
      <point x="313" y="211" type="curve" smooth="yes"/>
      <point x="313" y="333"/>
      <point x="353" y="430"/>
      <point x="415" y="467" type="curve"/>
      <point x="434" y="482" type="line"/>
      <point x="456" y="495"/>
      <point x="479" y="501"/>
      <point x="507" y="501" type="curve" smooth="yes"/>
      <point x="607" y="501"/>
      <point x="659" y="403"/>
      <point x="659" y="276" type="curve" smooth="yes"/>
      <point x="659" y="163"/>
      <point x="617" y="90"/>
      <point x="571" y="47" type="curve"/>
      <point x="627" y="-8" type="line"/>
      <point x="694" y="59"/>
      <point x="741" y="146"/>
      <point x="741" y="281" type="curve" smooth="yes"/>
      <point x="741" y="442"/>
      <point x="668" y="566"/>
      <point x="514" y="566" type="curve" smooth="yes"/>
      <point x="461" y="566"/>
      <point x="414" y="552"/>
      <point x="375" y="521" type="curve"/>
      <point x="357" y="504" type="line"/>
      <point x="281" y="447"/>
      <point x="232" y="354"/>
      <point x="232" y="212" type="curve" smooth="yes"/>
      <point x="232" y="71"/>
      <point x="287" y="-12"/>
    </contour>
  </outline>
</glyph>
<glyph name="thamlym" format="2">
  <advance width="688"/>
  <unicode hex="0D25"/>
  <outline>
    <contour>
      <point x="138" y="554" type="line"/>
      <point x="59" y="554" type="line"/>
      <point x="59" y="0" type="line"/>
      <point x="300" y="0" type="line"/>
      <point x="300" y="66" type="line"/>
      <point x="138" y="66" type="line"/>
    </contour>
    <component base="thapart"/>
  </outline>
</glyph>
<glyph name="damlym" format="2">
  <advance width="495"/>
  <unicode hex="0D26"/>
  <outline>
    <contour>
      <point x="295" y="566" type="curve" smooth="yes"/>
      <point x="138" y="566"/>
      <point x="44" y="438"/>
      <point x="44" y="225" type="curve" smooth="yes"/>
      <point x="44" y="149"/>
      <point x="55" y="61"/>
      <point x="70" y="-4" type="curve"/>
      <point x="147" y="10" type="line"/>
      <point x="133" y="72"/>
      <point x="124" y="154"/>
      <point x="124" y="229" type="curve" smooth="yes"/>
      <point x="124" y="397"/>
      <point x="193" y="498"/>
      <point x="291" y="498" type="curve" smooth="yes"/>
      <point x="343" y="498"/>
      <point x="376" y="466"/>
      <point x="376" y="406" type="curve" smooth="yes"/>
      <point x="376" y="375"/>
      <point x="368" y="353"/>
      <point x="354" y="338" type="curve" smooth="yes"/>
      <point x="335" y="318"/>
      <point x="312" y="310"/>
      <point x="255" y="310" type="curve" smooth="yes"/>
      <point x="247" y="310" type="line"/>
      <point x="247" y="244" type="line"/>
      <point x="255" y="244" type="line" smooth="yes"/>
      <point x="310" y="244"/>
      <point x="336" y="234"/>
      <point x="355" y="214" type="curve" smooth="yes"/>
      <point x="372" y="197"/>
      <point x="381" y="171"/>
      <point x="381" y="140" type="curve" smooth="yes"/>
      <point x="381" y="85"/>
      <point x="357" y="55"/>
      <point x="299" y="55" type="curve" smooth="yes"/>
      <point x="281" y="55"/>
      <point x="262" y="58"/>
      <point x="244" y="63" type="curve"/>
      <point x="227" y="-1" type="line"/>
      <point x="247" y="-7"/>
      <point x="278" y="-11"/>
      <point x="313" y="-11" type="curve" smooth="yes"/>
      <point x="408" y="-11"/>
      <point x="462" y="46"/>
      <point x="462" y="141" type="curve" smooth="yes"/>
      <point x="462" y="208"/>
      <point x="422" y="264"/>
      <point x="362" y="280" type="curve"/>
      <point x="364" y="275" type="line"/>
      <point x="432" y="303"/>
      <point x="457" y="349"/>
      <point x="457" y="413" type="curve" smooth="yes"/>
      <point x="457" y="501"/>
      <point x="401" y="566"/>
    </contour>
  </outline>
</glyph>
<glyph name="dhamlym" format="2">
  <advance width="693"/>
  <unicode hex="0D27"/>
  <outline>
    <contour>
      <point x="470" y="-12" type="curve"/>
      <point x="588" y="-12"/>
      <point x="657" y="93"/>
      <point x="657" y="253" type="curve" smooth="yes"/>
      <point x="657" y="402"/>
      <point x="609" y="490"/>
      <point x="551" y="562" type="curve"/>
      <point x="489" y="510" type="line"/>
      <point x="533" y="457"/>
      <point x="575" y="382"/>
      <point x="575" y="257" type="curve" smooth="yes"/>
      <point x="575" y="132"/>
      <point x="528" y="56"/>
      <point x="468" y="56" type="curve" smooth="yes"/>
      <point x="446" y="56"/>
      <point x="429" y="65"/>
      <point x="416" y="80" type="curve" smooth="yes"/>
      <point x="395" y="105"/>
      <point x="386" y="143"/>
      <point x="386" y="228" type="curve" smooth="yes"/>
      <point x="386" y="554" type="line"/>
      <point x="307" y="554" type="line"/>
      <point x="307" y="221" type="line" smooth="yes"/>
      <point x="307" y="143"/>
      <point x="297" y="102"/>
      <point x="276" y="79" type="curve" smooth="yes"/>
      <point x="262" y="63"/>
      <point x="244" y="56"/>
      <point x="222" y="56" type="curve" smooth="yes"/>
      <point x="160" y="56"/>
      <point x="118" y="139"/>
      <point x="118" y="253" type="curve" smooth="yes"/>
      <point x="118" y="381"/>
      <point x="161" y="457"/>
      <point x="205" y="510" type="curve"/>
      <point x="143" y="562" type="line"/>
      <point x="85" y="490"/>
      <point x="36" y="402"/>
      <point x="36" y="249" type="curve" smooth="yes"/>
      <point x="36" y="96"/>
      <point x="102" y="-12"/>
      <point x="220" y="-12" type="curve" smooth="yes"/>
      <point x="279" y="-12"/>
      <point x="317" y="13"/>
      <point x="352" y="75" type="curve"/>
      <point x="339" y="77" type="line"/>
      <point x="366" y="30"/>
      <point x="403" y="-12"/>
    </contour>
  </outline>
</glyph>
<glyph name="namlym" format="2">
  <advance width="693"/>
  <unicode hex="0D28"/>
  <outline>
    <contour>
      <point x="223" y="566" type="curve" smooth="yes"/>
      <point x="105" y="566"/>
      <point x="36" y="461"/>
      <point x="36" y="301" type="curve" smooth="yes"/>
      <point x="36" y="152"/>
      <point x="84" y="64"/>
      <point x="142" y="-8" type="curve"/>
      <point x="204" y="44" type="line"/>
      <point x="160" y="97"/>
      <point x="118" y="172"/>
      <point x="118" y="297" type="curve" smooth="yes"/>
      <point x="118" y="422"/>
      <point x="165" y="498"/>
      <point x="225" y="498" type="curve" smooth="yes"/>
      <point x="247" y="498"/>
      <point x="264" y="489"/>
      <point x="277" y="474" type="curve" smooth="yes"/>
      <point x="298" y="449"/>
      <point x="307" y="411"/>
      <point x="307" y="326" type="curve" smooth="yes"/>
      <point x="307" y="0" type="line"/>
      <point x="386" y="0" type="line"/>
      <point x="386" y="333" type="line" smooth="yes"/>
      <point x="386" y="411"/>
      <point x="396" y="452"/>
      <point x="417" y="475" type="curve" smooth="yes"/>
      <point x="431" y="491"/>
      <point x="449" y="498"/>
      <point x="471" y="498" type="curve" smooth="yes"/>
      <point x="533" y="498"/>
      <point x="575" y="415"/>
      <point x="575" y="301" type="curve" smooth="yes"/>
      <point x="575" y="173"/>
      <point x="532" y="97"/>
      <point x="488" y="44" type="curve"/>
      <point x="550" y="-8" type="line"/>
      <point x="608" y="64"/>
      <point x="657" y="152"/>
      <point x="657" y="305" type="curve" smooth="yes"/>
      <point x="657" y="458"/>
      <point x="591" y="566"/>
      <point x="473" y="566" type="curve" smooth="yes"/>
      <point x="414" y="566"/>
      <point x="376" y="541"/>
      <point x="341" y="479" type="curve"/>
      <point x="354" y="477" type="line"/>
      <point x="327" y="524"/>
      <point x="290" y="566"/>
    </contour>
  </outline>
</glyph>
<glyph name="pamlym" format="2">
  <advance width="682"/>
  <unicode hex="0D2A"/>
  <outline>
    <contour>
      <point x="183" y="346" type="curve" smooth="yes"/>
      <point x="92" y="346"/>
      <point x="31" y="280"/>
      <point x="31" y="173" type="curve" smooth="yes"/>
      <point x="31" y="98"/>
      <point x="63" y="39"/>
      <point x="101" y="-7" type="curve"/>
      <point x="157" y="37" type="line"/>
      <point x="127" y="79"/>
      <point x="108" y="117"/>
      <point x="108" y="174" type="curve" smooth="yes"/>
      <point x="108" y="238"/>
      <point x="137" y="280"/>
      <point x="184" y="280" type="curve" smooth="yes"/>
      <point x="232" y="280"/>
      <point x="258" y="238"/>
      <point x="258" y="170" type="curve" smooth="yes"/>
      <point x="258" y="116"/>
      <point x="240" y="81"/>
      <point x="221" y="52" type="curve"/>
      <point x="253" y="0" type="line"/>
      <point x="623" y="0" type="line"/>
      <point x="623" y="554" type="line"/>
      <point x="544" y="554" type="line"/>
      <point x="544" y="66" type="line"/>
      <point x="286" y="66" type="line"/>
      <point x="298" y="57" type="line"/>
      <point x="313" y="75"/>
      <point x="335" y="119"/>
      <point x="335" y="178" type="curve" smooth="yes"/>
      <point x="335" y="265"/>
      <point x="288" y="346"/>
    </contour>
  </outline>
</glyph>
<glyph name="bhamlym" format="2">
  <advance width="506"/>
  <unicode hex="0D2D"/>
  <outline>
    <contour>
      <point x="314" y="566" type="curve" smooth="yes"/>
      <point x="133" y="566"/>
      <point x="44" y="436"/>
      <point x="44" y="225" type="curve" smooth="yes"/>
      <point x="44" y="149"/>
      <point x="55" y="61"/>
      <point x="70" y="-4" type="curve"/>
      <point x="147" y="10" type="line"/>
      <point x="133" y="72"/>
      <point x="124" y="154"/>
      <point x="124" y="229" type="curve" smooth="yes"/>
      <point x="124" y="397"/>
      <point x="189" y="498"/>
      <point x="311" y="498" type="curve" smooth="yes"/>
      <point x="364" y="498"/>
      <point x="402" y="476"/>
      <point x="402" y="427" type="curve" smooth="yes"/>
      <point x="402" y="395"/>
      <point x="385" y="379"/>
      <point x="345" y="379" type="curve" smooth="yes"/>
      <point x="344" y="379" type="line"/>
      <point x="296" y="378"/>
      <point x="269" y="369"/>
      <point x="248" y="354" type="curve" smooth="yes"/>
      <point x="222" y="335"/>
      <point x="209" y="306"/>
      <point x="209" y="270" type="curve" smooth="yes"/>
      <point x="209" y="241"/>
      <point x="220" y="211"/>
      <point x="239" y="193" type="curve" smooth="yes"/>
      <point x="260" y="172"/>
      <point x="290" y="162"/>
      <point x="333" y="161" type="curve"/>
      <point x="336" y="161" type="line" smooth="yes"/>
      <point x="387" y="161"/>
      <point x="403" y="140"/>
      <point x="403" y="113" type="curve" smooth="yes"/>
      <point x="403" y="80"/>
      <point x="384" y="57"/>
      <point x="322" y="57" type="curve" smooth="yes"/>
      <point x="295" y="57"/>
      <point x="263" y="60"/>
      <point x="227" y="74" type="curve"/>
      <point x="199" y="8" type="line"/>
      <point x="240" y="-8"/>
      <point x="289" y="-12"/>
      <point x="321" y="-12" type="curve" smooth="yes"/>
      <point x="438" y="-12"/>
      <point x="478" y="43"/>
      <point x="478" y="115" type="curve" smooth="yes"/>
      <point x="478" y="149"/>
      <point x="466" y="177"/>
      <point x="446" y="196" type="curve" smooth="yes"/>
      <point x="425" y="216"/>
      <point x="392" y="227"/>
      <point x="351" y="227" type="curve"/>
      <point x="348" y="227" type="line" smooth="yes"/>
      <point x="302" y="227"/>
      <point x="283" y="240"/>
      <point x="283" y="271" type="curve" smooth="yes"/>
      <point x="283" y="285"/>
      <point x="289" y="295"/>
      <point x="297" y="301" type="curve" smooth="yes"/>
      <point x="307" y="309"/>
      <point x="325" y="313"/>
      <point x="347" y="313" type="curve" smooth="yes"/>
      <point x="349" y="313" type="line"/>
      <point x="391" y="314"/>
      <point x="421" y="320"/>
      <point x="443" y="338" type="curve" smooth="yes"/>
      <point x="464" y="355"/>
      <point x="478" y="383"/>
      <point x="478" y="425" type="curve" smooth="yes"/>
      <point x="478" y="517"/>
      <point x="409" y="566"/>
    </contour>
  </outline>
</glyph>
<glyph name="mamlym" format="2">
  <advance width="561"/>
  <unicode hex="0D2E"/>
  <outline>
    <contour>
      <point x="275" y="566" type="curve" smooth="yes"/>
      <point x="197" y="566"/>
      <point x="148" y="543"/>
      <point x="110" y="499" type="curve" smooth="yes"/>
      <point x="70" y="452"/>
      <point x="51" y="386"/>
      <point x="51" y="281" type="curve" smooth="yes"/>
      <point x="51" y="0" type="line"/>
      <point x="510" y="0" type="line"/>
      <point x="510" y="278" type="line" smooth="yes"/>
      <point x="510" y="387"/>
      <point x="492" y="451"/>
      <point x="450" y="499" type="curve" smooth="yes"/>
      <point x="412" y="543"/>
      <point x="355" y="566"/>
    </contour>
    <contour>
      <point x="233" y="499" type="curve" smooth="yes"/>
      <point x="270" y="499"/>
      <point x="283" y="464"/>
      <point x="283" y="408" type="curve" smooth="yes"/>
      <point x="283" y="292"/>
      <point x="222" y="163"/>
      <point x="129" y="62" type="curve"/>
      <point x="130" y="60" type="line"/>
      <point x="130" y="260" type="line" smooth="yes"/>
      <point x="130" y="339"/>
      <point x="137" y="387"/>
      <point x="152" y="425" type="curve" smooth="yes"/>
      <point x="169" y="471"/>
      <point x="199" y="499"/>
    </contour>
    <contour>
      <point x="363" y="397" type="curve" smooth="yes"/>
      <point x="363" y="441"/>
      <point x="349" y="477"/>
      <point x="325" y="505" type="curve"/>
      <point x="325" y="499" type="line"/>
      <point x="400" y="476"/>
      <point x="431" y="411"/>
      <point x="431" y="279" type="curve" smooth="yes"/>
      <point x="431" y="66" type="line"/>
      <point x="290" y="66" type="line" smooth="yes"/>
      <point x="268" y="66"/>
      <point x="222" y="64"/>
      <point x="195" y="61" type="curve"/>
      <point x="208" y="45" type="line"/>
      <point x="302" y="159"/>
      <point x="363" y="268"/>
    </contour>
  </outline>
</glyph>
<glyph name="yamlym" format="2">
  <advance width="800"/>
  <unicode hex="0D2F"/>
  <outline>
    <contour>
      <point x="514" y="-12" type="curve" smooth="yes"/>
      <point x="688" y="-12"/>
      <point x="761" y="115"/>
      <point x="761" y="308" type="curve" smooth="yes"/>
      <point x="761" y="394"/>
      <point x="735" y="492"/>
      <point x="693" y="565" type="curve"/>
      <point x="619" y="531" type="line"/>
      <point x="659" y="461"/>
      <point x="680" y="378"/>
      <point x="680" y="298" type="curve" smooth="yes"/>
      <point x="680" y="151"/>
      <point x="631" y="53"/>
      <point x="511" y="53" type="curve" smooth="yes"/>
      <point x="483" y="53"/>
      <point x="457" y="60"/>
      <point x="437" y="72" type="curve" smooth="yes"/>
      <point x="430" y="76"/>
      <point x="423" y="80"/>
      <point x="416" y="86" type="curve" smooth="yes"/>
      <point x="351" y="142"/>
      <point x="327" y="261"/>
      <point x="327" y="346" type="curve" smooth="yes"/>
      <point x="327" y="448"/>
      <point x="357" y="500"/>
      <point x="408" y="500" type="curve" smooth="yes"/>
      <point x="449" y="500"/>
      <point x="488" y="464"/>
      <point x="488" y="344" type="curve" smooth="yes"/>
      <point x="488" y="245"/>
      <point x="460" y="136"/>
      <point x="394" y="82" type="curve" smooth="yes"/>
      <point x="387" y="77"/>
      <point x="379" y="72"/>
      <point x="371" y="68" type="curve" smooth="yes"/>
      <point x="349" y="56"/>
      <point x="326" y="53"/>
      <point x="292" y="53" type="curve" smooth="yes"/>
      <point x="184" y="53"/>
      <point x="117" y="157"/>
      <point x="117" y="327" type="curve" smooth="yes"/>
      <point x="117" y="446"/>
      <point x="158" y="499"/>
      <point x="215" y="499" type="curve" smooth="yes"/>
      <point x="242" y="499"/>
      <point x="265" y="488"/>
      <point x="288" y="455" type="curve"/>
      <point x="346" y="499" type="line"/>
      <point x="299" y="546"/>
      <point x="265" y="566"/>
      <point x="209" y="566" type="curve" smooth="yes"/>
      <point x="102" y="566"/>
      <point x="36" y="477"/>
      <point x="36" y="328" type="curve" smooth="yes"/>
      <point x="36" y="129"/>
      <point x="126" y="-12"/>
      <point x="290" y="-12" type="curve" smooth="yes"/>
      <point x="342" y="-12"/>
      <point x="387" y="-1"/>
      <point x="424" y="23" type="curve" smooth="yes"/>
      <point x="431" y="28"/>
      <point x="442" y="37"/>
      <point x="448" y="42" type="curve" smooth="yes"/>
      <point x="525" y="110"/>
      <point x="569" y="213"/>
      <point x="569" y="346" type="curve" smooth="yes"/>
      <point x="569" y="489"/>
      <point x="509" y="566"/>
      <point x="409" y="566" type="curve" smooth="yes"/>
      <point x="355" y="566"/>
      <point x="318" y="543"/>
      <point x="292" y="507" type="curve"/>
      <point x="279" y="490" type="line"/>
      <point x="257" y="449"/>
      <point x="246" y="396"/>
      <point x="246" y="351" type="curve" smooth="yes"/>
      <point x="246" y="226"/>
      <point x="284" y="118"/>
      <point x="358" y="48" type="curve" smooth="yes"/>
      <point x="366" y="41"/>
      <point x="373" y="31"/>
      <point x="382" y="25" type="curve" smooth="yes"/>
      <point x="419" y="0"/>
      <point x="464" y="-12"/>
    </contour>
  </outline>
</glyph>
<glyph name="ramlym" format="2">
  <advance width="568"/>
  <unicode hex="0D30"/>
  <outline>
    <contour>
      <point x="278" y="566" type="curve" smooth="yes"/>
      <point x="116" y="566"/>
      <point x="36" y="440"/>
      <point x="36" y="288" type="curve" smooth="yes"/>
      <point x="36" y="148"/>
      <point x="88" y="50"/>
      <point x="150" y="-8" type="curve"/>
      <point x="206" y="47" type="line"/>
      <point x="154" y="97"/>
      <point x="118" y="168"/>
      <point x="118" y="281" type="curve" smooth="yes"/>
      <point x="118" y="414"/>
      <point x="178" y="498"/>
      <point x="283" y="498" type="curve" smooth="yes"/>
      <point x="381" y="498"/>
      <point x="437" y="420"/>
      <point x="449" y="335" type="curve"/>
      <point x="452" y="330"/>
      <point x="449" y="317"/>
      <point x="451" y="310" type="curve"/>
      <point x="454" y="283"/>
      <point x="456" y="251"/>
      <point x="456" y="248" type="curve" smooth="yes"/>
      <point x="456" y="107"/>
      <point x="425" y="53"/>
      <point x="373" y="53" type="curve" smooth="yes"/>
      <point x="324" y="53"/>
      <point x="302" y="106"/>
      <point x="302" y="198" type="curve" smooth="yes"/>
      <point x="302" y="284"/>
      <point x="326" y="337"/>
      <point x="381" y="337" type="curve" smooth="yes"/>
      <point x="433" y="337"/>
      <point x="465" y="282"/>
      <point x="477" y="249" type="curve"/>
      <point x="504" y="266" type="line"/>
      <point x="465" y="358"/>
      <point x="433" y="402"/>
      <point x="363" y="402" type="curve" smooth="yes"/>
      <point x="276" y="402"/>
      <point x="224" y="331"/>
      <point x="224" y="199" type="curve" smooth="yes"/>
      <point x="224" y="78"/>
      <point x="270" y="-12"/>
      <point x="372" y="-12" type="curve" smooth="yes"/>
      <point x="466" y="-12"/>
      <point x="532" y="51"/>
      <point x="532" y="242" type="curve" smooth="yes"/>
      <point x="532" y="436"/>
      <point x="448" y="566"/>
    </contour>
  </outline>
</glyph>
<glyph name="rramlym" format="2">
  <advance width="519"/>
  <unicode hex="0D31"/>
  <outline>
    <contour>
      <point x="262" y="566" type="curve" smooth="yes"/>
      <point x="111" y="566"/>
      <point x="36" y="446"/>
      <point x="36" y="288" type="curve" smooth="yes"/>
      <point x="36" y="148"/>
      <point x="87" y="48"/>
      <point x="150" y="-8" type="curve"/>
      <point x="206" y="47" type="line"/>
      <point x="154" y="97"/>
      <point x="118" y="173"/>
      <point x="118" y="282" type="curve" smooth="yes"/>
      <point x="118" y="417"/>
      <point x="175" y="498"/>
      <point x="261" y="498" type="curve" smooth="yes"/>
      <point x="346" y="498"/>
      <point x="401" y="422"/>
      <point x="401" y="281" type="curve" smooth="yes"/>
      <point x="401" y="163"/>
      <point x="359" y="90"/>
      <point x="313" y="47" type="curve"/>
      <point x="369" y="-8" type="line"/>
      <point x="436" y="59"/>
      <point x="483" y="144"/>
      <point x="483" y="289" type="curve" smooth="yes"/>
      <point x="483" y="446"/>
      <point x="414" y="566"/>
    </contour>
  </outline>
</glyph>
<glyph name="lamlym" format="2">
  <advance width="658"/>
  <unicode hex="0D32"/>
  <outline>
    <contour>
      <point x="599" y="554" type="line"/>
      <point x="520" y="554" type="line"/>
      <point x="520" y="66" type="line"/>
      <point x="134" y="66" type="line"/>
      <point x="134" y="224" type="line"/>
      <point x="416" y="224" type="line"/>
      <point x="416" y="341" type="line" smooth="yes"/>
      <point x="416" y="422"/>
      <point x="403" y="473"/>
      <point x="370" y="512" type="curve" smooth="yes"/>
      <point x="341" y="548"/>
      <point x="296" y="566"/>
      <point x="236" y="566" type="curve" smooth="yes"/>
      <point x="176" y="566"/>
      <point x="132" y="546"/>
      <point x="101" y="508" type="curve" smooth="yes"/>
      <point x="72" y="472"/>
      <point x="55" y="426"/>
      <point x="55" y="331" type="curve" smooth="yes"/>
      <point x="55" y="0" type="line"/>
      <point x="599" y="0" type="line"/>
    </contour>
    <contour>
      <point x="235" y="500" type="curve" smooth="yes"/>
      <point x="305" y="500"/>
      <point x="337" y="450"/>
      <point x="337" y="331" type="curve" smooth="yes"/>
      <point x="337" y="290" type="line"/>
      <point x="134" y="290" type="line"/>
      <point x="134" y="330" type="line" smooth="yes"/>
      <point x="134" y="447"/>
      <point x="164" y="500"/>
    </contour>
  </outline>
</glyph>
<glyph name="llamlym" format="2">
  <advance width="557"/>
  <unicode hex="0D33"/>
  <outline>
    <contour>
      <point x="307" y="500" type="curve" smooth="yes"/>
      <point x="397" y="500"/>
      <point x="438" y="459"/>
      <point x="438" y="398" type="curve" smooth="yes"/>
      <point x="438" y="371"/>
      <point x="431" y="351"/>
      <point x="417" y="337" type="curve" smooth="yes"/>
      <point x="397" y="317"/>
      <point x="368" y="310"/>
      <point x="342" y="310" type="curve" smooth="yes"/>
      <point x="336" y="310" type="line"/>
      <point x="336" y="291" type="line"/>
      <point x="392" y="265" type="line"/>
      <point x="475" y="284"/>
      <point x="519" y="330"/>
      <point x="519" y="402" type="curve" smooth="yes"/>
      <point x="519" y="505"/>
      <point x="444" y="566"/>
      <point x="312" y="566" type="curve" smooth="yes"/>
      <point x="129" y="566"/>
      <point x="34" y="458"/>
      <point x="34" y="306" type="curve" smooth="yes"/>
      <point x="34" y="176"/>
      <point x="87" y="116"/>
      <point x="164" y="116" type="curve" smooth="yes"/>
      <point x="251" y="116"/>
      <point x="291" y="177"/>
      <point x="291" y="267" type="curve" smooth="yes"/>
      <point x="291" y="351"/>
      <point x="256" y="416"/>
      <point x="175" y="416" type="curve" smooth="yes"/>
      <point x="123" y="416"/>
      <point x="83" y="379"/>
      <point x="52" y="341" type="curve"/>
      <point x="77" y="298" type="line"/>
      <point x="98" y="325"/>
      <point x="121" y="352"/>
      <point x="159" y="352" type="curve" smooth="yes"/>
      <point x="199" y="352"/>
      <point x="213" y="319"/>
      <point x="213" y="266" type="curve" smooth="yes"/>
      <point x="213" y="218"/>
      <point x="199" y="180"/>
      <point x="165" y="180" type="curve" smooth="yes"/>
      <point x="121" y="180"/>
      <point x="103" y="222"/>
      <point x="103" y="306" type="curve" smooth="yes"/>
      <point x="103" y="320"/>
      <point x="105" y="337"/>
      <point x="107" y="347" type="curve"/>
      <point x="107" y="356"/>
      <point x="105" y="365"/>
      <point x="106" y="372" type="curve"/>
      <point x="135" y="448"/>
      <point x="204" y="500"/>
    </contour>
    <contour>
      <point x="524" y="152" type="curve" smooth="yes"/>
      <point x="524" y="225"/>
      <point x="471" y="278"/>
      <point x="394" y="289" type="curve"/>
      <point x="336" y="295" type="line"/>
      <point x="336" y="244" type="line"/>
      <point x="338" y="244" type="line" smooth="yes"/>
      <point x="374" y="244"/>
      <point x="397" y="236"/>
      <point x="415" y="221" type="curve" smooth="yes"/>
      <point x="433" y="206"/>
      <point x="443" y="184"/>
      <point x="443" y="154" type="curve" smooth="yes"/>
      <point x="443" y="123"/>
      <point x="434" y="102"/>
      <point x="418" y="88" type="curve" smooth="yes"/>
      <point x="399" y="72"/>
      <point x="372" y="66"/>
      <point x="325" y="66" type="curve" smooth="yes"/>
      <point x="228" y="66" type="line" smooth="yes"/>
      <point x="157" y="66"/>
      <point x="120" y="56"/>
      <point x="92" y="37" type="curve" smooth="yes"/>
      <point x="57" y="14"/>
      <point x="40" y="-23"/>
      <point x="40" y="-69" type="curve" smooth="yes"/>
      <point x="40" y="-116"/>
      <point x="61" y="-150"/>
      <point x="94" y="-171" type="curve" smooth="yes"/>
      <point x="129" y="-193"/>
      <point x="175" y="-201"/>
      <point x="240" y="-201" type="curve" smooth="yes"/>
      <point x="499" y="-201" type="line"/>
      <point x="499" y="-133" type="line"/>
      <point x="244" y="-133" type="line" smooth="yes"/>
      <point x="193" y="-133"/>
      <point x="163" y="-127"/>
      <point x="144" y="-114" type="curve" smooth="yes"/>
      <point x="129" y="-103"/>
      <point x="120" y="-87"/>
      <point x="120" y="-64" type="curve" smooth="yes"/>
      <point x="120" y="-40"/>
      <point x="131" y="-22"/>
      <point x="152" y="-12" type="curve" smooth="yes"/>
      <point x="170" y="-3"/>
      <point x="189" y="0"/>
      <point x="241" y="0" type="curve"/>
      <point x="335" y="0" type="line" smooth="yes"/>
      <point x="410" y="0"/>
      <point x="444" y="12"/>
      <point x="474" y="35" type="curve" smooth="yes"/>
      <point x="506" y="61"/>
      <point x="524" y="100"/>
    </contour>
  </outline>
</glyph>
<glyph name="lllamlym" format="2">
  <advance width="513"/>
  <unicode hex="0D34"/>
  <outline>
    <contour>
      <point x="201" y="419" type="curve" smooth="yes"/>
      <point x="201" y="304"/>
      <point x="272" y="223"/>
      <point x="272" y="127" type="curve" smooth="yes"/>
      <point x="272" y="89"/>
      <point x="260" y="55"/>
      <point x="209" y="55" type="curve" smooth="yes"/>
      <point x="175" y="55"/>
      <point x="147" y="61"/>
      <point x="118" y="75" type="curve"/>
      <point x="90" y="12" type="line"/>
      <point x="129" y="-5"/>
      <point x="171" y="-12"/>
      <point x="217" y="-12" type="curve" smooth="yes"/>
      <point x="317" y="-12"/>
      <point x="348" y="61"/>
      <point x="348" y="122" type="curve" smooth="yes"/>
      <point x="348" y="228"/>
      <point x="278" y="298"/>
      <point x="278" y="414" type="curve" smooth="yes"/>
      <point x="278" y="463"/>
      <point x="299" y="501"/>
      <point x="340" y="501" type="curve" smooth="yes"/>
      <point x="383" y="501"/>
      <point x="400" y="453"/>
      <point x="400" y="399" type="curve" smooth="yes"/>
      <point x="400" y="287"/>
      <point x="355" y="217"/>
      <point x="274" y="217" type="curve" smooth="yes"/>
      <point x="262" y="217" type="line" smooth="yes"/>
      <point x="171" y="217"/>
      <point x="113" y="277"/>
      <point x="113" y="394" type="curve" smooth="yes"/>
      <point x="113" y="442"/>
      <point x="123" y="483"/>
      <point x="147" y="530" type="curve"/>
      <point x="83" y="565" type="line"/>
      <point x="48" y="508"/>
      <point x="34" y="454"/>
      <point x="34" y="393" type="curve" smooth="yes"/>
      <point x="34" y="256"/>
      <point x="109" y="152"/>
      <point x="262" y="152" type="curve" smooth="yes"/>
      <point x="276" y="152" type="line" smooth="yes"/>
      <point x="401" y="152"/>
      <point x="479" y="255"/>
      <point x="479" y="400" type="curve" smooth="yes"/>
      <point x="479" y="484"/>
      <point x="437" y="566"/>
      <point x="338" y="566" type="curve" smooth="yes"/>
      <point x="254" y="566"/>
      <point x="201" y="507"/>
    </contour>
  </outline>
</glyph>
<glyph name="shamlym" format="2">
  <advance width="793"/>
  <unicode hex="0D36"/>
  <outline>
    <contour>
      <point x="513" y="566" type="curve" smooth="yes"/>
      <point x="443" y="566"/>
      <point x="390" y="542"/>
      <point x="359" y="510" type="curve" smooth="yes"/>
      <point x="308" y="457"/>
      <point x="300" y="389"/>
      <point x="300" y="303" type="curve" smooth="yes"/>
      <point x="300" y="237" type="line" smooth="yes"/>
      <point x="300" y="150"/>
      <point x="296" y="109"/>
      <point x="276" y="81" type="curve" smooth="yes"/>
      <point x="264" y="65"/>
      <point x="246" y="56"/>
      <point x="219" y="56" type="curve" smooth="yes"/>
      <point x="158" y="56"/>
      <point x="118" y="130"/>
      <point x="118" y="253" type="curve" smooth="yes"/>
      <point x="118" y="381"/>
      <point x="161" y="461"/>
      <point x="205" y="514" type="curve"/>
      <point x="143" y="566" type="line"/>
      <point x="85" y="494"/>
      <point x="36" y="402"/>
      <point x="36" y="249" type="curve" smooth="yes"/>
      <point x="36" y="81"/>
      <point x="104" y="-12"/>
      <point x="218" y="-12" type="curve" smooth="yes"/>
      <point x="271" y="-12"/>
      <point x="307" y="3"/>
      <point x="335" y="31" type="curve" smooth="yes"/>
      <point x="372" y="68"/>
      <point x="382" y="119"/>
      <point x="382" y="194" type="curve"/>
      <point x="382" y="254" type="line" smooth="yes"/>
      <point x="382" y="371"/>
      <point x="387" y="433"/>
      <point x="428" y="470" type="curve" smooth="yes"/>
      <point x="448" y="488"/>
      <point x="474" y="498"/>
      <point x="512" y="498" type="curve" smooth="yes"/>
      <point x="606" y="498"/>
      <point x="659" y="427"/>
      <point x="674" y="335" type="curve"/>
      <point x="677" y="330"/>
      <point x="674" y="317"/>
      <point x="676" y="310" type="curve"/>
      <point x="679" y="283"/>
      <point x="681" y="251"/>
      <point x="681" y="248" type="curve" smooth="yes"/>
      <point x="681" y="107"/>
      <point x="650" y="53"/>
      <point x="598" y="53" type="curve" smooth="yes"/>
      <point x="549" y="53"/>
      <point x="527" y="106"/>
      <point x="527" y="198" type="curve" smooth="yes"/>
      <point x="527" y="284"/>
      <point x="551" y="337"/>
      <point x="606" y="337" type="curve" smooth="yes"/>
      <point x="658" y="337"/>
      <point x="690" y="282"/>
      <point x="702" y="249" type="curve"/>
      <point x="729" y="266" type="line"/>
      <point x="690" y="358"/>
      <point x="658" y="402"/>
      <point x="588" y="402" type="curve" smooth="yes"/>
      <point x="501" y="402"/>
      <point x="449" y="331"/>
      <point x="449" y="199" type="curve" smooth="yes"/>
      <point x="449" y="78"/>
      <point x="495" y="-12"/>
      <point x="597" y="-12" type="curve" smooth="yes"/>
      <point x="691" y="-12"/>
      <point x="757" y="51"/>
      <point x="757" y="242" type="curve" smooth="yes"/>
      <point x="757" y="436"/>
      <point x="673" y="566"/>
    </contour>
  </outline>
</glyph>
<glyph name="ssamlym" format="2">
  <advance width="884"/>
  <unicode hex="0D37"/>
  <outline>
    <contour>
      <point x="183" y="346" type="curve" smooth="yes"/>
      <point x="92" y="346"/>
      <point x="31" y="280"/>
      <point x="31" y="174" type="curve" smooth="yes"/>
      <point x="31" y="98"/>
      <point x="63" y="39"/>
      <point x="101" y="-7" type="curve"/>
      <point x="157" y="37" type="line"/>
      <point x="127" y="79"/>
      <point x="108" y="117"/>
      <point x="108" y="174" type="curve" smooth="yes"/>
      <point x="108" y="238"/>
      <point x="137" y="280"/>
      <point x="184" y="280" type="curve" smooth="yes"/>
      <point x="232" y="280"/>
      <point x="258" y="238"/>
      <point x="258" y="168" type="curve" smooth="yes"/>
      <point x="258" y="116"/>
      <point x="241" y="81"/>
      <point x="222" y="52" type="curve"/>
      <point x="253" y="0" type="line"/>
      <point x="538" y="0" type="line"/>
      <point x="525" y="66" type="line"/>
      <point x="284" y="66" type="line"/>
      <point x="298" y="57" type="line"/>
      <point x="313" y="75"/>
      <point x="335" y="119"/>
      <point x="335" y="178" type="curve" smooth="yes"/>
      <point x="335" y="265"/>
      <point x="287" y="346"/>
    </contour>
    <contour>
      <point x="502" y="0" type="line"/>
      <point x="825" y="0" type="line"/>
      <point x="825" y="554" type="line"/>
      <point x="751" y="554" type="line"/>
      <point x="694" y="400"/>
      <point x="640" y="302"/>
      <point x="544" y="302" type="curve" smooth="yes"/>
      <point x="501" y="302" type="line" smooth="yes"/>
      <point x="431" y="302"/>
      <point x="412" y="348"/>
      <point x="412" y="411" type="curve" smooth="yes"/>
      <point x="412" y="466"/>
      <point x="430" y="500"/>
      <point x="462" y="500" type="curve" smooth="yes"/>
      <point x="473" y="500"/>
      <point x="481" y="495"/>
      <point x="487" y="487" type="curve" smooth="yes"/>
      <point x="498" y="472"/>
      <point x="502" y="443"/>
      <point x="502" y="403" type="curve" smooth="yes"/>
    </contour>
    <contour>
      <point x="465" y="566" type="curve" smooth="yes"/>
      <point x="376" y="566"/>
      <point x="336" y="488"/>
      <point x="336" y="412" type="curve" smooth="yes"/>
      <point x="336" y="312"/>
      <point x="388" y="237"/>
      <point x="511" y="237" type="curve" smooth="yes"/>
      <point x="546" y="237" type="line" smooth="yes"/>
      <point x="625" y="237"/>
      <point x="709" y="288"/>
      <point x="755" y="430" type="curve"/>
      <point x="754" y="434" type="line"/>
      <point x="751" y="412"/>
      <point x="747" y="362"/>
      <point x="747" y="300" type="curve" smooth="yes"/>
      <point x="747" y="66" type="line"/>
      <point x="580" y="66" type="line"/>
      <point x="580" y="406" type="line" smooth="yes"/>
      <point x="580" y="467"/>
      <point x="572" y="503"/>
      <point x="549" y="531" type="curve" smooth="yes"/>
      <point x="531" y="553"/>
      <point x="503" y="566"/>
    </contour>
  </outline>
</glyph>
<glyph name="samlym" format="2">
  <advance width="926"/>
  <unicode hex="0D38"/>
  <outline>
    <contour>
      <point x="475" y="566" type="curve" smooth="yes"/>
      <point x="406" y="566"/>
      <point x="368" y="533"/>
      <point x="341" y="480" type="curve"/>
      <point x="352" y="479" type="line"/>
      <point x="317" y="541"/>
      <point x="279" y="566"/>
      <point x="220" y="566" type="curve" smooth="yes"/>
      <point x="102" y="566"/>
      <point x="36" y="458"/>
      <point x="36" y="305" type="curve" smooth="yes"/>
      <point x="36" y="152"/>
      <point x="85" y="64"/>
      <point x="143" y="-8" type="curve"/>
      <point x="205" y="44" type="line"/>
      <point x="161" y="97"/>
      <point x="118" y="175"/>
      <point x="118" y="301" type="curve" smooth="yes"/>
      <point x="118" y="415"/>
      <point x="160" y="498"/>
      <point x="222" y="498" type="curve" smooth="yes"/>
      <point x="244" y="498"/>
      <point x="262" y="491"/>
      <point x="276" y="475" type="curve" smooth="yes"/>
      <point x="297" y="452"/>
      <point x="307" y="411"/>
      <point x="307" y="333" type="curve" smooth="yes"/>
      <point x="307" y="0" type="line"/>
      <point x="386" y="0" type="line"/>
      <point x="386" y="331" type="line" smooth="yes"/>
      <point x="386" y="406"/>
      <point x="390" y="441"/>
      <point x="406" y="467" type="curve" smooth="yes"/>
      <point x="418" y="487"/>
      <point x="438" y="498"/>
      <point x="465" y="498" type="curve" smooth="yes"/>
      <point x="492" y="498"/>
      <point x="510" y="489"/>
      <point x="522" y="474" type="curve" smooth="yes"/>
      <point x="542" y="448"/>
      <point x="546" y="409"/>
      <point x="546" y="352" type="curve" smooth="yes"/>
      <point x="546" y="194" type="line" smooth="yes"/>
      <point x="546" y="119"/>
      <point x="554" y="68"/>
      <point x="591" y="31" type="curve" smooth="yes"/>
      <point x="619" y="3"/>
      <point x="655" y="-12"/>
      <point x="708" y="-12" type="curve" smooth="yes"/>
      <point x="819" y="-12"/>
      <point x="890" y="81"/>
      <point x="890" y="249" type="curve" smooth="yes"/>
      <point x="890" y="402"/>
      <point x="841" y="494"/>
      <point x="783" y="566" type="curve"/>
      <point x="721" y="514" type="line"/>
      <point x="765" y="461"/>
      <point x="808" y="381"/>
      <point x="808" y="253" type="curve" smooth="yes"/>
      <point x="808" y="130"/>
      <point x="768" y="56"/>
      <point x="707" y="56" type="curve" smooth="yes"/>
      <point x="677" y="56"/>
      <point x="661" y="65"/>
      <point x="649" y="81" type="curve" smooth="yes"/>
      <point x="629" y="109"/>
      <point x="625" y="150"/>
      <point x="625" y="237" type="curve" smooth="yes"/>
      <point x="625" y="360" type="line" smooth="yes"/>
      <point x="625" y="453"/>
      <point x="611" y="493"/>
      <point x="578" y="527" type="curve" smooth="yes"/>
      <point x="553" y="552"/>
      <point x="518" y="566"/>
    </contour>
  </outline>
</glyph>
<glyph name="hamlym" format="2">
  <advance width="905"/>
  <unicode hex="0D39"/>
  <outline>
    <contour>
      <point x="183" y="346" type="curve" smooth="yes"/>
      <point x="92" y="346"/>
      <point x="31" y="280"/>
      <point x="31" y="174" type="curve" smooth="yes"/>
      <point x="31" y="98"/>
      <point x="63" y="39"/>
      <point x="101" y="-7" type="curve"/>
      <point x="157" y="37" type="line"/>
      <point x="127" y="79"/>
      <point x="108" y="117"/>
      <point x="108" y="174" type="curve" smooth="yes"/>
      <point x="108" y="238"/>
      <point x="137" y="280"/>
      <point x="184" y="280" type="curve" smooth="yes"/>
      <point x="232" y="280"/>
      <point x="258" y="238"/>
      <point x="258" y="168" type="curve" smooth="yes"/>
      <point x="258" y="116"/>
      <point x="241" y="81"/>
      <point x="222" y="52" type="curve"/>
      <point x="253" y="0" type="line"/>
      <point x="538" y="0" type="line"/>
      <point x="525" y="66" type="line"/>
      <point x="284" y="66" type="line"/>
      <point x="298" y="57" type="line"/>
      <point x="313" y="75"/>
      <point x="335" y="119"/>
      <point x="335" y="178" type="curve" smooth="yes"/>
      <point x="335" y="265"/>
      <point x="287" y="346"/>
    </contour>
    <contour>
      <point x="648" y="566" type="curve" smooth="yes"/>
      <point x="497" y="566"/>
      <point x="422" y="446"/>
      <point x="422" y="288" type="curve" smooth="yes"/>
      <point x="422" y="191"/>
      <point x="452" y="109"/>
      <point x="495" y="54" type="curve"/>
      <point x="524" y="0" type="line"/>
      <point x="543" y="0" type="line"/>
      <point x="583" y="55" type="line"/>
      <point x="534" y="108"/>
      <point x="504" y="184"/>
      <point x="504" y="282" type="curve" smooth="yes"/>
      <point x="504" y="417"/>
      <point x="561" y="498"/>
      <point x="647" y="498" type="curve" smooth="yes"/>
      <point x="732" y="498"/>
      <point x="787" y="422"/>
      <point x="787" y="281" type="curve" smooth="yes"/>
      <point x="787" y="161"/>
      <point x="745" y="90"/>
      <point x="699" y="47" type="curve"/>
      <point x="755" y="-8" type="line"/>
      <point x="822" y="59"/>
      <point x="869" y="144"/>
      <point x="869" y="289" type="curve" smooth="yes"/>
      <point x="869" y="446"/>
      <point x="800" y="566"/>
    </contour>
  </outline>
</glyph>
<glyph name="tttamlym" format="2">
  <advance width="576"/>
  <unicode hex="0D3A"/>
  <outline>
    <contour>
      <point x="560" y="66" type="line"/>
      <point x="109" y="66" type="line"/>
      <point x="287" y="535" type="line"/>
      <point x="212" y="559" type="line"/>
      <point x="19" y="51" type="line"/>
      <point x="63" y="0" type="line"/>
      <point x="280" y="0" type="line"/>
      <point x="280" y="-202" type="line"/>
      <point x="359" y="-202" type="line"/>
      <point x="359" y="0" type="line"/>
      <point x="560" y="0" type="line"/>
    </contour>
  </outline>
</glyph>
<glyph name="avagrahamlym" format="2">
  <advance width="369"/>
  <unicode hex="0D3D"/>
  <outline>
    <contour>
      <point x="288" y="792" type="curve" smooth="yes"/>
      <point x="247" y="792"/>
      <point x="218" y="783"/>
      <point x="194" y="762" type="curve" smooth="yes"/>
      <point x="159" y="732"/>
      <point x="144" y="688"/>
      <point x="144" y="590" type="curve" smooth="yes"/>
      <point x="144" y="-48" type="line" smooth="yes"/>
      <point x="144" y="-111"/>
      <point x="138" y="-143"/>
      <point x="123" y="-161" type="curve" smooth="yes"/>
      <point x="114" y="-172"/>
      <point x="102" y="-178"/>
      <point x="84" y="-178" type="curve" smooth="yes"/>
      <point x="49" y="-178"/>
      <point x="34" y="-138"/>
      <point x="24" y="-86" type="curve"/>
      <point x="-54" y="-102" type="line"/>
      <point x="-38" y="-186"/>
      <point x="3" y="-244"/>
      <point x="80" y="-244" type="curve" smooth="yes"/>
      <point x="122" y="-244"/>
      <point x="151" y="-235"/>
      <point x="175" y="-214" type="curve" smooth="yes"/>
      <point x="209" y="-185"/>
      <point x="225" y="-140"/>
      <point x="225" y="-42" type="curve" smooth="yes"/>
      <point x="225" y="596" type="line" smooth="yes"/>
      <point x="225" y="659"/>
      <point x="231" y="691"/>
      <point x="246" y="709" type="curve" smooth="yes"/>
      <point x="255" y="720"/>
      <point x="267" y="726"/>
      <point x="285" y="726" type="curve" smooth="yes"/>
      <point x="320" y="726"/>
      <point x="335" y="686"/>
      <point x="345" y="634" type="curve"/>
      <point x="423" y="650" type="line"/>
      <point x="407" y="734"/>
      <point x="366" y="792"/>
    </contour>
  </outline>
</glyph>
<glyph name="aavowelsignmlym" format="2">
  <advance width="395"/>
  <unicode hex="0D3E"/>
  <outline>
    <contour>
      <point x="357" y="279" type="curve" smooth="yes"/>
      <point x="357" y="448"/>
      <point x="316" y="566"/>
      <point x="193" y="566" type="curve" smooth="yes"/>
      <point x="79" y="566"/>
      <point x="37" y="477"/>
      <point x="17" y="386" type="curve"/>
      <point x="96" y="370" type="line"/>
      <point x="107" y="434"/>
      <point x="132" y="500"/>
      <point x="185" y="500" type="curve" smooth="yes"/>
      <point x="248" y="500"/>
      <point x="276" y="422"/>
      <point x="276" y="278" type="curve" smooth="yes"/>
      <point x="276" y="131"/>
      <point x="250" y="54"/>
      <point x="182" y="54" type="curve" smooth="yes"/>
      <point x="124" y="54"/>
      <point x="104" y="131"/>
      <point x="94" y="186" type="curve"/>
      <point x="14" y="170" type="line"/>
      <point x="28" y="81"/>
      <point x="71" y="-12"/>
      <point x="187" y="-12" type="curve" smooth="yes"/>
      <point x="317" y="-12"/>
      <point x="357" y="105"/>
    </contour>
  </outline>
</glyph>
<glyph name="ivowelsignmlym" format="2">
  <advance width="197"/>
  <unicode hex="0D3F"/>
  <outline>
    <contour>
      <point x="-22" y="843" type="curve" smooth="yes"/>
      <point x="-102" y="843"/>
      <point x="-174" y="788"/>
      <point x="-174" y="688" type="curve" smooth="yes"/>
      <point x="-174" y="664"/>
      <point x="-171" y="641"/>
      <point x="-167" y="626" type="curve"/>
      <point x="-90" y="638" type="line"/>
      <point x="-93" y="651"/>
      <point x="-95" y="672"/>
      <point x="-95" y="687" type="curve" smooth="yes"/>
      <point x="-95" y="752"/>
      <point x="-57" y="777"/>
      <point x="-22" y="777" type="curve" smooth="yes"/>
      <point x="0" y="777"/>
      <point x="17" y="770"/>
      <point x="29" y="755" type="curve" smooth="yes"/>
      <point x="53" y="726"/>
      <point x="59" y="673"/>
      <point x="59" y="561" type="curve" smooth="yes"/>
      <point x="59" y="0" type="line"/>
      <point x="138" y="0" type="line"/>
      <point x="138" y="606" type="line" smooth="yes"/>
      <point x="138" y="705"/>
      <point x="125" y="764"/>
      <point x="87" y="802" type="curve" smooth="yes"/>
      <point x="60" y="829"/>
      <point x="21" y="843"/>
    </contour>
  </outline>
</glyph>
<glyph name="iivowelsignmlym" format="2">
  <advance width="197"/>
  <unicode hex="0D40"/>
  <outline>
    <contour>
      <point x="-69" y="843" type="curve" smooth="yes"/>
      <point x="-161" y="843"/>
      <point x="-218" y="786"/>
      <point x="-218" y="708" type="curve" smooth="yes"/>
      <point x="-218" y="619"/>
      <point x="-169" y="578"/>
      <point x="-106" y="578" type="curve" smooth="yes"/>
      <point x="-28" y="578"/>
      <point x="4" y="631"/>
      <point x="4" y="701" type="curve" smooth="yes"/>
      <point x="4" y="738"/>
      <point x="-9" y="767"/>
      <point x="-21" y="781" type="curve"/>
      <point x="-89" y="790" type="line"/>
      <point x="-67" y="770"/>
      <point x="-56" y="736"/>
      <point x="-56" y="703" type="curve" smooth="yes"/>
      <point x="-56" y="666"/>
      <point x="-72" y="642"/>
      <point x="-104" y="642" type="curve" smooth="yes"/>
      <point x="-134" y="642"/>
      <point x="-153" y="659"/>
      <point x="-153" y="706" type="curve" smooth="yes"/>
      <point x="-153" y="764"/>
      <point x="-109" y="783"/>
      <point x="-78" y="783" type="curve" smooth="yes"/>
      <point x="-22" y="783"/>
      <point x="7" y="770"/>
      <point x="27" y="740" type="curve" smooth="yes"/>
      <point x="53" y="701"/>
      <point x="59" y="644"/>
      <point x="59" y="546" type="curve" smooth="yes"/>
      <point x="59" y="0" type="line"/>
      <point x="138" y="0" type="line"/>
      <point x="138" y="568" type="line" smooth="yes"/>
      <point x="138" y="675"/>
      <point x="122" y="741"/>
      <point x="74" y="789" type="curve" smooth="yes"/>
      <point x="42" y="821"/>
      <point x="-5" y="843"/>
    </contour>
  </outline>
</glyph>
<glyph name="uvowelsignmlym" format="2">
  <advance width="265"/>
  <unicode hex="0D41"/>
  <outline>
    <contour>
      <point x="127" y="-227" type="curve" smooth="yes"/>
      <point x="210" y="-227"/>
      <point x="268" y="-166"/>
      <point x="268" y="-53" type="curve" smooth="yes"/>
      <point x="268" y="61"/>
      <point x="210" y="120"/>
      <point x="126" y="120" type="curve" smooth="yes"/>
      <point x="43" y="120"/>
      <point x="-15" y="58"/>
      <point x="-15" y="-53" type="curve" smooth="yes"/>
      <point x="-15" y="-165"/>
      <point x="40" y="-227"/>
    </contour>
    <contour>
      <point x="127" y="-165" type="curve" smooth="yes"/>
      <point x="84" y="-165"/>
      <point x="59" y="-129"/>
      <point x="59" y="-54" type="curve" smooth="yes"/>
      <point x="59" y="20"/>
      <point x="83" y="58"/>
      <point x="126" y="58" type="curve" smooth="yes"/>
      <point x="171" y="58"/>
      <point x="194" y="19"/>
      <point x="194" y="-53" type="curve" smooth="yes"/>
      <point x="194" y="-127"/>
      <point x="170" y="-165"/>
    </contour>
    <contour>
      <point x="91" y="566" type="curve" smooth="yes"/>
      <point x="54" y="566"/>
      <point x="30" y="561"/>
      <point x="12" y="555" type="curve"/>
      <point x="26" y="490" type="line"/>
      <point x="40" y="495"/>
      <point x="58" y="498"/>
      <point x="74" y="498" type="curve" smooth="yes"/>
      <point x="123" y="498"/>
      <point x="137" y="460"/>
      <point x="137" y="402" type="curve" smooth="yes"/>
      <point x="137" y="315"/>
      <point x="119" y="214"/>
      <point x="94" y="99" type="curve"/>
      <point x="167" y="84" type="line"/>
      <point x="195" y="200"/>
      <point x="218" y="325"/>
      <point x="218" y="410" type="curve" smooth="yes"/>
      <point x="218" y="490"/>
      <point x="186" y="566"/>
    </contour>
  </outline>
</glyph>
<glyph name="uuvowelsignmlym" format="2">
  <advance width="265"/>
  <unicode hex="0D42"/>
  <outline>
    <contour>
      <point x="127" y="-227" type="curve" smooth="yes"/>
      <point x="210" y="-227"/>
      <point x="268" y="-166"/>
      <point x="268" y="-53" type="curve" smooth="yes"/>
      <point x="268" y="61"/>
      <point x="210" y="120"/>
      <point x="126" y="120" type="curve" smooth="yes"/>
      <point x="43" y="120"/>
      <point x="-15" y="58"/>
      <point x="-15" y="-53" type="curve" smooth="yes"/>
      <point x="-15" y="-165"/>
      <point x="40" y="-227"/>
    </contour>
    <contour>
      <point x="126" y="62" type="curve" smooth="yes"/>
      <point x="175" y="62"/>
      <point x="207" y="25"/>
      <point x="207" y="-55" type="curve" smooth="yes"/>
      <point x="207" y="-129"/>
      <point x="176" y="-166"/>
      <point x="127" y="-166" type="curve" smooth="yes"/>
      <point x="78" y="-166"/>
      <point x="46" y="-131"/>
      <point x="46" y="-54" type="curve" smooth="yes"/>
      <point x="46" y="26"/>
      <point x="79" y="62"/>
    </contour>
    <contour>
      <point x="125" y="-96" type="curve" smooth="yes"/>
      <point x="196" y="-96"/>
      <point x="213" y="-39"/>
      <point x="213" y="13" type="curve" smooth="yes"/>
      <point x="213" y="40"/>
      <point x="207" y="64"/>
      <point x="184" y="97" type="curve"/>
      <point x="145" y="67" type="line"/>
      <point x="165" y="56"/>
      <point x="177" y="40"/>
      <point x="177" y="14" type="curve" smooth="yes"/>
      <point x="177" y="-14"/>
      <point x="158" y="-32"/>
      <point x="126" y="-32" type="curve" smooth="yes"/>
      <point x="90" y="-32"/>
      <point x="75" y="-13"/>
      <point x="75" y="14" type="curve" smooth="yes"/>
      <point x="75" y="38"/>
      <point x="87" y="55"/>
      <point x="110" y="68" type="curve"/>
      <point x="74" y="97" type="line"/>
      <point x="51" y="67"/>
      <point x="40" y="42"/>
      <point x="40" y="9" type="curve" smooth="yes"/>
      <point x="40" y="-49"/>
      <point x="61" y="-96"/>
    </contour>
    <contour>
      <point x="93" y="566" type="curve" smooth="yes"/>
      <point x="54" y="566"/>
      <point x="30" y="561"/>
      <point x="12" y="555" type="curve"/>
      <point x="26" y="490" type="line"/>
      <point x="40" y="495"/>
      <point x="59" y="498"/>
      <point x="74" y="498" type="curve" smooth="yes"/>
      <point x="123" y="498"/>
      <point x="137" y="460"/>
      <point x="137" y="402" type="curve" smooth="yes"/>
      <point x="137" y="315"/>
      <point x="119" y="214"/>
      <point x="94" y="99" type="curve"/>
      <point x="167" y="84" type="line"/>
      <point x="195" y="200"/>
      <point x="218" y="325"/>
      <point x="218" y="410" type="curve" smooth="yes"/>
      <point x="218" y="490"/>
      <point x="186" y="566"/>
    </contour>
  </outline>
</glyph>
<glyph name="rvocalicvowelsignmlym" format="2">
  <advance width="205"/>
  <unicode hex="0D43"/>
  <outline>
    <contour>
      <point x="29" y="-316" type="curve" smooth="yes"/>
      <point x="123" y="-316"/>
      <point x="201" y="-267"/>
      <point x="201" y="-122" type="curve" smooth="yes"/>
      <point x="201" y="-52"/>
      <point x="188" y="2"/>
      <point x="155" y="107" type="curve" smooth="yes"/>
      <point x="132" y="180"/>
      <point x="119" y="230"/>
      <point x="119" y="305" type="curve" smooth="yes"/>
      <point x="119" y="389"/>
      <point x="135" y="453"/>
      <point x="178" y="554" type="curve"/>
      <point x="96" y="554" type="line"/>
      <point x="63" y="473"/>
      <point x="39" y="387"/>
      <point x="39" y="303" type="curve" smooth="yes"/>
      <point x="39" y="219"/>
      <point x="60" y="151"/>
      <point x="79" y="88" type="curve" smooth="yes"/>
      <point x="112" y="-19"/>
      <point x="124" y="-59"/>
      <point x="124" y="-123" type="curve" smooth="yes"/>
      <point x="124" y="-214"/>
      <point x="89" y="-250"/>
      <point x="29" y="-250" type="curve" smooth="yes"/>
      <point x="-16" y="-250"/>
      <point x="-45" y="-223"/>
      <point x="-45" y="-171" type="curve" smooth="yes"/>
      <point x="-45" y="-118"/>
      <point x="-16" y="-95"/>
      <point x="26" y="-95" type="curve" smooth="yes"/>
      <point x="67" y="-95"/>
      <point x="105" y="-112"/>
      <point x="150" y="-154" type="curve"/>
      <point x="164" y="-92" type="line"/>
      <point x="114" y="-40"/>
      <point x="62" y="-29"/>
      <point x="23" y="-29" type="curve" smooth="yes"/>
      <point x="-71" y="-29"/>
      <point x="-121" y="-87"/>
      <point x="-121" y="-168" type="curve" smooth="yes"/>
      <point x="-121" y="-266"/>
      <point x="-61" y="-316"/>
    </contour>
  </outline>
</glyph>
<glyph name="rrvocalicvowelsignmlym" format="2">
  <advance width="205"/>
  <unicode hex="0D44"/>
  <outline>
    <contour>
      <point x="-18" y="-316" type="curve" smooth="yes"/>
      <point x="100" y="-316"/>
      <point x="201" y="-257"/>
      <point x="201" y="-125" type="curve" smooth="yes"/>
      <point x="201" y="-50"/>
      <point x="188" y="2"/>
      <point x="155" y="107" type="curve" smooth="yes"/>
      <point x="132" y="180"/>
      <point x="119" y="230"/>
      <point x="119" y="305" type="curve" smooth="yes"/>
      <point x="119" y="389"/>
      <point x="135" y="453"/>
      <point x="178" y="554" type="curve"/>
      <point x="96" y="554" type="line"/>
      <point x="63" y="473"/>
      <point x="39" y="387"/>
      <point x="39" y="303" type="curve" smooth="yes"/>
      <point x="39" y="219"/>
      <point x="60" y="149"/>
      <point x="79" y="86" type="curve" smooth="yes"/>
      <point x="111" y="-19"/>
      <point x="122" y="-57"/>
      <point x="122" y="-121" type="curve" smooth="yes"/>
      <point x="122" y="-205"/>
      <point x="72" y="-250"/>
      <point x="-19" y="-250" type="curve" smooth="yes"/>
      <point x="-104" y="-250"/>
      <point x="-144" y="-210"/>
      <point x="-144" y="-148" type="curve" smooth="yes"/>
      <point x="-144" y="-116"/>
      <point x="-130" y="-99"/>
      <point x="-110" y="-99" type="curve" smooth="yes"/>
      <point x="-89" y="-99"/>
      <point x="-78" y="-121"/>
      <point x="-78" y="-157" type="curve" smooth="yes"/>
      <point x="-78" y="-176" type="line"/>
      <point x="-21" y="-176" type="line"/>
      <point x="-21" y="-157" type="line" smooth="yes"/>
      <point x="-21" y="-123"/>
      <point x="-14" y="-99"/>
      <point x="11" y="-99" type="curve" smooth="yes"/>
      <point x="32" y="-99"/>
      <point x="41" y="-123"/>
      <point x="41" y="-161" type="curve" smooth="yes"/>
      <point x="41" y="-176" type="line"/>
      <point x="98" y="-176" type="line"/>
      <point x="98" y="-144" type="line" smooth="yes"/>
      <point x="98" y="-92"/>
      <point x="83" y="-37"/>
      <point x="18" y="-37" type="curve" smooth="yes"/>
      <point x="-14" y="-37"/>
      <point x="-40" y="-54"/>
      <point x="-54" y="-84" type="curve"/>
      <point x="-46" y="-85" type="line"/>
      <point x="-59" y="-55"/>
      <point x="-85" y="-37"/>
      <point x="-116" y="-37" type="curve" smooth="yes"/>
      <point x="-173" y="-37"/>
      <point x="-213" y="-79"/>
      <point x="-213" y="-149" type="curve" smooth="yes"/>
      <point x="-213" y="-253"/>
      <point x="-143" y="-316"/>
    </contour>
  </outline>
</glyph>
<glyph name="evowelsignmlym" format="2">
  <advance width="549"/>
  <unicode hex="0D46"/>
  <outline>
    <contour>
      <point x="186" y="-12" type="curve" smooth="yes"/>
      <point x="272" y="-12"/>
      <point x="319" y="42"/>
      <point x="319" y="160" type="curve" smooth="yes"/>
      <point x="319" y="272"/>
      <point x="272" y="326"/>
      <point x="193" y="326" type="curve" smooth="yes"/>
      <point x="141" y="326"/>
      <point x="94" y="291"/>
      <point x="63" y="257" type="curve"/>
      <point x="84" y="204" type="line"/>
      <point x="115" y="242"/>
      <point x="140" y="260"/>
      <point x="175" y="260" type="curve" smooth="yes"/>
      <point x="218" y="260"/>
      <point x="241" y="231"/>
      <point x="241" y="157" type="curve" smooth="yes"/>
      <point x="241" y="84"/>
      <point x="219" y="55"/>
      <point x="185" y="55" type="curve" smooth="yes"/>
      <point x="141" y="55"/>
      <point x="111" y="99"/>
      <point x="111" y="231" type="curve" smooth="yes"/>
      <point x="111" y="394"/>
      <point x="183" y="498"/>
      <point x="284" y="498" type="curve" smooth="yes"/>
      <point x="376" y="498"/>
      <point x="431" y="422"/>
      <point x="431" y="279" type="curve" smooth="yes"/>
      <point x="431" y="163"/>
      <point x="389" y="90"/>
      <point x="343" y="47" type="curve"/>
      <point x="399" y="-8" type="line"/>
      <point x="466" y="59"/>
      <point x="513" y="144"/>
      <point x="513" y="289" type="curve" smooth="yes"/>
      <point x="513" y="448"/>
      <point x="441" y="566"/>
      <point x="286" y="566" type="curve" smooth="yes"/>
      <point x="140" y="566"/>
      <point x="36" y="449"/>
      <point x="36" y="234" type="curve" smooth="yes"/>
      <point x="36" y="54"/>
      <point x="104" y="-12"/>
    </contour>
  </outline>
</glyph>
<glyph name="eevowelsignmlym" format="2">
  <advance width="463"/>
  <unicode hex="0D47"/>
  <outline>
    <contour>
      <point x="272" y="-12" type="curve" smooth="yes"/>
      <point x="384" y="-12"/>
      <point x="428" y="50"/>
      <point x="428" y="128" type="curve" smooth="yes"/>
      <point x="428" y="216"/>
      <point x="379" y="255"/>
      <point x="311" y="255" type="curve" smooth="yes"/>
      <point x="232" y="255"/>
      <point x="199" y="199"/>
      <point x="199" y="135" type="curve" smooth="yes"/>
      <point x="199" y="100"/>
      <point x="210" y="67"/>
      <point x="228" y="45" type="curve"/>
      <point x="297" y="39" type="line"/>
      <point x="279" y="58"/>
      <point x="266" y="91"/>
      <point x="266" y="128" type="curve" smooth="yes"/>
      <point x="266" y="161"/>
      <point x="277" y="191"/>
      <point x="312" y="191" type="curve" smooth="yes"/>
      <point x="345" y="191"/>
      <point x="357" y="166"/>
      <point x="357" y="129" type="curve" smooth="yes"/>
      <point x="357" y="79"/>
      <point x="331" y="49"/>
      <point x="288" y="49" type="curve" smooth="yes"/>
      <point x="278" y="49"/>
      <point x="253" y="49"/>
      <point x="237" y="51" type="curve"/>
      <point x="166" y="66"/>
      <point x="116" y="151"/>
      <point x="116" y="280" type="curve" smooth="yes"/>
      <point x="116" y="411"/>
      <point x="176" y="496"/>
      <point x="250" y="504" type="curve"/>
      <point x="261" y="505"/>
      <point x="284" y="505"/>
      <point x="297" y="505" type="curve" smooth="yes"/>
      <point x="333" y="505"/>
      <point x="362" y="479"/>
      <point x="362" y="426" type="curve" smooth="yes"/>
      <point x="362" y="385"/>
      <point x="349" y="364"/>
      <point x="317" y="364" type="curve" smooth="yes"/>
      <point x="280" y="364"/>
      <point x="271" y="394"/>
      <point x="271" y="426" type="curve" smooth="yes"/>
      <point x="271" y="462"/>
      <point x="284" y="496"/>
      <point x="302" y="515" type="curve"/>
      <point x="232" y="507" type="line"/>
      <point x="216" y="488"/>
      <point x="204" y="455"/>
      <point x="204" y="424" type="curve" smooth="yes"/>
      <point x="204" y="353"/>
      <point x="235" y="300"/>
      <point x="320" y="300" type="curve" smooth="yes"/>
      <point x="387" y="300"/>
      <point x="433" y="344"/>
      <point x="433" y="427" type="curve" smooth="yes"/>
      <point x="433" y="503"/>
      <point x="390" y="566"/>
      <point x="282" y="566" type="curve" smooth="yes"/>
      <point x="151" y="566"/>
      <point x="36" y="478"/>
      <point x="36" y="281" type="curve" smooth="yes"/>
      <point x="36" y="80"/>
      <point x="140" y="-12"/>
    </contour>
  </outline>
</glyph>
<glyph name="viramamlym" format="2">
  <unicode hex="0D4D"/>
  <outline>
    <contour>
      <point x="-90" y="591" type="curve" smooth="yes"/>
      <point x="4" y="591"/>
      <point x="48" y="656"/>
      <point x="48" y="749" type="curve" smooth="yes"/>
      <point x="48" y="777"/>
      <point x="43" y="802"/>
      <point x="38" y="818" type="curve"/>
      <point x="-30" y="807" type="line"/>
      <point x="-26" y="791"/>
      <point x="-23" y="770"/>
      <point x="-23" y="749" type="curve" smooth="yes"/>
      <point x="-23" y="677"/>
      <point x="-50" y="655"/>
      <point x="-90" y="655" type="curve" smooth="yes"/>
      <point x="-127" y="655"/>
      <point x="-156" y="677"/>
      <point x="-156" y="748" type="curve" smooth="yes"/>
      <point x="-156" y="770"/>
      <point x="-154" y="790"/>
      <point x="-149" y="807" type="curve"/>
      <point x="-217" y="818" type="line"/>
      <point x="-222" y="802"/>
      <point x="-227" y="776"/>
      <point x="-227" y="748" type="curve" smooth="yes"/>
      <point x="-227" y="656"/>
      <point x="-182" y="591"/>
    </contour>
  </outline>
</glyph>
<glyph name="rephmlym" format="2">
  <unicode hex="0D4E"/>
  <outline>
    <contour>
      <point x="-233" y="809" type="line"/>
      <point x="-324" y="809" type="line"/>
      <point x="-317" y="627" type="line"/>
      <point x="-240" y="627" type="line"/>
    </contour>
  </outline>
</glyph>
<glyph name="uni0D4F" format="2">
  <advance width="964"/>
  <unicode hex="0D4F"/>
  <outline>
    <contour>
      <point x="459" y="566" type="curve" smooth="yes"/>
      <point x="323" y="566"/>
      <point x="220" y="462"/>
      <point x="220" y="241" type="curve" smooth="yes"/>
      <point x="220" y="54"/>
      <point x="288" y="-12"/>
      <point x="370" y="-12" type="curve" smooth="yes"/>
      <point x="456" y="-12"/>
      <point x="503" y="42"/>
      <point x="503" y="160" type="curve" smooth="yes"/>
      <point x="503" y="272"/>
      <point x="456" y="326"/>
      <point x="377" y="326" type="curve" smooth="yes"/>
      <point x="325" y="326"/>
      <point x="278" y="291"/>
      <point x="247" y="257" type="curve"/>
      <point x="268" y="204" type="line"/>
      <point x="299" y="242"/>
      <point x="324" y="260"/>
      <point x="359" y="260" type="curve" smooth="yes"/>
      <point x="402" y="260"/>
      <point x="425" y="231"/>
      <point x="425" y="157" type="curve" smooth="yes"/>
      <point x="425" y="84"/>
      <point x="403" y="55"/>
      <point x="369" y="55" type="curve" smooth="yes"/>
      <point x="325" y="55"/>
      <point x="295" y="99"/>
      <point x="295" y="222" type="curve" smooth="yes"/>
      <point x="295" y="251" type="line" smooth="yes"/>
      <point x="295" y="393"/>
      <point x="359" y="498"/>
      <point x="461" y="498" type="curve" smooth="yes"/>
      <point x="500" y="498"/>
      <point x="527" y="485"/>
      <point x="544" y="465" type="curve" smooth="yes"/>
      <point x="568" y="437"/>
      <point x="575" y="398"/>
      <point x="575" y="326" type="curve" smooth="yes"/>
      <point x="575" y="0" type="line"/>
      <point x="654" y="0" type="line"/>
      <point x="654" y="333" type="line" smooth="yes"/>
      <point x="654" y="411"/>
      <point x="664" y="452"/>
      <point x="685" y="475" type="curve" smooth="yes"/>
      <point x="699" y="491"/>
      <point x="717" y="498"/>
      <point x="736" y="498" type="curve" smooth="yes"/>
      <point x="805" y="498"/>
      <point x="841" y="408"/>
      <point x="841" y="238" type="curve" smooth="yes"/>
      <point x="841" y="-23"/>
      <point x="755" y="-157"/>
      <point x="489" y="-157" type="curve" smooth="yes"/>
      <point x="186" y="-157"/>
      <point x="122" y="43"/>
      <point x="122" y="236" type="curve" smooth="yes"/>
      <point x="122" y="317"/>
      <point x="138" y="422"/>
      <point x="175" y="514" type="curve"/>
      <point x="101" y="539" type="line"/>
      <point x="61" y="424"/>
      <point x="44" y="322"/>
      <point x="44" y="234" type="curve" smooth="yes"/>
      <point x="44" y="-12"/>
      <point x="156" y="-230"/>
      <point x="489" y="-230" type="curve" smooth="yes"/>
      <point x="798" y="-230"/>
      <point x="923" y="-69"/>
      <point x="923" y="238" type="curve" smooth="yes"/>
      <point x="923" y="461"/>
      <point x="855" y="566"/>
      <point x="739" y="566" type="curve" smooth="yes"/>
      <point x="682" y="566"/>
      <point x="641" y="540"/>
      <point x="606" y="478" type="curve"/>
      <point x="626" y="473" type="line"/>
      <point x="584" y="533"/>
      <point x="541" y="566"/>
    </contour>
  </outline>
</glyph>
<glyph name="machillumlym" format="2">
  <advance width="493"/>
  <unicode hex="0D54"/>
  <outline>
    <contour>
      <point x="128" y="792" type="curve" smooth="yes"/>
      <point x="95" y="792"/>
      <point x="59" y="785"/>
      <point x="40" y="779" type="curve"/>
      <point x="55" y="711" type="line"/>
      <point x="72" y="716"/>
      <point x="95" y="720"/>
      <point x="113" y="720" type="curve" smooth="yes"/>
      <point x="131" y="720"/>
      <point x="144" y="715"/>
      <point x="154" y="706" type="curve" smooth="yes"/>
      <point x="167" y="695"/>
      <point x="174" y="674"/>
      <point x="174" y="635" type="curve" smooth="yes"/>
      <point x="174" y="545" type="line" smooth="yes"/>
      <point x="174" y="415"/>
      <point x="189" y="340"/>
      <point x="273" y="220" type="curve"/>
      <point x="296" y="193" type="line"/>
      <point x="324" y="154"/>
      <point x="358" y="111"/>
      <point x="398" y="62" type="curve"/>
      <point x="423" y="64" type="line"/>
      <point x="398" y="65"/>
      <point x="362" y="66"/>
      <point x="342" y="66" type="curve" smooth="yes"/>
      <point x="286" y="66" type="line" smooth="yes"/>
      <point x="266" y="66"/>
      <point x="236" y="66"/>
      <point x="208" y="63" type="curve"/>
      <point x="212" y="47" type="line"/>
      <point x="254" y="93"/>
      <point x="297" y="140"/>
      <point x="334" y="192" type="curve"/>
      <point x="348" y="210" type="line"/>
      <point x="383" y="262"/>
      <point x="408" y="320"/>
      <point x="408" y="385" type="curve" smooth="yes"/>
      <point x="408" y="490"/>
      <point x="348" y="566"/>
      <point x="259" y="566" type="curve" smooth="yes"/>
      <point x="195" y="566"/>
      <point x="149" y="543"/>
      <point x="111" y="499" type="curve" smooth="yes"/>
      <point x="71" y="452"/>
      <point x="52" y="390"/>
      <point x="52" y="281" type="curve" smooth="yes"/>
      <point x="52" y="0" type="line"/>
      <point x="454" y="0" type="line"/>
      <point x="485" y="63" type="line"/>
      <point x="422" y="139"/>
      <point x="375" y="199"/>
      <point x="341" y="249" type="curve"/>
      <point x="323" y="271" type="line"/>
      <point x="260" y="370"/>
      <point x="250" y="433"/>
      <point x="250" y="524" type="curve" smooth="yes"/>
      <point x="250" y="648" type="line" smooth="yes"/>
      <point x="250" y="704"/>
      <point x="241" y="739"/>
      <point x="213" y="764" type="curve" smooth="yes"/>
      <point x="194" y="781"/>
      <point x="165" y="792"/>
    </contour>
    <contour>
      <point x="131" y="60" type="line"/>
      <point x="131" y="260" type="line" smooth="yes"/>
      <point x="131" y="339"/>
      <point x="139" y="387"/>
      <point x="153" y="425" type="curve" smooth="yes"/>
      <point x="170" y="471"/>
      <point x="197" y="500"/>
      <point x="236" y="500" type="curve" smooth="yes"/>
      <point x="295" y="500"/>
      <point x="327" y="450"/>
      <point x="327" y="386" type="curve" smooth="yes"/>
      <point x="327" y="354"/>
      <point x="319" y="317"/>
      <point x="302" y="282" type="curve"/>
      <point x="285" y="255" type="line"/>
      <point x="242" y="179"/>
      <point x="176" y="106"/>
      <point x="130" y="62" type="curve"/>
    </contour>
  </outline>
</glyph>
<glyph name="yachillumlym" format="2">
  <advance width="794"/>
  <unicode hex="0D55"/>
  <outline>
    <contour>
      <point x="519" y="-12" type="curve" smooth="yes"/>
      <point x="687" y="-12"/>
      <point x="760" y="99"/>
      <point x="760" y="227" type="curve" smooth="yes"/>
      <point x="760" y="311"/>
      <point x="727" y="396"/>
      <point x="682" y="485" type="curve" smooth="yes"/>
      <point x="635" y="578"/>
      <point x="621" y="610"/>
      <point x="621" y="658" type="curve" smooth="yes"/>
      <point x="621" y="688"/>
      <point x="638" y="720"/>
      <point x="681" y="720" type="curve" smooth="yes"/>
      <point x="701" y="720"/>
      <point x="716" y="717"/>
      <point x="732" y="711" type="curve"/>
      <point x="747" y="779" type="line"/>
      <point x="730" y="785"/>
      <point x="698" y="792"/>
      <point x="670" y="792" type="curve" smooth="yes"/>
      <point x="572" y="792"/>
      <point x="542" y="720"/>
      <point x="542" y="662" type="curve" smooth="yes"/>
      <point x="542" y="593"/>
      <point x="569" y="539"/>
      <point x="614" y="450" type="curve" smooth="yes"/>
      <point x="659" y="360"/>
      <point x="679" y="305"/>
      <point x="679" y="220" type="curve" smooth="yes"/>
      <point x="679" y="122"/>
      <point x="624" y="53"/>
      <point x="515" y="53" type="curve" smooth="yes"/>
      <point x="481" y="53"/>
      <point x="459" y="60"/>
      <point x="439" y="72" type="curve"/>
      <point x="432" y="76"/>
      <point x="425" y="80"/>
      <point x="418" y="86" type="curve"/>
      <point x="353" y="142"/>
      <point x="327" y="261"/>
      <point x="327" y="346" type="curve" smooth="yes"/>
      <point x="327" y="448"/>
      <point x="357" y="500"/>
      <point x="408" y="500" type="curve" smooth="yes"/>
      <point x="449" y="500"/>
      <point x="488" y="464"/>
      <point x="488" y="344" type="curve" smooth="yes"/>
      <point x="488" y="245"/>
      <point x="460" y="136"/>
      <point x="394" y="82" type="curve"/>
      <point x="387" y="77"/>
      <point x="379" y="72"/>
      <point x="371" y="68" type="curve"/>
      <point x="349" y="56"/>
      <point x="326" y="53"/>
      <point x="292" y="53" type="curve" smooth="yes"/>
      <point x="184" y="53"/>
      <point x="117" y="157"/>
      <point x="117" y="327" type="curve" smooth="yes"/>
      <point x="117" y="446"/>
      <point x="158" y="499"/>
      <point x="215" y="499" type="curve" smooth="yes"/>
      <point x="242" y="499"/>
      <point x="265" y="488"/>
      <point x="288" y="455" type="curve"/>
      <point x="346" y="499" type="line"/>
      <point x="299" y="546"/>
      <point x="265" y="566"/>
      <point x="209" y="566" type="curve" smooth="yes"/>
      <point x="102" y="566"/>
      <point x="36" y="477"/>
      <point x="36" y="328" type="curve" smooth="yes"/>
      <point x="36" y="129"/>
      <point x="126" y="-12"/>
      <point x="290" y="-12" type="curve" smooth="yes"/>
      <point x="342" y="-12"/>
      <point x="387" y="-1"/>
      <point x="424" y="23" type="curve"/>
      <point x="431" y="28"/>
      <point x="442" y="37"/>
      <point x="448" y="42" type="curve"/>
      <point x="525" y="110"/>
      <point x="569" y="213"/>
      <point x="569" y="346" type="curve" smooth="yes"/>
      <point x="569" y="489"/>
      <point x="509" y="566"/>
      <point x="409" y="566" type="curve" smooth="yes"/>
      <point x="355" y="566"/>
      <point x="318" y="543"/>
      <point x="292" y="507" type="curve" smooth="yes"/>
      <point x="279" y="490" type="line"/>
      <point x="257" y="449"/>
      <point x="246" y="396"/>
      <point x="246" y="351" type="curve" smooth="yes"/>
      <point x="246" y="226"/>
      <point x="286" y="118"/>
      <point x="360" y="48" type="curve"/>
      <point x="368" y="41"/>
      <point x="375" y="31"/>
      <point x="384" y="25" type="curve"/>
      <point x="421" y="0"/>
      <point x="464" y="-12"/>
    </contour>
  </outline>
</glyph>
<glyph name="lllachillumlym" format="2">
  <advance width="578"/>
  <unicode hex="0D56"/>
  <outline>
    <contour>
      <point x="176" y="161" type="curve" smooth="yes"/>
      <point x="176" y="221"/>
      <point x="190" y="264"/>
      <point x="252" y="423" type="curve" smooth="yes"/>
      <point x="301" y="550"/>
      <point x="322" y="607"/>
      <point x="322" y="674" type="curve" smooth="yes"/>
      <point x="322" y="723"/>
      <point x="296" y="792"/>
      <point x="197" y="792" type="curve" smooth="yes"/>
      <point x="164" y="792"/>
      <point x="131" y="786"/>
      <point x="112" y="780" type="curve"/>
      <point x="127" y="712" type="line"/>
      <point x="141" y="717"/>
      <point x="164" y="720"/>
      <point x="183" y="720" type="curve" smooth="yes"/>
      <point x="222" y="720"/>
      <point x="243" y="696"/>
      <point x="243" y="653" type="curve" smooth="yes"/>
      <point x="243" y="603"/>
      <point x="223" y="544"/>
      <point x="182" y="444" type="curve" smooth="yes"/>
      <point x="129" y="315"/>
      <point x="103" y="238"/>
      <point x="103" y="169" type="curve" smooth="yes"/>
      <point x="103" y="42"/>
      <point x="168" y="-12"/>
      <point x="266" y="-12" type="curve" smooth="yes"/>
      <point x="382" y="-12"/>
      <point x="413" y="61"/>
      <point x="413" y="122" type="curve" smooth="yes"/>
      <point x="413" y="228"/>
      <point x="343" y="298"/>
      <point x="343" y="414" type="curve" smooth="yes"/>
      <point x="343" y="463"/>
      <point x="364" y="501"/>
      <point x="405" y="501" type="curve" smooth="yes"/>
      <point x="448" y="501"/>
      <point x="465" y="453"/>
      <point x="465" y="399" type="curve" smooth="yes"/>
      <point x="465" y="288"/>
      <point x="420" y="217"/>
      <point x="310" y="217" type="curve" smooth="yes"/>
      <point x="295" y="217" type="line" smooth="yes"/>
      <point x="237" y="217"/>
      <point x="191" y="229"/>
      <point x="160" y="257" type="curve"/>
      <point x="142" y="270" type="line"/>
      <point x="122" y="302"/>
      <point x="113" y="340"/>
      <point x="113" y="394" type="curve" smooth="yes"/>
      <point x="113" y="442"/>
      <point x="123" y="483"/>
      <point x="147" y="530" type="curve"/>
      <point x="83" y="566" type="line"/>
      <point x="48" y="508"/>
      <point x="34" y="454"/>
      <point x="34" y="393" type="curve" smooth="yes"/>
      <point x="34" y="307"/>
      <point x="63" y="239"/>
      <point x="124" y="197" type="curve"/>
      <point x="147" y="186" type="line"/>
      <point x="191" y="162"/>
      <point x="235" y="152"/>
      <point x="295" y="152" type="curve" smooth="yes"/>
      <point x="309" y="152" type="line" smooth="yes"/>
      <point x="467" y="152"/>
      <point x="544" y="255"/>
      <point x="544" y="400" type="curve" smooth="yes"/>
      <point x="544" y="484"/>
      <point x="502" y="566"/>
      <point x="403" y="566" type="curve" smooth="yes"/>
      <point x="319" y="566"/>
      <point x="270" y="504"/>
      <point x="270" y="418" type="curve" smooth="yes"/>
      <point x="270" y="302"/>
      <point x="337" y="223"/>
      <point x="337" y="127" type="curve" smooth="yes"/>
      <point x="337" y="89"/>
      <point x="325" y="55"/>
      <point x="267" y="55" type="curve" smooth="yes"/>
      <point x="197" y="55"/>
      <point x="176" y="104"/>
    </contour>
  </outline>
</glyph>
<glyph name="aulengthmarkmlym" format="2">
  <advance width="586"/>
  <unicode hex="0D57"/>
  <outline>
    <contour>
      <point x="391" y="566" type="curve" smooth="yes"/>
      <point x="340" y="566"/>
      <point x="304" y="547"/>
      <point x="276" y="493" type="curve"/>
      <point x="288" y="492" type="line"/>
      <point x="264" y="540"/>
      <point x="228" y="566"/>
      <point x="175" y="566" type="curve" smooth="yes"/>
      <point x="78" y="566"/>
      <point x="33" y="488"/>
      <point x="33" y="397" type="curve" smooth="yes"/>
      <point x="33" y="346"/>
      <point x="42" y="299"/>
      <point x="53" y="256" type="curve"/>
      <point x="127" y="273" type="line"/>
      <point x="119" y="306"/>
      <point x="113" y="348"/>
      <point x="113" y="393" type="curve" smooth="yes"/>
      <point x="113" y="453"/>
      <point x="136" y="498"/>
      <point x="182" y="498" type="curve" smooth="yes"/>
      <point x="201" y="498"/>
      <point x="216" y="490"/>
      <point x="226" y="474" type="curve" smooth="yes"/>
      <point x="241" y="452"/>
      <point x="245" y="420"/>
      <point x="245" y="355" type="curve" smooth="yes"/>
      <point x="245" y="260" type="line"/>
      <point x="324" y="260" type="line"/>
      <point x="324" y="354" type="line" smooth="yes"/>
      <point x="324" y="432"/>
      <point x="329" y="462"/>
      <point x="347" y="482" type="curve" smooth="yes"/>
      <point x="356" y="492"/>
      <point x="367" y="498"/>
      <point x="384" y="498" type="curve" smooth="yes"/>
      <point x="434" y="498"/>
      <point x="466" y="432"/>
      <point x="466" y="305" type="curve" smooth="yes"/>
      <point x="466" y="135"/>
      <point x="424" y="60"/>
      <point x="311" y="60" type="curve" smooth="yes"/>
      <point x="265" y="60"/>
      <point x="222" y="74"/>
      <point x="189" y="92" type="curve"/>
      <point x="151" y="28" type="line"/>
      <point x="204" y="-3"/>
      <point x="267" y="-12"/>
      <point x="316" y="-12" type="curve" smooth="yes"/>
      <point x="464" y="-12"/>
      <point x="548" y="79"/>
      <point x="548" y="305" type="curve" smooth="yes"/>
      <point x="548" y="482"/>
      <point x="491" y="566"/>
    </contour>
  </outline>
</glyph>
<glyph name="uni0D58" format="2">
  <advance width="922"/>
  <unicode hex="0D58"/>
  <outline>
    <contour>
      <point x="457" y="-12" type="curve"/>
      <point x="520" y="-12"/>
      <point x="557" y="17"/>
      <point x="586" y="72" type="curve"/>
      <point x="619" y="250" type="line"/>
      <point x="619" y="554" type="line"/>
      <point x="540" y="554" type="line"/>
      <point x="540" y="218" type="line" smooth="yes"/>
      <point x="540" y="153"/>
      <point x="538" y="115"/>
      <point x="522" y="89" type="curve" smooth="yes"/>
      <point x="509" y="68"/>
      <point x="490" y="56"/>
      <point x="458" y="56" type="curve" smooth="yes"/>
      <point x="429" y="56"/>
      <point x="410" y="68"/>
      <point x="397" y="89" type="curve" smooth="yes"/>
      <point x="379" y="119"/>
      <point x="375" y="160"/>
      <point x="375" y="221" type="curve" smooth="yes"/>
      <point x="375" y="554" type="line"/>
      <point x="296" y="554" type="line"/>
      <point x="296" y="224" type="line" smooth="yes"/>
      <point x="296" y="155"/>
      <point x="291" y="113"/>
      <point x="269" y="82" type="curve" smooth="yes"/>
      <point x="257" y="66"/>
      <point x="241" y="56"/>
      <point x="218" y="56" type="curve" smooth="yes"/>
      <point x="159" y="56"/>
      <point x="117" y="132"/>
      <point x="117" y="257" type="curve" smooth="yes"/>
      <point x="117" y="382"/>
      <point x="159" y="457"/>
      <point x="203" y="510" type="curve"/>
      <point x="141" y="562" type="line"/>
      <point x="82" y="489"/>
      <point x="35" y="402"/>
      <point x="35" y="253" type="curve" smooth="yes"/>
      <point x="35" y="95"/>
      <point x="99" y="-12"/>
      <point x="212" y="-12" type="curve" smooth="yes"/>
      <point x="277" y="-12"/>
      <point x="313" y="19"/>
      <point x="343" y="74" type="curve"/>
      <point x="329" y="73" type="line"/>
      <point x="360" y="12"/>
      <point x="401" y="-12"/>
    </contour>
    <contour>
      <point x="703" y="-12" type="curve"/>
      <point x="817" y="-12"/>
      <point x="880" y="86"/>
      <point x="880" y="315" type="curve" smooth="yes"/>
      <point x="880" y="678"/>
      <point x="733" y="843"/>
      <point x="477" y="843" type="curve" smooth="yes"/>
      <point x="404" y="843"/>
      <point x="352" y="837"/>
      <point x="286" y="820" type="curve"/>
      <point x="297" y="751" type="line"/>
      <point x="357" y="768"/>
      <point x="420" y="774"/>
      <point x="475" y="774" type="curve" smooth="yes"/>
      <point x="655" y="774"/>
      <point x="799" y="668"/>
      <point x="799" y="315" type="curve" smooth="yes"/>
      <point x="799" y="138"/>
      <point x="762" y="56"/>
      <point x="698" y="56" type="curve" smooth="yes"/>
      <point x="676" y="56"/>
      <point x="661" y="64"/>
      <point x="649" y="79" type="curve" smooth="yes"/>
      <point x="626" y="108"/>
      <point x="619" y="154"/>
      <point x="619" y="225" type="curve" smooth="yes"/>
      <point x="619" y="544" type="line"/>
      <point x="547" y="544" type="line"/>
      <point x="547" y="216" type="line"/>
      <point x="573" y="75" type="line"/>
      <point x="604" y="13"/>
      <point x="645" y="-12"/>
    </contour>
  </outline>
</glyph>
<glyph name="uni0D59" format="2">
  <advance width="857"/>
  <unicode hex="0D59"/>
  <outline>
    <contour>
      <point x="278" y="566" type="curve" smooth="yes"/>
      <point x="116" y="566"/>
      <point x="36" y="438"/>
      <point x="36" y="288" type="curve" smooth="yes"/>
      <point x="36" y="148"/>
      <point x="88" y="50"/>
      <point x="150" y="-8" type="curve"/>
      <point x="206" y="47" type="line"/>
      <point x="154" y="97"/>
      <point x="118" y="168"/>
      <point x="118" y="281" type="curve" smooth="yes"/>
      <point x="118" y="414"/>
      <point x="178" y="498"/>
      <point x="283" y="498" type="curve" smooth="yes"/>
      <point x="381" y="498"/>
      <point x="435" y="420"/>
      <point x="448" y="323" type="curve"/>
      <point x="450" y="303" type="line"/>
      <point x="452" y="286"/>
      <point x="454" y="265"/>
      <point x="454" y="236" type="curve" smooth="yes"/>
      <point x="454" y="103"/>
      <point x="425" y="54"/>
      <point x="374" y="54" type="curve" smooth="yes"/>
      <point x="332" y="54"/>
      <point x="309" y="88"/>
      <point x="309" y="141" type="curve" smooth="yes"/>
      <point x="309" y="183"/>
      <point x="323" y="211"/>
      <point x="346" y="229" type="curve" smooth="yes"/>
      <point x="375" y="252"/>
      <point x="412" y="260"/>
      <point x="488" y="260" type="curve" smooth="yes"/>
      <point x="549" y="260" type="line"/>
      <point x="549" y="326" type="line"/>
      <point x="490" y="326" type="line" smooth="yes"/>
      <point x="390" y="326"/>
      <point x="338" y="316"/>
      <point x="295" y="285" type="curve" smooth="yes"/>
      <point x="257" y="257"/>
      <point x="231" y="214"/>
      <point x="231" y="140" type="curve" smooth="yes"/>
      <point x="231" y="62"/>
      <point x="271" y="-12"/>
      <point x="374" y="-12" type="curve" smooth="yes"/>
      <point x="466" y="-12"/>
      <point x="532" y="43"/>
      <point x="532" y="234" type="curve" smooth="yes"/>
      <point x="532" y="436"/>
      <point x="448" y="566"/>
    </contour>
    <contour>
      <point x="710" y="554" type="curve" smooth="yes"/>
      <point x="632" y="554"/>
      <point x="577" y="505"/>
      <point x="577" y="417" type="curve" smooth="yes"/>
      <point x="577" y="364"/>
      <point x="595" y="317"/>
      <point x="617" y="283" type="curve"/>
      <point x="688" y="289" type="line"/>
      <point x="669" y="319"/>
      <point x="651" y="356"/>
      <point x="651" y="409" type="curve" smooth="yes"/>
      <point x="651" y="457"/>
      <point x="672" y="489"/>
      <point x="709" y="489" type="curve" smooth="yes"/>
      <point x="743" y="489"/>
      <point x="761" y="462"/>
      <point x="761" y="418" type="curve" smooth="yes"/>
      <point x="761" y="390"/>
      <point x="755" y="368"/>
      <point x="741" y="353" type="curve" smooth="yes"/>
      <point x="725" y="335"/>
      <point x="705" y="326"/>
      <point x="651" y="326" type="curve" smooth="yes"/>
      <point x="507" y="326" type="line"/>
      <point x="501" y="260" type="line"/>
      <point x="633" y="260" type="line" smooth="yes"/>
      <point x="709" y="260"/>
      <point x="751" y="269"/>
      <point x="785" y="295" type="curve" smooth="yes"/>
      <point x="820" y="322"/>
      <point x="837" y="367"/>
      <point x="837" y="416" type="curve" smooth="yes"/>
      <point x="837" y="490"/>
      <point x="800" y="554"/>
    </contour>
  </outline>
</glyph>
<glyph name="uni0D5A" format="2">
  <advance width="814"/>
  <unicode hex="0D5A"/>
  <outline>
    <contour>
      <point x="528" y="566" type="curve" smooth="yes"/>
      <point x="438" y="566"/>
      <point x="375" y="534"/>
      <point x="335" y="449" type="curve"/>
      <point x="368" y="458" type="line"/>
      <point x="328" y="537"/>
      <point x="288" y="566"/>
      <point x="223" y="566" type="curve" smooth="yes"/>
      <point x="105" y="566"/>
      <point x="36" y="461"/>
      <point x="36" y="301" type="curve" smooth="yes"/>
      <point x="36" y="152"/>
      <point x="84" y="64"/>
      <point x="142" y="-8" type="curve"/>
      <point x="204" y="44" type="line"/>
      <point x="160" y="97"/>
      <point x="118" y="172"/>
      <point x="118" y="297" type="curve" smooth="yes"/>
      <point x="118" y="422"/>
      <point x="165" y="498"/>
      <point x="225" y="498" type="curve" smooth="yes"/>
      <point x="247" y="498"/>
      <point x="264" y="489"/>
      <point x="277" y="474" type="curve" smooth="yes"/>
      <point x="298" y="449"/>
      <point x="307" y="411"/>
      <point x="307" y="326" type="curve" smooth="yes"/>
      <point x="307" y="230" type="line"/>
      <point x="386" y="230" type="line"/>
      <point x="386" y="257" type="line" smooth="yes"/>
      <point x="386" y="337"/>
      <point x="390" y="383"/>
      <point x="405" y="424" type="curve" smooth="yes"/>
      <point x="422" y="471"/>
      <point x="452" y="499"/>
      <point x="486" y="499" type="curve" smooth="yes"/>
      <point x="524" y="499"/>
      <point x="536" y="464"/>
      <point x="536" y="408" type="curve" smooth="yes"/>
      <point x="536" y="292"/>
      <point x="472" y="162"/>
      <point x="385" y="64" type="curve"/>
      <point x="385" y="0" type="line"/>
      <point x="763" y="0" type="line"/>
      <point x="763" y="278" type="line" smooth="yes"/>
      <point x="763" y="387"/>
      <point x="745" y="451"/>
      <point x="703" y="499" type="curve" smooth="yes"/>
      <point x="665" y="543"/>
      <point x="608" y="566"/>
    </contour>
    <contour>
      <point x="616" y="397" type="curve" smooth="yes"/>
      <point x="616" y="441"/>
      <point x="602" y="477"/>
      <point x="578" y="505" type="curve"/>
      <point x="578" y="499" type="line"/>
      <point x="653" y="476"/>
      <point x="684" y="411"/>
      <point x="684" y="279" type="curve" smooth="yes"/>
      <point x="684" y="66" type="line"/>
      <point x="543" y="66" type="line" smooth="yes"/>
      <point x="521" y="66"/>
      <point x="475" y="64"/>
      <point x="448" y="61" type="curve"/>
      <point x="461" y="45" type="line"/>
      <point x="555" y="159"/>
      <point x="616" y="268"/>
    </contour>
  </outline>
</glyph>
<glyph name="uni0D5B" format="2">
  <advance width="733"/>
  <unicode hex="0D5B"/>
  <outline>
    <contour>
      <point x="471" y="-12" type="curve" smooth="yes"/>
      <point x="622" y="-12"/>
      <point x="697" y="110"/>
      <point x="697" y="266" type="curve" smooth="yes"/>
      <point x="697" y="406"/>
      <point x="646" y="506"/>
      <point x="583" y="562" type="curve"/>
      <point x="527" y="507" type="line"/>
      <point x="579" y="457"/>
      <point x="615" y="381"/>
      <point x="615" y="272" type="curve" smooth="yes"/>
      <point x="615" y="137"/>
      <point x="558" y="56"/>
      <point x="472" y="56" type="curve" smooth="yes"/>
      <point x="387" y="56"/>
      <point x="332" y="132"/>
      <point x="332" y="273" type="curve" smooth="yes"/>
      <point x="332" y="385"/>
      <point x="372" y="459"/>
      <point x="411" y="499" type="curve"/>
      <point x="373" y="554" type="line"/>
      <point x="59" y="554" type="line"/>
      <point x="59" y="0" type="line"/>
      <point x="138" y="0" type="line"/>
      <point x="138" y="488" type="line"/>
      <point x="328" y="488" type="line"/>
      <point x="324" y="502" type="line"/>
      <point x="280" y="447"/>
      <point x="250" y="371"/>
      <point x="250" y="265" type="curve" smooth="yes"/>
      <point x="250" y="108"/>
      <point x="319" y="-12"/>
    </contour>
  </outline>
</glyph>
<glyph name="uni0D5C" format="2">
  <advance width="1143"/>
  <unicode hex="0D5C"/>
  <outline>
    <contour>
      <point x="688" y="566" type="curve" smooth="yes"/>
      <point x="636" y="566"/>
      <point x="604" y="552"/>
      <point x="579" y="527" type="curve" smooth="yes"/>
      <point x="546" y="494"/>
      <point x="532" y="443"/>
      <point x="532" y="348" type="curve" smooth="yes"/>
      <point x="532" y="202" type="line" smooth="yes"/>
      <point x="532" y="145"/>
      <point x="529" y="105"/>
      <point x="509" y="79" type="curve" smooth="yes"/>
      <point x="498" y="64"/>
      <point x="479" y="56"/>
      <point x="456" y="56" type="curve" smooth="yes"/>
      <point x="433" y="56"/>
      <point x="414" y="64"/>
      <point x="403" y="79" type="curve" smooth="yes"/>
      <point x="383" y="105"/>
      <point x="380" y="145"/>
      <point x="380" y="202" type="curve" smooth="yes"/>
      <point x="380" y="346" type="line" smooth="yes"/>
      <point x="380" y="427"/>
      <point x="374" y="484"/>
      <point x="332" y="526" type="curve" smooth="yes"/>
      <point x="307" y="551"/>
      <point x="271" y="566"/>
      <point x="223" y="566" type="curve" smooth="yes"/>
      <point x="102" y="566"/>
      <point x="36" y="467"/>
      <point x="36" y="305" type="curve" smooth="yes"/>
      <point x="36" y="152"/>
      <point x="85" y="60"/>
      <point x="143" y="-12" type="curve"/>
      <point x="205" y="40" type="line"/>
      <point x="161" y="93"/>
      <point x="118" y="173"/>
      <point x="118" y="301" type="curve" smooth="yes"/>
      <point x="118" y="424"/>
      <point x="158" y="498"/>
      <point x="219" y="498" type="curve" smooth="yes"/>
      <point x="249" y="498"/>
      <point x="265" y="489"/>
      <point x="277" y="473" type="curve" smooth="yes"/>
      <point x="297" y="445"/>
      <point x="301" y="404"/>
      <point x="301" y="317" type="curve" smooth="yes"/>
      <point x="301" y="200" type="line" smooth="yes"/>
      <point x="301" y="112"/>
      <point x="315" y="60"/>
      <point x="348" y="27" type="curve" smooth="yes"/>
      <point x="373" y="2"/>
      <point x="405" y="-12"/>
      <point x="455" y="-12" type="curve" smooth="yes"/>
      <point x="507" y="-12"/>
      <point x="539" y="2"/>
      <point x="564" y="27" type="curve" smooth="yes"/>
      <point x="597" y="60"/>
      <point x="611" y="111"/>
      <point x="611" y="202" type="curve" smooth="yes"/>
      <point x="611" y="352" type="line" smooth="yes"/>
      <point x="611" y="409"/>
      <point x="614" y="449"/>
      <point x="634" y="475" type="curve" smooth="yes"/>
      <point x="645" y="490"/>
      <point x="664" y="498"/>
      <point x="687" y="498" type="curve" smooth="yes"/>
      <point x="710" y="498"/>
      <point x="729" y="490"/>
      <point x="740" y="475" type="curve" smooth="yes"/>
      <point x="760" y="449"/>
      <point x="763" y="409"/>
      <point x="763" y="352" type="curve" smooth="yes"/>
      <point x="763" y="194" type="line" smooth="yes"/>
      <point x="763" y="123"/>
      <point x="772" y="66"/>
      <point x="808" y="31" type="curve" smooth="yes"/>
      <point x="836" y="3"/>
      <point x="872" y="-12"/>
      <point x="926" y="-12" type="curve" smooth="yes"/>
      <point x="1036" y="-12"/>
      <point x="1107" y="81"/>
      <point x="1107" y="249" type="curve" smooth="yes"/>
      <point x="1107" y="402"/>
      <point x="1058" y="494"/>
      <point x="1000" y="566" type="curve"/>
      <point x="938" y="514" type="line"/>
      <point x="982" y="461"/>
      <point x="1025" y="381"/>
      <point x="1025" y="253" type="curve" smooth="yes"/>
      <point x="1025" y="130"/>
      <point x="985" y="56"/>
      <point x="924" y="56" type="curve" smooth="yes"/>
      <point x="894" y="56"/>
      <point x="878" y="65"/>
      <point x="866" y="81" type="curve" smooth="yes"/>
      <point x="846" y="109"/>
      <point x="842" y="150"/>
      <point x="842" y="237" type="curve" smooth="yes"/>
      <point x="842" y="354" type="line" smooth="yes"/>
      <point x="842" y="449"/>
      <point x="828" y="494"/>
      <point x="795" y="527" type="curve" smooth="yes"/>
      <point x="770" y="552"/>
      <point x="735" y="566"/>
    </contour>
  </outline>
</glyph>
